<?xml version="1.0" encoding="utf-8"?>
<!-- Generator: Adobe Illustrator 26.5.0, SVG Export Plug-In . SVG Version: 6.00 Build 0)  -->
<svg version="1.2" baseProfile="tiny" id="Layer_1" xmlns="http://www.w3.org/2000/svg" xmlns:xlink="http://www.w3.org/1999/xlink"
	 x="0px" y="0px" viewBox="0 0 150 150" overflow="visible" xml:space="preserve">
<g>
	<line fill="none" stroke="#CACAC9" stroke-width="0.75" stroke-miterlimit="10" x1="21.4" y1="110.8" x2="44.5" y2="96.8"/>
	<g>
		<g>
			<g>
				<g>
					<g>
						<linearGradient id="SVGID_1_" gradientUnits="userSpaceOnUse" x1="22.5265" y1="77.7194" x2="20.1533" y2="77.7194">
							<stop  offset="0" style="stop-color:#AAA8A9"/>
							<stop  offset="1" style="stop-color:#F0EFEF"/>
						</linearGradient>
						<path fill="url(#SVGID_1_)" d="M20.2,44.2v66.2c0,0.4,0.5,0.7,1.2,0.7c0.7,0,1.2-0.3,1.2-0.7V44.2H20.2z"/>
						
							<linearGradient id="SVGID_00000157287279430785634770000011212799180313236373_" gradientUnits="userSpaceOnUse" x1="21.3993" y1="44.8027" x2="21.4066" y2="43.5567">
							<stop  offset="0" style="stop-color:#AAA8A9"/>
							<stop  offset="1" style="stop-color:#F0EFEF"/>
						</linearGradient>
						<ellipse fill="url(#SVGID_00000157287279430785634770000011212799180313236373_)" cx="21.4" cy="44.2" rx="1.2" ry="0.7"/>
					</g>
				</g>
			</g>
		</g>
		<g>
			<path fill="#C4D82E" d="M17.5,41.9l5.5-2.3c1.4-0.6,3-0.3,4.1,0.8v0c1.5,1.5,1.3,4-0.4,5.4l-4.3,3.4L17.5,41.9z"/>
			
				<ellipse transform="matrix(0.7982 -0.6024 0.6024 0.7982 -23.4256 21.1999)" fill="#00A99D" cx="19.9" cy="45.6" rx="2.5" ry="4.4"/>
			
				<linearGradient id="SVGID_00000018214431767515633480000014859974685987288210_" gradientUnits="userSpaceOnUse" x1="18.054" y1="45.4155" x2="19.5144" y2="25.7726">
				<stop  offset="0.2209" style="stop-color:#00A599"/>
				<stop  offset="0.9341" style="stop-color:#BFD330"/>
			</linearGradient>
			<path fill="url(#SVGID_00000018214431767515633480000014859974685987288210_)" d="M16.8,43.1l-0.1-15.5c0-1.8,1.9-2.9,3.4-2.1
				l0,0c0.8,0.4,1.3,1.3,1.2,2.1L20.7,46L16.8,43.1z"/>
			
				<linearGradient id="SVGID_00000016034074016328693900000012274633266106431913_" gradientUnits="userSpaceOnUse" x1="20.0333" y1="47.5332" x2="40.7715" y2="61.4074">
				<stop  offset="0.2209" style="stop-color:#00A599"/>
				<stop  offset="0.9341" style="stop-color:#BFD330"/>
			</linearGradient>
			<path fill="url(#SVGID_00000016034074016328693900000012274633266106431913_)" d="M22,46l15.5,10.3c0.7,0.5,1.1,1.3,1,2.1v0
				c-0.1,1.9-2.2,2.9-3.7,1.8L20.1,50.1L22,46z"/>
			
				<linearGradient id="SVGID_00000058547923432883663960000000862343757518239873_" gradientUnits="userSpaceOnUse" x1="16.4656" y1="47.9096" x2="6.0235" y2="52.656">
				<stop  offset="0.2209" style="stop-color:#00A599"/>
				<stop  offset="0.9341" style="stop-color:#BFD330"/>
			</linearGradient>
			<path fill="url(#SVGID_00000058547923432883663960000000862343757518239873_)" d="M15.5,45.8l-13,5.8c-1.2,0.5-1.7,1.9-1.3,3.1
				l0,0c0.5,1.3,2,2,3.3,1.4l14.9-6.9L15.5,45.8z"/>
			
				<linearGradient id="SVGID_00000016789905566446078750000011439461410545432705_" gradientUnits="userSpaceOnUse" x1="20.3126" y1="50.4453" x2="16.7153" y2="43.7148">
				<stop  offset="0.2209" style="stop-color:#00A599"/>
				<stop  offset="0.9341" style="stop-color:#BFD330"/>
			</linearGradient>
			<path fill="url(#SVGID_00000016789905566446078750000011439461410545432705_)" d="M22.5,48.1c0-1.8-1.5-4.2-3.3-5.3
				c-1-0.6-2-0.6-2.6-0.2l0,0l0,0c-0.3,0.2-0.5,0.5-0.6,0.8L15.5,44c-1.1,1.4-1.1,3.4,0,4.9l0,0c1,1.4,2.9,2,4.6,1.5l1.1-0.4
				c0.2,0,0.4-0.1,0.5-0.2l0,0l0,0C22.2,49.5,22.5,48.9,22.5,48.1z"/>
		</g>
	</g>
	<g>
		<g>
			
				<linearGradient id="SVGID_00000165913789867996808940000015939176092174217918_" gradientUnits="userSpaceOnUse" x1="86.8702" y1="59.0268" x2="69.8018" y2="59.0268">
				<stop  offset="0" style="stop-color:#E8E7E7"/>
				<stop  offset="0.3238" style="stop-color:#FFFFFF"/>
				<stop  offset="0.7098" style="stop-color:#C5C4C4"/>
				<stop  offset="1" style="stop-color:#908D8D"/>
			</linearGradient>
			<path fill="url(#SVGID_00000165913789867996808940000015939176092174217918_)" d="M87.2,39.6l0,34.7c0,0,0,0.1,0,0.1
				c0,0,0,0.1,0,0.1c0,0,0,0.1,0,0.1v0c0,0,0,0,0,0.1c0,0,0,0.1,0,0.1c0,0,0,0.1,0,0.1c0,0,0,0.1,0,0.1c0,0,0,0,0,0s0,0,0,0.1
				c0,0,0,0.1-0.1,0.1c0,0,0,0.1,0,0.1c0,0,0,0.1-0.1,0.1c0,0,0,0,0,0.1c0,0,0,0,0,0c0,0-0.1,0.1-0.1,0.1c0,0,0,0.1-0.1,0.1
				c0,0-0.1,0.1-0.1,0.1c0,0,0,0,0,0.1l0,0c-0.1,0.1-0.1,0.2-0.2,0.2c0,0,0,0-0.1,0.1c-0.1,0.1-0.1,0.1-0.2,0.2c0,0,0,0,0,0
				c0,0,0,0,0,0c0,0-0.1,0.1-0.1,0.1c0,0-0.1,0.1-0.1,0.1c0,0-0.1,0.1-0.1,0.1c0,0-0.1,0.1-0.1,0.1c0,0-0.1,0.1-0.1,0.1
				c0,0-0.1,0.1-0.1,0.1c0,0-0.1,0.1-0.1,0.1c0,0-0.1,0-0.1,0.1c0,0-0.1,0-0.1,0.1c0,0,0,0-0.1,0c-0.1,0.1-0.3,0.2-0.4,0.2
				c-0.1,0-0.1,0-0.1,0.1c-0.2,0.1-0.3,0.1-0.5,0.2c0,0,0,0-0.1,0c-0.1,0.1-0.3,0.1-0.5,0.2c0,0-0.1,0-0.1,0c-0.1,0-0.3,0.1-0.4,0.1
				c-0.1,0-0.2,0.1-0.3,0.1c-0.1,0-0.3,0.1-0.4,0.1c-0.1,0-0.2,0-0.2,0.1c0,0,0,0,0,0c0,0,0,0,0,0c0,0-0.1,0-0.1,0
				c-0.2,0-0.4,0.1-0.5,0.1c-0.1,0-0.1,0-0.2,0c0,0-0.1,0-0.1,0c-0.1,0-0.1,0-0.2,0c-0.2,0-0.3,0-0.5,0c0,0-0.1,0-0.1,0
				c-0.1,0-0.1,0-0.2,0c-0.1,0-0.3,0-0.4,0h-0.2c-0.1,0-0.1,0-0.2,0c-0.1,0-0.3,0-0.4,0c-0.1,0-0.1,0-0.2,0c-0.1,0-0.1,0-0.2,0
				c-0.1,0-0.3,0-0.4,0l-0.2,0c-0.1,0-0.1,0-0.2,0c-0.1,0-0.3,0-0.4-0.1c-0.1,0-0.1,0-0.2,0c0,0-0.1,0-0.1,0c-0.2,0-0.3-0.1-0.5-0.1
				c-0.1,0-0.1,0-0.2,0c0,0-0.1,0-0.1,0c-0.1,0-0.1,0-0.2,0c-0.2-0.1-0.3-0.1-0.5-0.2c0,0-0.1,0-0.1,0c0,0,0,0-0.1,0
				c-0.1-0.1-0.2-0.1-0.3-0.1c-0.1,0-0.1-0.1-0.2-0.1c-0.2-0.1-0.4-0.2-0.6-0.3c-1.5-0.9-2.3-2-2.3-3.2l0-34.7
				c0,1.2,0.8,2.3,2.3,3.2c0.2,0.1,0.4,0.2,0.6,0.3c0.1,0,0.1,0.1,0.2,0.1c0.1,0.1,0.3,0.1,0.4,0.2c0,0,0.1,0,0.1,0.1
				c0.2,0.1,0.3,0.1,0.5,0.2c0.1,0,0.1,0,0.2,0.1c0.1,0,0.2,0.1,0.3,0.1c0.2,0,0.3,0.1,0.5,0.1c0.1,0,0.2,0,0.3,0.1
				c0.1,0,0.3,0.1,0.4,0.1c0.1,0,0.2,0,0.3,0c0.1,0,0.3,0,0.4,0c0.1,0,0.2,0,0.4,0c0.1,0,0.3,0,0.4,0c0.1,0,0.2,0,0.4,0h0.4
				c0.1,0,0.2,0,0.3,0c0.2,0,0.4,0,0.5,0c0.1,0,0.2,0,0.3,0l0.2,0c0.2,0,0.4,0,0.5-0.1c0,0,0.1,0,0.1,0c0,0,0,0,0,0
				c0.1,0,0.2,0,0.3-0.1c0.1,0,0.3-0.1,0.4-0.1c0.1,0,0.2-0.1,0.3-0.1c0.1,0,0.3-0.1,0.4-0.1c0.2-0.1,0.4-0.1,0.6-0.2c0,0,0,0,0.1,0
				c0.2-0.1,0.3-0.1,0.5-0.2c0,0,0.1,0,0.1-0.1c0.1-0.1,0.3-0.1,0.4-0.2c0,0,0.1,0,0.1,0c0.1,0,0.1-0.1,0.2-0.1c0,0,0.1-0.1,0.1-0.1
				c0,0,0.1-0.1,0.1-0.1c0,0,0.1-0.1,0.1-0.1c0,0,0.1-0.1,0.1-0.1c0,0,0.1-0.1,0.1-0.1c0,0,0.1-0.1,0.1-0.1c0,0,0.1-0.1,0.1-0.1
				c0,0,0.1,0,0.1-0.1c0.1-0.1,0.1-0.1,0.2-0.2c0,0,0,0,0.1-0.1c0.1-0.1,0.1-0.2,0.2-0.2c0,0,0,0,0-0.1c0,0,0.1-0.1,0.1-0.1
				c0,0,0-0.1,0.1-0.1c0,0,0.1-0.1,0.1-0.1c0,0,0-0.1,0.1-0.1c0,0,0-0.1,0.1-0.1c0,0,0-0.1,0-0.1c0,0,0-0.1,0.1-0.1c0,0,0-0.1,0-0.1
				c0,0,0-0.1,0-0.1c0,0,0-0.1,0-0.1c0,0,0-0.1,0-0.1c0,0,0-0.1,0-0.1c0,0,0-0.1,0-0.1c0,0,0-0.1,0-0.1
				C87.2,39.7,87.2,39.7,87.2,39.6z"/>
			<g>
				<image width="17" height="10" xlink:href="4DF4B51028700908.png"  transform="matrix(1 0 0 1 71 34)">
				</image>
			</g>
			<g>
				
					<linearGradient id="SVGID_00000022521332845425911350000002928330261647742389_" gradientUnits="userSpaceOnUse" x1="72.9977" y1="39.4532" x2="86.0247" y2="39.4532">
					<stop  offset="0" style="stop-color:#B4B4B5"/>
					<stop  offset="0.9948" style="stop-color:#6D6D6D"/>
				</linearGradient>
				<path fill="url(#SVGID_00000022521332845425911350000002928330261647742389_)" d="M84.1,36.8c2.6,1.5,2.6,3.9,0,5.3
					c-2.5,1.5-6.7,1.5-9.2,0c-2.6-1.5-2.6-3.9,0-5.3C77.4,35.3,81.5,35.3,84.1,36.8z"/>
			</g>
			
				<linearGradient id="SVGID_00000034773328280687795430000009123748604148053420_" gradientUnits="userSpaceOnUse" x1="88.9379" y1="46.4398" x2="73.1538" y2="46.4398">
				<stop  offset="0.2209" style="stop-color:#00A599"/>
				<stop  offset="0.9341" style="stop-color:#BFD330"/>
			</linearGradient>
			<path fill="url(#SVGID_00000034773328280687795430000009123748604148053420_)" d="M87.2,44c0,0,0,0.1,0,0.1c0,0,0,0.1,0,0.1
				c0,0,0,0.1,0,0.1c0,0,0,0.1,0,0.1c0,0,0,0.1,0,0.1c0,0,0,0.1,0,0.1c0,0,0,0.1,0,0.1c0,0,0,0.1-0.1,0.1c0,0,0,0.1,0,0.1
				c0,0,0,0.1-0.1,0.1c0,0,0,0.1-0.1,0.1c0,0-0.1,0.1-0.1,0.1c0,0,0,0.1-0.1,0.1c0,0.1-0.1,0.1-0.1,0.1c0,0,0,0,0,0.1
				c-0.1,0.1-0.1,0.2-0.2,0.2c0,0,0,0-0.1,0.1c-0.1,0.1-0.1,0.1-0.2,0.2c0,0-0.1,0.1-0.1,0.1c0,0-0.1,0.1-0.1,0.1
				c0,0-0.1,0.1-0.1,0.1c0,0-0.1,0.1-0.1,0.1c0,0-0.1,0.1-0.1,0.1c0,0-0.1,0.1-0.1,0.1c0,0-0.1,0.1-0.1,0.1c0,0-0.1,0.1-0.1,0.1
				c-0.1,0-0.1,0.1-0.2,0.1c0,0-0.1,0-0.1,0c-0.1,0.1-0.3,0.2-0.4,0.2c-0.1,0-0.1,0-0.1,0.1c-0.2,0.1-0.3,0.1-0.5,0.2c0,0,0,0-0.1,0
				c-0.2,0.1-0.4,0.1-0.6,0.2c-0.1,0-0.3,0.1-0.4,0.1c-0.1,0-0.2,0.1-0.3,0.1c-0.1,0-0.3,0.1-0.4,0.1c-0.1,0-0.2,0-0.3,0.1
				c0,0,0,0,0,0c0,0-0.1,0-0.1,0c-0.2,0-0.4,0.1-0.5,0.1l-0.2,0c-0.1,0-0.2,0-0.3,0c-0.2,0-0.3,0-0.5,0c-0.1,0-0.2,0-0.3,0h-0.4
				c-0.1,0-0.2,0-0.4,0c-0.1,0-0.3,0-0.4,0c-0.1,0-0.2,0-0.4,0c-0.1,0-0.3,0-0.4,0c-0.1,0-0.2,0-0.3,0c-0.1,0-0.3,0-0.4-0.1
				c-0.1,0-0.2,0-0.3-0.1c-0.2,0-0.3-0.1-0.5-0.1c-0.1,0-0.2-0.1-0.3-0.1c-0.1,0-0.1,0-0.2-0.1c-0.2,0-0.3-0.1-0.5-0.2
				c0,0-0.1,0-0.1-0.1c-0.1-0.1-0.3-0.1-0.4-0.2c-0.1,0-0.1-0.1-0.2-0.1c-0.2-0.1-0.4-0.2-0.6-0.3c-1.5-0.9-2.3-2-2.3-3.2v1.1
				c0,1.2,0.8,2.3,2.3,3.2c0.2,0.1,0.4,0.2,0.6,0.3c0.1,0,0.1,0.1,0.2,0.1c0.1,0.1,0.3,0.1,0.4,0.2c0,0,0.1,0,0.1,0.1
				c0.2,0.1,0.3,0.1,0.5,0.2c0.1,0,0.1,0,0.2,0.1c0.1,0,0.2,0.1,0.3,0.1c0.2,0,0.3,0.1,0.5,0.1c0.1,0,0.2,0,0.3,0.1
				c0.1,0,0.3,0.1,0.4,0.1c0.1,0,0.2,0,0.3,0c0.1,0,0.3,0,0.4,0c0.1,0,0.2,0,0.4,0c0.1,0,0.3,0,0.4,0c0.1,0,0.2,0,0.4,0h0.4
				c0.1,0,0.2,0,0.3,0c0.2,0,0.4,0,0.5,0c0.1,0,0.2,0,0.3,0l0.2,0c0.2,0,0.4,0,0.5-0.1c0,0,0.1,0,0.1,0c0,0,0,0,0,0
				c0.1,0,0.2,0,0.3-0.1c0.1,0,0.3-0.1,0.4-0.1c0.1,0,0.2-0.1,0.3-0.1c0.1,0,0.3-0.1,0.4-0.1c0.2-0.1,0.4-0.1,0.6-0.2c0,0,0,0,0.1,0
				c0.2-0.1,0.3-0.1,0.5-0.2c0,0,0.1,0,0.1-0.1c0.1-0.1,0.3-0.1,0.4-0.2c0,0,0.1,0,0.1,0c0.1,0,0.1-0.1,0.2-0.1c0,0,0.1-0.1,0.1-0.1
				c0,0,0.1-0.1,0.1-0.1c0,0,0.1-0.1,0.1-0.1c0,0,0.1-0.1,0.1-0.1c0,0,0.1-0.1,0.1-0.1c0,0,0.1-0.1,0.1-0.1c0,0,0.1-0.1,0.1-0.1
				c0,0,0.1,0,0.1-0.1c0.1-0.1,0.1-0.1,0.2-0.2c0,0,0,0,0.1-0.1c0.1-0.1,0.1-0.2,0.2-0.2c0,0,0,0,0-0.1c0,0,0.1-0.1,0.1-0.2
				c0,0,0-0.1,0.1-0.1c0,0,0.1-0.1,0.1-0.1c0,0,0-0.1,0.1-0.1c0,0,0-0.1,0.1-0.1c0,0,0-0.1,0-0.1c0,0,0-0.1,0.1-0.1c0,0,0-0.1,0-0.1
				c0,0,0-0.1,0-0.1c0,0,0-0.1,0-0.1c0,0,0-0.1,0-0.1c0,0,0-0.1,0-0.1c0,0,0-0.1,0-0.1c0,0,0-0.1,0-0.1c0,0,0-0.1,0-0.1v-1.1
				C87.2,43.9,87.2,43.9,87.2,44z"/>
			
				<linearGradient id="SVGID_00000072960989026353953730000010465627501710063492_" gradientUnits="userSpaceOnUse" x1="88.9379" y1="52.8007" x2="73.1538" y2="52.8007">
				<stop  offset="0.2209" style="stop-color:#00A599"/>
				<stop  offset="0.9341" style="stop-color:#BFD330"/>
			</linearGradient>
			<path fill="url(#SVGID_00000072960989026353953730000010465627501710063492_)" d="M87.2,50.3c0,0,0,0.1,0,0.1c0,0,0,0.1,0,0.1
				c0,0,0,0.1,0,0.1c0,0,0,0.1,0,0.1c0,0,0,0.1,0,0.1c0,0,0,0.1,0,0.1c0,0,0,0.1,0,0.1c0,0,0,0.1-0.1,0.1c0,0,0,0.1,0,0.1
				c0,0,0,0.1-0.1,0.1c0,0,0,0.1-0.1,0.1c0,0-0.1,0.1-0.1,0.1c0,0,0,0.1-0.1,0.1c0,0.1-0.1,0.1-0.1,0.1c0,0,0,0,0,0.1
				c-0.1,0.1-0.1,0.2-0.2,0.2c0,0,0,0-0.1,0.1c-0.1,0.1-0.1,0.1-0.2,0.2c0,0-0.1,0.1-0.1,0.1c0,0-0.1,0.1-0.1,0.1
				c0,0-0.1,0.1-0.1,0.1c0,0-0.1,0.1-0.1,0.1c0,0-0.1,0.1-0.1,0.1c0,0-0.1,0.1-0.1,0.1c0,0-0.1,0.1-0.1,0.1c0,0-0.1,0.1-0.1,0.1
				c-0.1,0-0.1,0.1-0.2,0.1c0,0-0.1,0-0.1,0c-0.1,0.1-0.3,0.2-0.4,0.2c-0.1,0-0.1,0-0.1,0.1c-0.2,0.1-0.3,0.1-0.5,0.2c0,0,0,0-0.1,0
				c-0.2,0.1-0.4,0.1-0.6,0.2c-0.1,0-0.3,0.1-0.4,0.1c-0.1,0-0.2,0.1-0.3,0.1c-0.1,0-0.3,0.1-0.4,0.1c-0.1,0-0.2,0-0.3,0.1
				c0,0,0,0,0,0c0,0-0.1,0-0.1,0c-0.2,0-0.4,0.1-0.5,0.1l-0.2,0c-0.1,0-0.2,0-0.3,0c-0.2,0-0.3,0-0.5,0c-0.1,0-0.2,0-0.3,0h-0.4
				c-0.1,0-0.2,0-0.4,0c-0.1,0-0.3,0-0.4,0c-0.1,0-0.2,0-0.4,0c-0.1,0-0.3,0-0.4,0c-0.1,0-0.2,0-0.3,0c-0.1,0-0.3,0-0.4-0.1
				c-0.1,0-0.2,0-0.3-0.1c-0.2,0-0.3-0.1-0.5-0.1c-0.1,0-0.2-0.1-0.3-0.1c-0.1,0-0.1,0-0.2-0.1c-0.2,0-0.3-0.1-0.5-0.2
				c0,0-0.1,0-0.1-0.1c-0.1-0.1-0.3-0.1-0.4-0.2c-0.1,0-0.1-0.1-0.2-0.1c-0.2-0.1-0.4-0.2-0.6-0.3c-1.5-0.9-2.3-2-2.3-3.2v1.1
				c0,1.2,0.8,2.3,2.3,3.2c0.2,0.1,0.4,0.2,0.6,0.3c0.1,0,0.1,0.1,0.2,0.1c0.1,0.1,0.3,0.1,0.4,0.2c0,0,0.1,0,0.1,0.1
				c0.2,0.1,0.3,0.1,0.5,0.2c0.1,0,0.1,0,0.2,0.1c0.1,0,0.2,0.1,0.3,0.1c0.2,0,0.3,0.1,0.5,0.1c0.1,0,0.2,0,0.3,0.1
				c0.1,0,0.3,0.1,0.4,0.1c0.1,0,0.2,0,0.3,0c0.1,0,0.3,0,0.4,0c0.1,0,0.2,0,0.4,0c0.1,0,0.3,0,0.4,0c0.1,0,0.2,0,0.4,0h0.4
				c0.1,0,0.2,0,0.3,0c0.2,0,0.4,0,0.5,0c0.1,0,0.2,0,0.3,0l0.2,0c0.2,0,0.4,0,0.5-0.1c0,0,0.1,0,0.1,0c0,0,0,0,0,0
				c0.1,0,0.2,0,0.3-0.1c0.1,0,0.3-0.1,0.4-0.1c0.1,0,0.2-0.1,0.3-0.1c0.1,0,0.3-0.1,0.4-0.1c0.2-0.1,0.4-0.1,0.6-0.2c0,0,0,0,0.1,0
				c0.2-0.1,0.3-0.1,0.5-0.2c0,0,0.1,0,0.1-0.1c0.1-0.1,0.3-0.1,0.4-0.2c0,0,0.1,0,0.1,0c0.1,0,0.1-0.1,0.2-0.1c0,0,0.1-0.1,0.1-0.1
				c0,0,0.1-0.1,0.1-0.1c0,0,0.1-0.1,0.1-0.1c0,0,0.1-0.1,0.1-0.1c0,0,0.1-0.1,0.1-0.1c0,0,0.1-0.1,0.1-0.1c0,0,0.1-0.1,0.1-0.1
				c0,0,0.1,0,0.1-0.1c0.1-0.1,0.1-0.1,0.2-0.2c0,0,0,0,0.1-0.1c0.1-0.1,0.1-0.2,0.2-0.2c0,0,0,0,0-0.1c0,0,0.1-0.1,0.1-0.2
				c0,0,0-0.1,0.1-0.1c0,0,0.1-0.1,0.1-0.1c0,0,0-0.1,0.1-0.1c0,0,0-0.1,0.1-0.1c0,0,0-0.1,0-0.1c0,0,0-0.1,0.1-0.1c0,0,0-0.1,0-0.1
				c0,0,0-0.1,0-0.1c0,0,0-0.1,0-0.1c0,0,0-0.1,0-0.1c0,0,0-0.1,0-0.1c0,0,0-0.1,0-0.1c0,0,0-0.1,0-0.1c0,0,0-0.1,0-0.1v-1.1
				C87.2,50.2,87.2,50.3,87.2,50.3z"/>
			
				<linearGradient id="SVGID_00000078732227010670592980000014922691450048282504_" gradientUnits="userSpaceOnUse" x1="88.9379" y1="59.1615" x2="73.1538" y2="59.1615">
				<stop  offset="0.2209" style="stop-color:#00A599"/>
				<stop  offset="0.9341" style="stop-color:#BFD330"/>
			</linearGradient>
			<path fill="url(#SVGID_00000078732227010670592980000014922691450048282504_)" d="M87.2,56.7c0,0,0,0.1,0,0.1c0,0,0,0.1,0,0.1
				c0,0,0,0.1,0,0.1c0,0,0,0.1,0,0.1c0,0,0,0.1,0,0.1c0,0,0,0.1,0,0.1c0,0,0,0.1,0,0.1c0,0,0,0.1-0.1,0.1c0,0,0,0.1,0,0.1
				c0,0,0,0.1-0.1,0.1c0,0,0,0.1-0.1,0.1c0,0-0.1,0.1-0.1,0.1c0,0,0,0.1-0.1,0.1c0,0.1-0.1,0.1-0.1,0.1c0,0,0,0,0,0.1
				c-0.1,0.1-0.1,0.2-0.2,0.2c0,0,0,0-0.1,0.1c-0.1,0.1-0.1,0.1-0.2,0.2c0,0-0.1,0.1-0.1,0.1c0,0-0.1,0.1-0.1,0.1
				c0,0-0.1,0.1-0.1,0.1c0,0-0.1,0.1-0.1,0.1c0,0-0.1,0.1-0.1,0.1c0,0-0.1,0.1-0.1,0.1c0,0-0.1,0.1-0.1,0.1c0,0-0.1,0.1-0.1,0.1
				c-0.1,0-0.1,0.1-0.2,0.1c0,0-0.1,0-0.1,0c-0.1,0.1-0.3,0.2-0.4,0.2c-0.1,0-0.1,0-0.1,0.1c-0.2,0.1-0.3,0.1-0.5,0.2c0,0,0,0-0.1,0
				c-0.2,0.1-0.4,0.1-0.6,0.2c-0.1,0-0.3,0.1-0.4,0.1c-0.1,0-0.2,0.1-0.3,0.1c-0.1,0-0.3,0.1-0.4,0.1c-0.1,0-0.2,0-0.3,0.1
				c0,0,0,0,0,0c0,0-0.1,0-0.1,0c-0.2,0-0.4,0.1-0.5,0.1l-0.2,0c-0.1,0-0.2,0-0.3,0c-0.2,0-0.3,0-0.5,0c-0.1,0-0.2,0-0.3,0h-0.4
				c-0.1,0-0.2,0-0.4,0c-0.1,0-0.3,0-0.4,0c-0.1,0-0.2,0-0.4,0c-0.1,0-0.3,0-0.4,0c-0.1,0-0.2,0-0.3,0c-0.1,0-0.3,0-0.4-0.1
				c-0.1,0-0.2,0-0.3-0.1c-0.2,0-0.3-0.1-0.5-0.1c-0.1,0-0.2-0.1-0.3-0.1c-0.1,0-0.1,0-0.2-0.1c-0.2,0-0.3-0.1-0.5-0.2
				c0,0-0.1,0-0.1-0.1c-0.1-0.1-0.3-0.1-0.4-0.2c-0.1,0-0.1-0.1-0.2-0.1c-0.2-0.1-0.4-0.2-0.6-0.3c-1.5-0.9-2.3-2-2.3-3.2v1.1
				c0,1.2,0.8,2.3,2.3,3.2c0.2,0.1,0.4,0.2,0.6,0.3c0.1,0,0.1,0.1,0.2,0.1c0.1,0.1,0.3,0.1,0.4,0.2c0,0,0.1,0,0.1,0.1
				c0.2,0.1,0.3,0.1,0.5,0.2c0.1,0,0.1,0,0.2,0.1c0.1,0,0.2,0.1,0.3,0.1c0.2,0,0.3,0.1,0.5,0.1c0.1,0,0.2,0,0.3,0.1
				c0.1,0,0.3,0.1,0.4,0.1c0.1,0,0.2,0,0.3,0c0.1,0,0.3,0,0.4,0c0.1,0,0.2,0,0.4,0c0.1,0,0.3,0,0.4,0c0.1,0,0.2,0,0.4,0h0.4
				c0.1,0,0.2,0,0.3,0c0.2,0,0.4,0,0.5,0c0.1,0,0.2,0,0.3,0l0.2,0c0.2,0,0.4,0,0.5-0.1c0,0,0.1,0,0.1,0c0,0,0,0,0,0
				c0.1,0,0.2,0,0.3-0.1c0.1,0,0.3-0.1,0.4-0.1c0.1,0,0.2-0.1,0.3-0.1c0.1,0,0.3-0.1,0.4-0.1c0.2-0.1,0.4-0.1,0.6-0.2c0,0,0,0,0.1,0
				c0.2-0.1,0.3-0.1,0.5-0.2c0,0,0.1,0,0.1-0.1c0.1-0.1,0.3-0.1,0.4-0.2c0,0,0.1,0,0.1,0c0.1,0,0.1-0.1,0.2-0.1c0,0,0.1-0.1,0.1-0.1
				c0,0,0.1-0.1,0.1-0.1c0,0,0.1-0.1,0.1-0.1c0,0,0.1-0.1,0.1-0.1c0,0,0.1-0.1,0.1-0.1c0,0,0.1-0.1,0.1-0.1c0,0,0.1-0.1,0.1-0.1
				c0,0,0.1,0,0.1-0.1c0.1-0.1,0.1-0.1,0.2-0.2c0,0,0,0,0.1-0.1c0.1-0.1,0.1-0.2,0.2-0.2c0,0,0,0,0-0.1c0,0,0.1-0.1,0.1-0.2
				c0,0,0-0.1,0.1-0.1c0,0,0.1-0.1,0.1-0.1c0,0,0-0.1,0.1-0.1c0,0,0-0.1,0.1-0.1c0,0,0-0.1,0-0.1c0,0,0-0.1,0.1-0.1c0,0,0-0.1,0-0.1
				c0,0,0-0.1,0-0.1c0,0,0-0.1,0-0.1c0,0,0-0.1,0-0.1c0,0,0-0.1,0-0.1c0,0,0-0.1,0-0.1c0,0,0-0.1,0-0.1c0,0,0-0.1,0-0.1v-1.1
				C87.2,56.6,87.2,56.6,87.2,56.7z"/>
			
				<linearGradient id="SVGID_00000060718279854111623460000001876667497005831590_" gradientUnits="userSpaceOnUse" x1="88.9379" y1="65.5224" x2="73.1538" y2="65.5224">
				<stop  offset="0.2209" style="stop-color:#00A599"/>
				<stop  offset="0.9341" style="stop-color:#BFD330"/>
			</linearGradient>
			<path fill="url(#SVGID_00000060718279854111623460000001876667497005831590_)" d="M87.2,63c0,0,0,0.1,0,0.1c0,0,0,0.1,0,0.1
				c0,0,0,0.1,0,0.1c0,0,0,0.1,0,0.1c0,0,0,0.1,0,0.1c0,0,0,0.1,0,0.1c0,0,0,0.1,0,0.1c0,0,0,0.1-0.1,0.1c0,0,0,0.1,0,0.1
				c0,0,0,0.1-0.1,0.1c0,0,0,0.1-0.1,0.1c0,0-0.1,0.1-0.1,0.1c0,0,0,0.1-0.1,0.1c0,0.1-0.1,0.1-0.1,0.1c0,0,0,0,0,0.1
				c-0.1,0.1-0.1,0.2-0.2,0.2c0,0,0,0-0.1,0.1c-0.1,0.1-0.1,0.1-0.2,0.2c0,0-0.1,0.1-0.1,0.1c0,0-0.1,0.1-0.1,0.1
				c0,0-0.1,0.1-0.1,0.1c0,0-0.1,0.1-0.1,0.1c0,0-0.1,0.1-0.1,0.1c0,0-0.1,0.1-0.1,0.1c0,0-0.1,0.1-0.1,0.1c0,0-0.1,0.1-0.1,0.1
				c-0.1,0-0.1,0.1-0.2,0.1c0,0-0.1,0-0.1,0c-0.1,0.1-0.3,0.2-0.4,0.2c-0.1,0-0.1,0-0.1,0.1c-0.2,0.1-0.3,0.1-0.5,0.2c0,0,0,0-0.1,0
				c-0.2,0.1-0.4,0.1-0.6,0.2c-0.1,0-0.3,0.1-0.4,0.1c-0.1,0-0.2,0.1-0.3,0.1c-0.1,0-0.3,0.1-0.4,0.1c-0.1,0-0.2,0-0.3,0.1
				c0,0,0,0,0,0c0,0-0.1,0-0.1,0c-0.2,0-0.4,0.1-0.5,0.1l-0.2,0c-0.1,0-0.2,0-0.3,0c-0.2,0-0.3,0-0.5,0c-0.1,0-0.2,0-0.3,0h-0.4
				c-0.1,0-0.2,0-0.4,0c-0.1,0-0.3,0-0.4,0c-0.1,0-0.2,0-0.4,0c-0.1,0-0.3,0-0.4,0c-0.1,0-0.2,0-0.3,0c-0.1,0-0.3,0-0.4-0.1
				c-0.1,0-0.2,0-0.3-0.1c-0.2,0-0.3-0.1-0.5-0.1c-0.1,0-0.2-0.1-0.3-0.1c-0.1,0-0.1,0-0.2-0.1c-0.2,0-0.3-0.1-0.5-0.2
				c0,0-0.1,0-0.1-0.1c-0.1-0.1-0.3-0.1-0.4-0.2c-0.1,0-0.1-0.1-0.2-0.1c-0.2-0.1-0.4-0.2-0.6-0.3c-1.5-0.9-2.3-2-2.3-3.2v1.1
				c0,1.2,0.8,2.3,2.3,3.2c0.2,0.1,0.4,0.2,0.6,0.3c0.1,0,0.1,0.1,0.2,0.1c0.1,0.1,0.3,0.1,0.4,0.2c0,0,0.1,0,0.1,0.1
				c0.2,0.1,0.3,0.1,0.5,0.2c0.1,0,0.1,0,0.2,0.1c0.1,0,0.2,0.1,0.3,0.1c0.2,0,0.3,0.1,0.5,0.1c0.1,0,0.2,0,0.3,0.1
				c0.1,0,0.3,0.1,0.4,0.1c0.1,0,0.2,0,0.3,0c0.1,0,0.3,0,0.4,0c0.1,0,0.2,0,0.4,0c0.1,0,0.3,0,0.4,0c0.1,0,0.2,0,0.4,0h0.4
				c0.1,0,0.2,0,0.3,0c0.2,0,0.4,0,0.5,0c0.1,0,0.2,0,0.3,0l0.2,0c0.2,0,0.4,0,0.5-0.1c0,0,0.1,0,0.1,0c0,0,0,0,0,0
				c0.1,0,0.2,0,0.3-0.1c0.1,0,0.3-0.1,0.4-0.1c0.1,0,0.2-0.1,0.3-0.1c0.1,0,0.3-0.1,0.4-0.1c0.2-0.1,0.4-0.1,0.6-0.2c0,0,0,0,0.1,0
				c0.2-0.1,0.3-0.1,0.5-0.2c0,0,0.1,0,0.1-0.1c0.1-0.1,0.3-0.1,0.4-0.2c0,0,0.1,0,0.1,0c0.1,0,0.1-0.1,0.2-0.1c0,0,0.1-0.1,0.1-0.1
				c0,0,0.1-0.1,0.1-0.1c0,0,0.1-0.1,0.1-0.1c0,0,0.1-0.1,0.1-0.1c0,0,0.1-0.1,0.1-0.1c0,0,0.1-0.1,0.1-0.1c0,0,0.1-0.1,0.1-0.1
				c0,0,0.1,0,0.1-0.1c0.1-0.1,0.1-0.1,0.2-0.2c0,0,0,0,0.1-0.1c0.1-0.1,0.1-0.2,0.2-0.2c0,0,0,0,0-0.1c0,0,0.1-0.1,0.1-0.2
				c0,0,0-0.1,0.1-0.1c0,0,0.1-0.1,0.1-0.1c0,0,0-0.1,0.1-0.1c0,0,0-0.1,0.1-0.1c0,0,0-0.1,0-0.1c0,0,0-0.1,0.1-0.1c0,0,0-0.1,0-0.1
				c0,0,0-0.1,0-0.1c0,0,0-0.1,0-0.1c0,0,0-0.1,0-0.1c0,0,0-0.1,0-0.1c0,0,0-0.1,0-0.1c0,0,0-0.1,0-0.1c0,0,0-0.1,0-0.1v-1.1
				C87.2,63,87.2,63,87.2,63z"/>
		</g>
		<g>
			<polygon fill="#C9CACB" points="83,101.2 97.9,109.9 97.9,71.4 83,62.8 			"/>
			<polygon fill="#DEDEDF" points="97.9,109.9 113.7,100.6 113.7,62.2 97.9,71.4 			"/>
			
				<linearGradient id="SVGID_00000166636764022806427090000016201600290608046755_" gradientUnits="userSpaceOnUse" x1="82.9619" y1="62.5001" x2="113.6653" y2="62.5001">
				<stop  offset="0" style="stop-color:#FFFFFF"/>
				<stop  offset="1" style="stop-color:#CDCCCD"/>
			</linearGradient>
			<polygon fill="url(#SVGID_00000166636764022806427090000016201600290608046755_)" points="113.7,62.2 97.9,71.4 83,62.8 
				98.7,53.6 			"/>
			<g>
				<polygon fill="#047096" points="87.8,74.4 92.4,77.1 92.4,73.1 87.8,70.4 				"/>
				<polygon fill="#3D5A77" points="87.8,74.4 88.6,74.1 88.6,70.9 87.8,70.4 				"/>
				<polygon fill="#B5C2CD" points="88.6,74.1 92.4,76.3 92.4,77.1 87.8,74.4 				"/>
			</g>
			<g>
				<polygon fill="#047096" points="87.8,83.5 92.4,86.2 92.4,82.2 87.8,79.5 				"/>
				<polygon fill="#3D5A77" points="87.8,83.5 88.6,83.2 88.6,80 87.8,79.5 				"/>
				<polygon fill="#B5C2CD" points="88.6,83.2 92.4,85.4 92.4,86.2 87.8,83.5 				"/>
			</g>
			<g>
				
					<linearGradient id="SVGID_00000132060621276487185050000006584422879645333173_" gradientUnits="userSpaceOnUse" x1="101.0521" y1="73.088" x2="105.5837" y2="73.088">
					<stop  offset="0" style="stop-color:#38ABA6"/>
					<stop  offset="1" style="stop-color:#5F637A"/>
				</linearGradient>
				<polygon fill="url(#SVGID_00000132060621276487185050000006584422879645333173_)" points="105.6,73.7 101.1,76.4 101.1,72.4 
					105.6,69.8 				"/>
				<polygon fill="#00A99D" points="105.6,73.7 104.9,73.4 104.9,70.2 105.6,69.8 				"/>
				
					<linearGradient id="SVGID_00000118378979014764893920000016008810676097922973_" gradientUnits="userSpaceOnUse" x1="101.0521" y1="74.8989" x2="105.5837" y2="74.8989">
					<stop  offset="0" style="stop-color:#76C6CB"/>
					<stop  offset="1" style="stop-color:#10B3BC"/>
				</linearGradient>
				<polygon fill="url(#SVGID_00000118378979014764893920000016008810676097922973_)" points="104.9,73.4 101.1,75.6 101.1,76.4 
					105.6,73.7 				"/>
			</g>
			<g>
				
					<linearGradient id="SVGID_00000012468855928134689210000010267725173309735050_" gradientUnits="userSpaceOnUse" x1="101.0521" y1="82.187" x2="105.5837" y2="82.187">
					<stop  offset="0" style="stop-color:#38ABA6"/>
					<stop  offset="1" style="stop-color:#5F637A"/>
				</linearGradient>
				<polygon fill="url(#SVGID_00000012468855928134689210000010267725173309735050_)" points="105.6,82.8 101.1,85.5 101.1,81.5 
					105.6,78.9 				"/>
				<polygon fill="#00A99D" points="105.6,82.8 104.9,82.5 104.9,79.3 105.6,78.9 				"/>
				
					<linearGradient id="SVGID_00000114069218160419327570000014537425719867208635_" gradientUnits="userSpaceOnUse" x1="101.0521" y1="83.9979" x2="105.5837" y2="83.9979">
					<stop  offset="0" style="stop-color:#76C6CB"/>
					<stop  offset="1" style="stop-color:#10B3BC"/>
				</linearGradient>
				<polygon fill="url(#SVGID_00000114069218160419327570000014537425719867208635_)" points="104.9,82.5 101.1,84.7 101.1,85.5 
					105.6,82.8 				"/>
			</g>
			<g>
				
					<linearGradient id="SVGID_00000084516311580065855180000013122009571455748757_" gradientUnits="userSpaceOnUse" x1="101.0521" y1="90.5763" x2="105.5837" y2="90.5763">
					<stop  offset="0" style="stop-color:#38ABA6"/>
					<stop  offset="1" style="stop-color:#5F637A"/>
				</linearGradient>
				<polygon fill="url(#SVGID_00000084516311580065855180000013122009571455748757_)" points="105.6,91.2 101.1,93.9 101.1,89.9 
					105.6,87.3 				"/>
				<polygon fill="#00A99D" points="105.6,91.2 104.9,90.9 104.9,87.7 105.6,87.3 				"/>
				
					<linearGradient id="SVGID_00000145770564723439970420000017775426893210607269_" gradientUnits="userSpaceOnUse" x1="101.0521" y1="92.3872" x2="105.5837" y2="92.3872">
					<stop  offset="0" style="stop-color:#76C6CB"/>
					<stop  offset="1" style="stop-color:#10B3BC"/>
				</linearGradient>
				<polygon fill="url(#SVGID_00000145770564723439970420000017775426893210607269_)" points="104.9,90.9 101.1,93.1 101.1,93.9 
					105.6,91.2 				"/>
			</g>
		</g>
		
			<linearGradient id="SVGID_00000071560394836317098420000002405876826436760986_" gradientUnits="userSpaceOnUse" x1="63.4107" y1="96.7655" x2="106.1764" y2="96.7655">
			<stop  offset="0" style="stop-color:#AC5DA3"/>
			<stop  offset="1" style="stop-color:#814C9D"/>
		</linearGradient>
		<polygon fill="url(#SVGID_00000071560394836317098420000002405876826436760986_)" points="63.4,94.9 82.8,83.7 106.2,97.1 
			84.1,109.9 74.9,104.7 77.6,103.1 		"/>
		
			<linearGradient id="SVGID_00000021819485396840373960000004533009681019369105_" gradientUnits="userSpaceOnUse" x1="84.1331" y1="113.1614" x2="106.1764" y2="113.1614">
			<stop  offset="0" style="stop-color:#A39F9E"/>
			<stop  offset="1" style="stop-color:#B6B4B6"/>
		</linearGradient>
		<polygon fill="url(#SVGID_00000021819485396840373960000004533009681019369105_)" points="106.2,97.1 106.2,116.5 84.1,129.2 
			84.1,109.9 		"/>
		
			<linearGradient id="SVGID_00000001633382851920431490000002208191805029738626_" gradientUnits="userSpaceOnUse" x1="74.9224" y1="108.2015" x2="82.8081" y2="123.256">
			<stop  offset="0" style="stop-color:#FFFFFF"/>
			<stop  offset="1" style="stop-color:#CDCCCD"/>
		</linearGradient>
		<polygon fill="url(#SVGID_00000001633382851920431490000002208191805029738626_)" points="74.9,104.7 74.9,124.1 84.1,129.2 
			84.1,109.9 		"/>
		
			<linearGradient id="SVGID_00000035528520543170076790000000684254380906255267_" gradientUnits="userSpaceOnUse" x1="62.3514" y1="95.0195" x2="72.3081" y2="111.6671">
			<stop  offset="0" style="stop-color:#FFFFFF"/>
			<stop  offset="1" style="stop-color:#CDCCCD"/>
		</linearGradient>
		<polygon fill="url(#SVGID_00000035528520543170076790000000684254380906255267_)" points="63.4,94.9 63.4,114.2 74.9,120.8 
			74.9,104.7 77.6,103.1 		"/>
		
			<linearGradient id="SVGID_00000181806001337787138990000010648516815556542135_" gradientUnits="userSpaceOnUse" x1="66.6044" y1="83.9706" x2="75.4939" y2="100.9414">
			<stop  offset="0" style="stop-color:#A39F9E"/>
			<stop  offset="1" style="stop-color:#B6B4B6"/>
		</linearGradient>
		<polygon fill="url(#SVGID_00000181806001337787138990000010648516815556542135_)" points="63.4,114.2 63.4,94.9 83,83.7 83,71.5 
			60.6,90.6 60.6,116.2 		"/>
		
			<linearGradient id="SVGID_00000175320633412125274220000001820288573124717452_" gradientUnits="userSpaceOnUse" x1="85.2237" y1="72.7024" x2="36.4002" y2="79.6535">
			<stop  offset="0" style="stop-color:#FFFFFF"/>
			<stop  offset="1" style="stop-color:#CDCCCD"/>
		</linearGradient>
		<polygon fill="url(#SVGID_00000175320633412125274220000001820288573124717452_)" points="64.4,61.3 83,71.5 60.6,90.6 42,80.4 		
			"/>
		
			<linearGradient id="SVGID_00000053531480555883929590000012682808583170804627_" gradientUnits="userSpaceOnUse" x1="44.1516" y1="84.6978" x2="56.4123" y2="108.1047">
			<stop  offset="0" style="stop-color:#FFFFFF"/>
			<stop  offset="1" style="stop-color:#CDCCCD"/>
		</linearGradient>
		<polygon fill="url(#SVGID_00000053531480555883929590000012682808583170804627_)" points="42,80.4 60.6,90.6 60.6,116.2 42,106.1 
					"/>
		<g>
			<g>
				<polygon fill="#A9AAAA" points="47.1,78.3 62.6,86.8 62.7,85.8 47.2,77.4 				"/>
				<polygon fill="#807F7F" points="62.7,85.8 78.5,72.2 78.4,72.9 62.6,86.8 				"/>
				
					<linearGradient id="SVGID_00000102513087808605282890000013785999783803484597_" gradientUnits="userSpaceOnUse" x1="61.114" y1="83.3936" x2="67.499" y2="51.6965">
					<stop  offset="0" style="stop-color:#FFFFFF"/>
					<stop  offset="1" style="stop-color:#CDCCCD"/>
				</linearGradient>
				<polygon fill="url(#SVGID_00000102513087808605282890000013785999783803484597_)" points="62.7,85.8 78.5,72.2 63,63.7 
					47.2,77.4 				"/>
			</g>
			<g>
				<g>
					<polygon fill="#37738D" points="62.8,67.7 64,66.6 62.8,65.9 61.6,67 					"/>
					<polygon fill="#37738D" points="64.5,68.6 65.7,67.5 64.5,66.9 63.3,67.9 					"/>
					<polygon fill="#37738D" points="66.2,69.5 67.4,68.4 66.1,67.8 64.9,68.8 					"/>
					<polygon fill="#37738D" points="67.8,70.4 69,69.3 67.8,68.7 66.6,69.7 					"/>
					<polygon fill="#37738D" points="69.5,71.3 70.7,70.3 69.5,69.6 68.3,70.7 					"/>
					<polygon fill="#37738D" points="71.1,72.2 72.3,71.2 71.1,70.5 69.9,71.6 					"/>
					<polygon fill="#37738D" points="72.8,73.1 74,72.1 72.8,71.4 71.6,72.5 					"/>
					<polygon fill="#37738D" points="74.5,74.1 75.7,73 74.4,72.3 73.2,73.4 					"/>
				</g>
				<g>
					<polygon fill="#37738D" points="61.2,69.1 62.4,68 61.2,67.4 60,68.4 					"/>
					<polygon fill="#37738D" points="62.8,70 64,68.9 62.8,68.3 61.6,69.3 					"/>
					<polygon fill="#37738D" points="64.5,70.9 65.7,69.8 64.5,69.2 63.3,70.2 					"/>
					<polygon fill="#37738D" points="66.2,71.8 67.4,70.8 66.1,70.1 64.9,71.2 					"/>
					<polygon fill="#37738D" points="67.8,72.7 69,71.7 67.8,71 66.6,72.1 					"/>
					<polygon fill="#37738D" points="69.5,73.6 70.7,72.6 69.5,71.9 68.3,73 					"/>
					<polygon fill="#37738D" points="71.1,74.6 72.3,73.5 71.1,72.8 69.9,73.9 					"/>
					<polygon fill="#37738D" points="72.8,75.5 74,74.4 72.8,73.8 71.6,74.8 					"/>
				</g>
				<g>
					<polygon fill="#37738D" points="59.5,70.5 60.7,69.4 59.5,68.8 58.3,69.8 					"/>
					<polygon fill="#37738D" points="61.2,71.4 62.4,70.4 61.2,69.7 60,70.8 					"/>
					<polygon fill="#37738D" points="62.8,72.3 64,71.3 62.8,70.6 61.6,71.7 					"/>
					<polygon fill="#37738D" points="64.5,73.2 65.7,72.2 64.5,71.5 63.3,72.6 					"/>
					<polygon fill="#37738D" points="66.2,74.2 67.4,73.1 66.1,72.4 64.9,73.5 					"/>
					<polygon fill="#37738D" points="67.8,75.1 69,74 67.8,73.3 66.6,74.4 					"/>
					<polygon fill="#37738D" points="69.5,76 70.7,74.9 69.5,74.3 68.3,75.3 					"/>
					<polygon fill="#37738D" points="71.1,76.9 72.3,75.8 71.1,75.2 69.9,76.2 					"/>
				</g>
				<g>
					<polygon fill="#37738D" points="57.9,71.9 59.1,70.9 57.8,70.2 56.6,71.3 					"/>
					<polygon fill="#37738D" points="59.5,72.8 60.7,71.8 59.5,71.1 58.3,72.2 					"/>
					<polygon fill="#37738D" points="61.2,73.8 62.4,72.7 61.2,72 60,73.1 					"/>
					<polygon fill="#37738D" points="62.8,74.7 64,73.6 62.8,72.9 61.6,74 					"/>
					<polygon fill="#37738D" points="64.5,75.6 65.7,74.5 64.5,73.9 63.3,74.9 					"/>
					<polygon fill="#37738D" points="66.2,76.5 67.4,75.4 66.2,74.8 65,75.8 					"/>
					<polygon fill="#37738D" points="67.8,77.4 69,76.3 67.8,75.7 66.6,76.7 					"/>
					<polygon fill="#37738D" points="69.5,78.3 70.7,77.3 69.5,76.6 68.3,77.7 					"/>
				</g>
				<g>
					<polygon fill="#37738D" points="56.2,73.3 57.4,72.3 56.2,71.6 55,72.7 					"/>
					<polygon fill="#37738D" points="57.9,74.3 59.1,73.2 57.9,72.5 56.7,73.6 					"/>
					<polygon fill="#37738D" points="59.5,75.2 60.7,74.1 59.5,73.5 58.3,74.5 					"/>
					<polygon fill="#37738D" points="61.2,76.1 62.4,75 61.2,74.4 60,75.4 					"/>
					<polygon fill="#37738D" points="62.9,77 64.1,75.9 62.8,75.3 61.6,76.3 					"/>
					<polygon fill="#37738D" points="64.5,77.9 65.7,76.8 64.5,76.2 63.3,77.2 					"/>
					<polygon fill="#37738D" points="66.2,78.8 67.4,77.8 66.2,77.1 65,78.2 					"/>
					<polygon fill="#37738D" points="67.8,79.7 69,78.7 67.8,78 66.6,79.1 					"/>
				</g>
				<g>
					<polygon fill="#37738D" points="54.6,74.8 55.8,73.7 54.5,73 53.3,74.1 					"/>
					<polygon fill="#37738D" points="56.2,75.7 57.4,74.6 56.2,74 55,75 					"/>
					<polygon fill="#37738D" points="57.9,76.6 59.1,75.5 57.9,74.9 56.7,75.9 					"/>
					<polygon fill="#37738D" points="59.5,77.5 60.7,76.4 59.5,75.8 58.3,76.8 					"/>
					<polygon fill="#37738D" points="61.2,78.4 62.4,77.4 61.2,76.7 60,77.8 					"/>
					<polygon fill="#37738D" points="62.9,79.3 64.1,78.3 62.8,77.6 61.6,78.7 					"/>
					<polygon fill="#37738D" points="64.5,80.2 65.7,79.2 64.5,78.5 63.3,79.6 					"/>
					<polygon fill="#37738D" points="66.2,81.2 67.4,80.1 66.2,79.4 65,80.5 					"/>
				</g>
				<g>
					<polygon fill="#37738D" points="52.9,76.2 54.1,75.1 52.9,74.5 51.7,75.5 					"/>
					<polygon fill="#37738D" points="54.6,77.1 55.8,76 54.5,75.4 53.3,76.4 					"/>
					<polygon fill="#37738D" points="56.2,78 57.4,77 56.2,76.3 55,77.4 					"/>
					<polygon fill="#37738D" points="57.9,78.9 59.1,77.9 57.9,77.2 56.7,78.3 					"/>
					<polygon fill="#37738D" points="59.5,79.8 60.7,78.8 59.5,78.1 58.3,79.2 					"/>
					<polygon fill="#37738D" points="61.2,80.7 62.4,79.7 61.2,79 60,80.1 					"/>
					<polygon fill="#37738D" points="62.9,81.7 64.1,80.6 62.8,79.9 61.6,81 					"/>
					<polygon fill="#37738D" points="64.5,82.6 65.7,81.5 64.5,80.9 63.3,81.9 					"/>
				</g>
				<g>
					<polygon fill="#37738D" points="51.2,77.6 52.4,76.5 51.2,75.9 50,76.9 					"/>
					<polygon fill="#37738D" points="52.9,78.5 54.1,77.5 52.9,76.8 51.7,77.9 					"/>
					<polygon fill="#37738D" points="54.6,79.4 55.8,78.4 54.5,77.7 53.3,78.8 					"/>
					<polygon fill="#37738D" points="56.2,80.3 57.4,79.3 56.2,78.6 55,79.7 					"/>
					<polygon fill="#37738D" points="57.9,81.3 59.1,80.2 57.9,79.5 56.7,80.6 					"/>
					<polygon fill="#37738D" points="59.5,82.2 60.7,81.1 59.5,80.4 58.3,81.5 					"/>
					<polygon fill="#37738D" points="61.2,83.1 62.4,82 61.2,81.4 60,82.4 					"/>
					<polygon fill="#37738D" points="62.9,84 64.1,82.9 62.9,82.3 61.7,83.3 					"/>
				</g>
			</g>
		</g>
		<g>
			
				<linearGradient id="SVGID_00000055707319588725233670000014546196421426180751_" gradientUnits="userSpaceOnUse" x1="93.9306" y1="84.5998" x2="78.364" y2="84.5998">
				<stop  offset="0" style="stop-color:#E8E7E7"/>
				<stop  offset="0.3238" style="stop-color:#FFFFFF"/>
				<stop  offset="0.7098" style="stop-color:#C5C4C4"/>
				<stop  offset="1" style="stop-color:#908D8D"/>
			</linearGradient>
			<path fill="url(#SVGID_00000055707319588725233670000014546196421426180751_)" d="M94.2,68.9l0,27.7c0,0,0,0.1,0,0.1
				c0,0,0,0.1,0,0.1c0,0,0,0.1,0,0.1v0c0,0,0,0,0,0.1c0,0,0,0.1,0,0.1c0,0,0,0.1,0,0.1c0,0,0,0.1,0,0.1c0,0,0,0,0,0s0,0,0,0
				c0,0,0,0.1,0,0.1c0,0,0,0.1,0,0.1c0,0,0,0.1-0.1,0.1c0,0,0,0,0,0c0,0,0,0,0,0c0,0,0,0.1-0.1,0.1c0,0,0,0,0,0.1
				c0,0-0.1,0.1-0.1,0.1c0,0,0,0,0,0l0,0c-0.1,0.1-0.1,0.1-0.2,0.2c0,0,0,0,0,0.1c-0.1,0.1-0.1,0.1-0.2,0.2c0,0,0,0,0,0c0,0,0,0,0,0
				c0,0-0.1,0.1-0.1,0.1c0,0-0.1,0.1-0.1,0.1c0,0-0.1,0.1-0.1,0.1c0,0-0.1,0.1-0.1,0.1c0,0-0.1,0.1-0.1,0.1c0,0-0.1,0-0.1,0.1
				c0,0-0.1,0.1-0.1,0.1c0,0,0,0-0.1,0c0,0-0.1,0-0.1,0.1c0,0,0,0-0.1,0c-0.1,0.1-0.3,0.2-0.4,0.2c0,0-0.1,0-0.1,0.1
				c-0.2,0.1-0.3,0.1-0.5,0.2c0,0,0,0-0.1,0c-0.1,0.1-0.3,0.1-0.4,0.2c0,0,0,0-0.1,0c-0.1,0-0.2,0.1-0.4,0.1c-0.1,0-0.2,0.1-0.3,0.1
				c-0.1,0-0.3,0.1-0.4,0.1c-0.1,0-0.2,0-0.2,0c0,0,0,0,0,0c0,0,0,0,0,0c0,0-0.1,0-0.1,0c-0.2,0-0.3,0.1-0.5,0.1c0,0-0.1,0-0.1,0
				c0,0-0.1,0-0.1,0c-0.1,0-0.1,0-0.2,0c-0.2,0-0.3,0-0.5,0c0,0-0.1,0-0.1,0c-0.1,0-0.1,0-0.2,0c-0.1,0-0.3,0-0.4,0h-0.1
				c-0.1,0-0.1,0-0.2,0c-0.1,0-0.2,0-0.4,0c-0.1,0-0.1,0-0.2,0c-0.1,0-0.1,0-0.2,0c-0.1,0-0.2,0-0.3,0l-0.2,0c-0.1,0-0.1,0-0.2,0
				c-0.1,0-0.3,0-0.4-0.1c-0.1,0-0.1,0-0.2,0c0,0-0.1,0-0.1,0c-0.1,0-0.3-0.1-0.4-0.1c-0.1,0-0.1,0-0.2,0c0,0-0.1,0-0.1,0
				c-0.1,0-0.1,0-0.2,0c-0.1,0-0.3-0.1-0.4-0.2c0,0-0.1,0-0.1,0c0,0,0,0-0.1,0c-0.1,0-0.2-0.1-0.3-0.1c-0.1,0-0.1-0.1-0.2-0.1
				c-0.2-0.1-0.3-0.2-0.5-0.3c-1.4-0.8-2.1-1.9-2.1-2.9l0-27.7c0,1.1,0.7,2.1,2.1,2.9c0.2,0.1,0.3,0.2,0.5,0.3c0.1,0,0.1,0,0.2,0.1
				c0.1,0.1,0.2,0.1,0.4,0.2c0,0,0.1,0,0.1,0c0.1,0,0.3,0.1,0.4,0.1c0,0,0.1,0,0.2,0c0.1,0,0.2,0,0.3,0.1c0.1,0,0.3,0.1,0.4,0.1
				c0.1,0,0.2,0,0.3,0.1c0.1,0,0.3,0,0.4,0.1c0.1,0,0.2,0,0.3,0c0.1,0,0.2,0,0.3,0c0.1,0,0.2,0,0.3,0c0.1,0,0.2,0,0.4,0
				c0.1,0,0.2,0,0.3,0h0.4c0.1,0,0.2,0,0.3,0c0.2,0,0.3,0,0.5,0c0.1,0,0.2,0,0.3,0l0.1,0c0.2,0,0.3,0,0.5-0.1c0,0,0.1,0,0.1,0
				c0,0,0,0,0,0c0.1,0,0.2,0,0.3,0c0.1,0,0.3-0.1,0.4-0.1c0.1,0,0.2-0.1,0.3-0.1c0.1,0,0.2-0.1,0.4-0.1c0.2-0.1,0.3-0.1,0.5-0.2
				c0,0,0,0,0.1,0c0.2-0.1,0.3-0.1,0.5-0.2c0,0,0.1,0,0.1-0.1c0.1-0.1,0.3-0.1,0.4-0.2c0,0,0,0,0.1,0c0.1,0,0.1-0.1,0.2-0.1
				c0,0,0.1-0.1,0.1-0.1c0,0,0.1-0.1,0.1-0.1c0,0,0.1-0.1,0.1-0.1c0,0,0.1,0,0.1-0.1c0,0,0.1-0.1,0.1-0.1c0,0,0.1-0.1,0.1-0.1
				c0,0,0.1-0.1,0.1-0.1c0,0,0.1,0,0.1-0.1c0.1-0.1,0.1-0.1,0.2-0.2c0,0,0,0,0-0.1c0.1-0.1,0.1-0.1,0.2-0.2c0,0,0,0,0-0.1
				c0,0,0.1-0.1,0.1-0.1c0,0,0,0,0-0.1c0,0,0.1-0.1,0.1-0.1c0,0,0-0.1,0-0.1c0,0,0-0.1,0.1-0.1c0,0,0-0.1,0-0.1c0,0,0-0.1,0-0.1
				c0,0,0-0.1,0-0.1c0,0,0-0.1,0-0.1c0,0,0-0.1,0-0.1c0,0,0-0.1,0-0.1c0,0,0-0.1,0-0.1c0,0,0-0.1,0-0.1c0,0,0-0.1,0-0.1
				C94.2,69,94.2,68.9,94.2,68.9z"/>
			<g>
				<image width="15" height="9" xlink:href="4DF4B51028700909.png"  transform="matrix(1 0 0 1 80 64)">
				</image>
			</g>
			<g>
				
					<linearGradient id="SVGID_00000154400169412168896780000011158475364720034994_" gradientUnits="userSpaceOnUse" x1="81.2787" y1="68.7344" x2="93.1595" y2="68.7344">
					<stop  offset="0" style="stop-color:#B4B4B5"/>
					<stop  offset="0.9948" style="stop-color:#6D6D6D"/>
				</linearGradient>
				<path fill="url(#SVGID_00000154400169412168896780000011158475364720034994_)" d="M91.4,66.3c2.3,1.3,2.3,3.5,0,4.9
					c-2.3,1.3-6.1,1.3-8.4,0c-2.3-1.3-2.3-3.5,0-4.9C85.3,65,89.1,65,91.4,66.3z"/>
			</g>
			
				<linearGradient id="SVGID_00000151544542716254372930000008011793846384707982_" gradientUnits="userSpaceOnUse" x1="94.8306" y1="75.1062" x2="79.7828" y2="75.1062">
				<stop  offset="0.2209" style="stop-color:#00A599"/>
				<stop  offset="0.9341" style="stop-color:#BFD330"/>
			</linearGradient>
			<path fill="url(#SVGID_00000151544542716254372930000008011793846384707982_)" d="M94.2,72.8C94.2,72.9,94.2,72.9,94.2,72.8
				c0,0.1,0,0.2,0,0.2c0,0,0,0.1,0,0.1c0,0,0,0.1,0,0.1c0,0,0,0.1,0,0.1c0,0,0,0.1,0,0.1c0,0,0,0.1,0,0.1c0,0,0,0.1,0,0.1
				c0,0,0,0.1,0,0.1c0,0,0,0.1-0.1,0.1c0,0,0,0.1,0,0.1c0,0,0,0.1-0.1,0.1c0,0,0,0.1,0,0.1c0,0-0.1,0.1-0.1,0.1c0,0,0,0,0,0.1
				c-0.1,0.1-0.1,0.1-0.2,0.2c0,0,0,0,0,0.1c-0.1,0.1-0.1,0.1-0.2,0.2c0,0,0,0-0.1,0.1c0,0-0.1,0.1-0.1,0.1c0,0-0.1,0.1-0.1,0.1
				c0,0-0.1,0.1-0.1,0.1c0,0-0.1,0.1-0.1,0.1c0,0-0.1,0.1-0.1,0.1c0,0-0.1,0-0.1,0.1c0,0-0.1,0.1-0.1,0.1c-0.1,0-0.1,0.1-0.2,0.1
				c0,0,0,0-0.1,0c-0.1,0.1-0.3,0.1-0.4,0.2c0,0-0.1,0-0.1,0.1c-0.2,0.1-0.3,0.1-0.5,0.2c0,0,0,0-0.1,0c-0.2,0.1-0.3,0.1-0.5,0.2
				c-0.1,0-0.2,0.1-0.4,0.1c-0.1,0-0.2,0-0.3,0.1c-0.1,0-0.3,0.1-0.4,0.1c-0.1,0-0.2,0-0.3,0c0,0,0,0,0,0c0,0-0.1,0-0.1,0
				c-0.2,0-0.3,0-0.5,0.1l-0.1,0c-0.1,0-0.2,0-0.3,0c-0.2,0-0.3,0-0.5,0c-0.1,0-0.2,0-0.3,0h-0.4c-0.1,0-0.2,0-0.3,0
				c-0.1,0-0.2,0-0.4,0c-0.1,0-0.2,0-0.3,0c-0.1,0-0.2,0-0.3,0c-0.1,0-0.2,0-0.3,0c-0.1,0-0.3,0-0.4-0.1c-0.1,0-0.2,0-0.3-0.1
				c-0.2,0-0.3-0.1-0.4-0.1c-0.1,0-0.2,0-0.3-0.1c-0.1,0-0.1,0-0.2,0c-0.1,0-0.3-0.1-0.4-0.1c0,0-0.1,0-0.1,0
				c-0.1,0-0.2-0.1-0.4-0.2c-0.1,0-0.1,0-0.2-0.1c-0.2-0.1-0.3-0.2-0.5-0.3c-1.4-0.8-2.1-1.8-2.1-2.9v1c0,1.1,0.7,2.1,2.1,2.9
				c0.2,0.1,0.3,0.2,0.5,0.3c0.1,0,0.1,0,0.2,0.1c0.1,0.1,0.2,0.1,0.4,0.2c0,0,0.1,0,0.1,0c0.1,0,0.3,0.1,0.4,0.1c0,0,0.1,0,0.2,0
				c0.1,0,0.2,0,0.3,0.1c0.1,0,0.3,0.1,0.4,0.1c0.1,0,0.2,0,0.3,0.1c0.1,0,0.3,0,0.4,0.1c0.1,0,0.2,0,0.3,0c0.1,0,0.2,0,0.3,0
				c0.1,0,0.2,0,0.3,0c0.1,0,0.2,0,0.4,0c0.1,0,0.2,0,0.3,0h0.4c0.1,0,0.2,0,0.3,0c0.2,0,0.3,0,0.5,0c0.1,0,0.2,0,0.3,0l0.1,0
				c0.2,0,0.3,0,0.5-0.1c0,0,0.1,0,0.1,0c0,0,0,0,0,0c0.1,0,0.2,0,0.3,0c0.1,0,0.3-0.1,0.4-0.1c0.1,0,0.2-0.1,0.3-0.1
				c0.1,0,0.2-0.1,0.4-0.1c0.2-0.1,0.3-0.1,0.5-0.2c0,0,0,0,0.1,0c0.2-0.1,0.3-0.1,0.5-0.2c0,0,0.1,0,0.1-0.1
				c0.1-0.1,0.3-0.1,0.4-0.2c0,0,0,0,0.1,0c0.1,0,0.1-0.1,0.2-0.1c0,0,0.1-0.1,0.1-0.1c0,0,0.1-0.1,0.1-0.1c0,0,0.1-0.1,0.1-0.1
				c0,0,0.1,0,0.1-0.1c0,0,0.1-0.1,0.1-0.1c0,0,0.1-0.1,0.1-0.1c0,0,0.1-0.1,0.1-0.1c0,0,0.1,0,0.1-0.1c0.1-0.1,0.1-0.1,0.2-0.2
				c0,0,0,0,0-0.1c0.1-0.1,0.1-0.1,0.2-0.2c0,0,0,0,0-0.1c0,0,0.1-0.1,0.1-0.1c0,0,0,0,0-0.1c0,0,0.1-0.1,0.1-0.1c0,0,0-0.1,0-0.1
				c0,0,0-0.1,0.1-0.1c0,0,0-0.1,0-0.1c0,0,0-0.1,0-0.1c0,0,0-0.1,0-0.1c0,0,0-0.1,0-0.1c0,0,0-0.1,0-0.1c0,0,0-0.1,0-0.1
				c0,0,0-0.1,0-0.1c0,0,0-0.1,0-0.1c0,0,0-0.1,0-0.1c0,0,0-0.1,0-0.1v-1C94.2,72.8,94.2,72.8,94.2,72.8z"/>
			
				<linearGradient id="SVGID_00000003816921045545620340000013938251384385792161_" gradientUnits="userSpaceOnUse" x1="94.8306" y1="80.9074" x2="79.7828" y2="80.9074">
				<stop  offset="0.2209" style="stop-color:#00A599"/>
				<stop  offset="0.9341" style="stop-color:#BFD330"/>
			</linearGradient>
			<path fill="url(#SVGID_00000003816921045545620340000013938251384385792161_)" d="M94.2,78.6C94.2,78.7,94.2,78.7,94.2,78.6
				c0,0.1,0,0.2,0,0.2c0,0,0,0.1,0,0.1c0,0,0,0.1,0,0.1c0,0,0,0.1,0,0.1c0,0,0,0.1,0,0.1c0,0,0,0.1,0,0.1c0,0,0,0.1,0,0.1
				c0,0,0,0.1,0,0.1c0,0,0,0.1-0.1,0.1c0,0,0,0.1,0,0.1c0,0,0,0.1-0.1,0.1c0,0,0,0.1,0,0.1c0,0-0.1,0.1-0.1,0.1c0,0,0,0,0,0.1
				c-0.1,0.1-0.1,0.1-0.2,0.2c0,0,0,0,0,0.1c-0.1,0.1-0.1,0.1-0.2,0.2c0,0,0,0-0.1,0.1c0,0-0.1,0.1-0.1,0.1c0,0-0.1,0.1-0.1,0.1
				c0,0-0.1,0.1-0.1,0.1c0,0-0.1,0.1-0.1,0.1c0,0-0.1,0.1-0.1,0.1c0,0-0.1,0-0.1,0.1c0,0-0.1,0.1-0.1,0.1c-0.1,0-0.1,0.1-0.2,0.1
				c0,0,0,0-0.1,0c-0.1,0.1-0.3,0.1-0.4,0.2c0,0-0.1,0-0.1,0.1c-0.2,0.1-0.3,0.1-0.5,0.2c0,0,0,0-0.1,0c-0.2,0.1-0.3,0.1-0.5,0.2
				c-0.1,0-0.2,0.1-0.4,0.1c-0.1,0-0.2,0-0.3,0.1c-0.1,0-0.3,0.1-0.4,0.1c-0.1,0-0.2,0-0.3,0c0,0,0,0,0,0c0,0-0.1,0-0.1,0
				c-0.2,0-0.3,0-0.5,0.1l-0.1,0c-0.1,0-0.2,0-0.3,0c-0.2,0-0.3,0-0.5,0c-0.1,0-0.2,0-0.3,0h-0.4c-0.1,0-0.2,0-0.3,0
				c-0.1,0-0.2,0-0.4,0c-0.1,0-0.2,0-0.3,0c-0.1,0-0.2,0-0.3,0c-0.1,0-0.2,0-0.3,0c-0.1,0-0.3,0-0.4-0.1c-0.1,0-0.2,0-0.3-0.1
				c-0.2,0-0.3-0.1-0.4-0.1c-0.1,0-0.2,0-0.3-0.1c-0.1,0-0.1,0-0.2,0c-0.1,0-0.3-0.1-0.4-0.1c0,0-0.1,0-0.1,0
				c-0.1,0-0.2-0.1-0.4-0.2c-0.1,0-0.1,0-0.2-0.1c-0.2-0.1-0.3-0.2-0.5-0.3c-1.4-0.8-2.1-1.8-2.1-2.9v1c0,1.1,0.7,2.1,2.1,2.9
				c0.2,0.1,0.3,0.2,0.5,0.3c0.1,0,0.1,0,0.2,0.1c0.1,0.1,0.2,0.1,0.4,0.2c0,0,0.1,0,0.1,0c0.1,0,0.3,0.1,0.4,0.1c0,0,0.1,0,0.2,0
				c0.1,0,0.2,0,0.3,0.1c0.1,0,0.3,0.1,0.4,0.1c0.1,0,0.2,0,0.3,0.1c0.1,0,0.3,0,0.4,0.1c0.1,0,0.2,0,0.3,0c0.1,0,0.2,0,0.3,0
				c0.1,0,0.2,0,0.3,0c0.1,0,0.2,0,0.4,0c0.1,0,0.2,0,0.3,0h0.4c0.1,0,0.2,0,0.3,0c0.2,0,0.3,0,0.5,0c0.1,0,0.2,0,0.3,0l0.1,0
				c0.2,0,0.3,0,0.5-0.1c0,0,0.1,0,0.1,0c0,0,0,0,0,0c0.1,0,0.2,0,0.3,0c0.1,0,0.3-0.1,0.4-0.1c0.1,0,0.2-0.1,0.3-0.1
				c0.1,0,0.2-0.1,0.4-0.1c0.2-0.1,0.3-0.1,0.5-0.2c0,0,0,0,0.1,0c0.2-0.1,0.3-0.1,0.5-0.2c0,0,0.1,0,0.1-0.1
				c0.1-0.1,0.3-0.1,0.4-0.2c0,0,0,0,0.1,0c0.1,0,0.1-0.1,0.2-0.1c0,0,0.1-0.1,0.1-0.1c0,0,0.1-0.1,0.1-0.1c0,0,0.1-0.1,0.1-0.1
				c0,0,0.1,0,0.1-0.1c0,0,0.1-0.1,0.1-0.1c0,0,0.1-0.1,0.1-0.1c0,0,0.1-0.1,0.1-0.1c0,0,0.1,0,0.1-0.1c0.1-0.1,0.1-0.1,0.2-0.2
				c0,0,0,0,0-0.1c0.1-0.1,0.1-0.1,0.2-0.2c0,0,0,0,0-0.1c0,0,0.1-0.1,0.1-0.1c0,0,0,0,0-0.1c0,0,0.1-0.1,0.1-0.1c0,0,0-0.1,0-0.1
				c0,0,0-0.1,0.1-0.1c0,0,0-0.1,0-0.1c0,0,0-0.1,0-0.1c0,0,0-0.1,0-0.1c0,0,0-0.1,0-0.1c0,0,0-0.1,0-0.1c0,0,0-0.1,0-0.1
				c0,0,0-0.1,0-0.1c0,0,0-0.1,0-0.1c0,0,0-0.1,0-0.1c0,0,0-0.1,0-0.1v-1C94.2,78.6,94.2,78.6,94.2,78.6z"/>
			
				<linearGradient id="SVGID_00000129892945493498621640000016743128550887673484_" gradientUnits="userSpaceOnUse" x1="94.8306" y1="86.7086" x2="79.7828" y2="86.7086">
				<stop  offset="0.2209" style="stop-color:#00A599"/>
				<stop  offset="0.9341" style="stop-color:#BFD330"/>
			</linearGradient>
			<path fill="url(#SVGID_00000129892945493498621640000016743128550887673484_)" d="M94.2,84.4C94.2,84.5,94.2,84.5,94.2,84.4
				c0,0.1,0,0.2,0,0.2c0,0,0,0.1,0,0.1c0,0,0,0.1,0,0.1c0,0,0,0.1,0,0.1c0,0,0,0.1,0,0.1c0,0,0,0.1,0,0.1c0,0,0,0.1,0,0.1
				c0,0,0,0.1,0,0.1c0,0,0,0.1-0.1,0.1c0,0,0,0.1,0,0.1c0,0,0,0.1-0.1,0.1c0,0,0,0.1,0,0.1c0,0-0.1,0.1-0.1,0.1c0,0,0,0,0,0.1
				c-0.1,0.1-0.1,0.1-0.2,0.2c0,0,0,0,0,0.1c-0.1,0.1-0.1,0.1-0.2,0.2c0,0,0,0-0.1,0.1c0,0-0.1,0.1-0.1,0.1c0,0-0.1,0.1-0.1,0.1
				c0,0-0.1,0.1-0.1,0.1c0,0-0.1,0.1-0.1,0.1c0,0-0.1,0.1-0.1,0.1c0,0-0.1,0-0.1,0.1c0,0-0.1,0.1-0.1,0.1c-0.1,0-0.1,0.1-0.2,0.1
				c0,0,0,0-0.1,0c-0.1,0.1-0.3,0.1-0.4,0.2c0,0-0.1,0-0.1,0.1c-0.2,0.1-0.3,0.1-0.5,0.2c0,0,0,0-0.1,0c-0.2,0.1-0.3,0.1-0.5,0.2
				c-0.1,0-0.2,0.1-0.4,0.1c-0.1,0-0.2,0-0.3,0.1c-0.1,0-0.3,0.1-0.4,0.1c-0.1,0-0.2,0-0.3,0c0,0,0,0,0,0c0,0-0.1,0-0.1,0
				c-0.2,0-0.3,0-0.5,0.1l-0.1,0c-0.1,0-0.2,0-0.3,0c-0.2,0-0.3,0-0.5,0c-0.1,0-0.2,0-0.3,0h-0.4c-0.1,0-0.2,0-0.3,0
				c-0.1,0-0.2,0-0.4,0c-0.1,0-0.2,0-0.3,0c-0.1,0-0.2,0-0.3,0c-0.1,0-0.2,0-0.3,0c-0.1,0-0.3,0-0.4-0.1c-0.1,0-0.2,0-0.3-0.1
				c-0.2,0-0.3-0.1-0.4-0.1c-0.1,0-0.2,0-0.3-0.1c-0.1,0-0.1,0-0.2,0c-0.1,0-0.3-0.1-0.4-0.1c0,0-0.1,0-0.1,0
				c-0.1,0-0.2-0.1-0.4-0.2c-0.1,0-0.1,0-0.2-0.1c-0.2-0.1-0.3-0.2-0.5-0.3c-1.4-0.8-2.1-1.8-2.1-2.9v1c0,1.1,0.7,2.1,2.1,2.9
				c0.2,0.1,0.3,0.2,0.5,0.3c0.1,0,0.1,0,0.2,0.1c0.1,0.1,0.2,0.1,0.4,0.2c0,0,0.1,0,0.1,0c0.1,0,0.3,0.1,0.4,0.1c0,0,0.1,0,0.2,0
				c0.1,0,0.2,0,0.3,0.1c0.1,0,0.3,0.1,0.4,0.1c0.1,0,0.2,0,0.3,0.1c0.1,0,0.3,0,0.4,0.1c0.1,0,0.2,0,0.3,0c0.1,0,0.2,0,0.3,0
				c0.1,0,0.2,0,0.3,0c0.1,0,0.2,0,0.4,0c0.1,0,0.2,0,0.3,0h0.4c0.1,0,0.2,0,0.3,0c0.2,0,0.3,0,0.5,0c0.1,0,0.2,0,0.3,0l0.1,0
				c0.2,0,0.3,0,0.5-0.1c0,0,0.1,0,0.1,0c0,0,0,0,0,0c0.1,0,0.2,0,0.3,0c0.1,0,0.3-0.1,0.4-0.1c0.1,0,0.2-0.1,0.3-0.1
				c0.1,0,0.2-0.1,0.4-0.1c0.2-0.1,0.3-0.1,0.5-0.2c0,0,0,0,0.1,0c0.2-0.1,0.3-0.1,0.5-0.2c0,0,0.1,0,0.1-0.1
				c0.1-0.1,0.3-0.1,0.4-0.2c0,0,0,0,0.1,0c0.1,0,0.1-0.1,0.2-0.1c0,0,0.1-0.1,0.1-0.1c0,0,0.1-0.1,0.1-0.1c0,0,0.1-0.1,0.1-0.1
				c0,0,0.1,0,0.1-0.1c0,0,0.1-0.1,0.1-0.1c0,0,0.1-0.1,0.1-0.1c0,0,0.1-0.1,0.1-0.1c0,0,0.1,0,0.1-0.1c0.1-0.1,0.1-0.1,0.2-0.2
				c0,0,0,0,0-0.1c0.1-0.1,0.1-0.1,0.2-0.2c0,0,0,0,0-0.1c0,0,0.1-0.1,0.1-0.1c0,0,0,0,0-0.1c0,0,0.1-0.1,0.1-0.1c0,0,0-0.1,0-0.1
				c0,0,0-0.1,0.1-0.1c0,0,0-0.1,0-0.1c0,0,0-0.1,0-0.1c0,0,0-0.1,0-0.1c0,0,0-0.1,0-0.1c0,0,0-0.1,0-0.1c0,0,0-0.1,0-0.1
				c0,0,0-0.1,0-0.1c0,0,0-0.1,0-0.1c0,0,0-0.1,0-0.1c0,0,0-0.1,0-0.1v-1C94.2,84.4,94.2,84.4,94.2,84.4z"/>
			
				<linearGradient id="SVGID_00000155842221170383734430000015980751606567906210_" gradientUnits="userSpaceOnUse" x1="94.8306" y1="92.5098" x2="79.7828" y2="92.5098">
				<stop  offset="0.2209" style="stop-color:#00A599"/>
				<stop  offset="0.9341" style="stop-color:#BFD330"/>
			</linearGradient>
			<path fill="url(#SVGID_00000155842221170383734430000015980751606567906210_)" d="M94.2,90.2C94.2,90.3,94.2,90.3,94.2,90.2
				c0,0.1,0,0.2,0,0.2c0,0,0,0.1,0,0.1c0,0,0,0.1,0,0.1c0,0,0,0.1,0,0.1c0,0,0,0.1,0,0.1c0,0,0,0.1,0,0.1c0,0,0,0.1,0,0.1
				c0,0,0,0.1,0,0.1c0,0,0,0.1-0.1,0.1c0,0,0,0.1,0,0.1c0,0,0,0.1-0.1,0.1c0,0,0,0.1,0,0.1c0,0-0.1,0.1-0.1,0.1c0,0,0,0,0,0.1
				c-0.1,0.1-0.1,0.1-0.2,0.2c0,0,0,0,0,0.1c-0.1,0.1-0.1,0.1-0.2,0.2c0,0,0,0-0.1,0.1c0,0-0.1,0.1-0.1,0.1c0,0-0.1,0.1-0.1,0.1
				c0,0-0.1,0.1-0.1,0.1c0,0-0.1,0.1-0.1,0.1c0,0-0.1,0.1-0.1,0.1c0,0-0.1,0-0.1,0.1c0,0-0.1,0.1-0.1,0.1c-0.1,0-0.1,0.1-0.2,0.1
				c0,0,0,0-0.1,0c-0.1,0.1-0.3,0.1-0.4,0.2c0,0-0.1,0-0.1,0.1c-0.2,0.1-0.3,0.1-0.5,0.2c0,0,0,0-0.1,0c-0.2,0.1-0.3,0.1-0.5,0.2
				c-0.1,0-0.2,0.1-0.4,0.1c-0.1,0-0.2,0-0.3,0.1c-0.1,0-0.3,0.1-0.4,0.1c-0.1,0-0.2,0-0.3,0c0,0,0,0,0,0c0,0-0.1,0-0.1,0
				c-0.2,0-0.3,0-0.5,0.1l-0.1,0c-0.1,0-0.2,0-0.3,0c-0.2,0-0.3,0-0.5,0c-0.1,0-0.2,0-0.3,0h-0.4c-0.1,0-0.2,0-0.3,0
				c-0.1,0-0.2,0-0.4,0c-0.1,0-0.2,0-0.3,0c-0.1,0-0.2,0-0.3,0c-0.1,0-0.2,0-0.3,0c-0.1,0-0.3,0-0.4-0.1c-0.1,0-0.2,0-0.3-0.1
				c-0.2,0-0.3-0.1-0.4-0.1c-0.1,0-0.2,0-0.3-0.1c-0.1,0-0.1,0-0.2,0c-0.1,0-0.3-0.1-0.4-0.1c0,0-0.1,0-0.1,0
				c-0.1,0-0.2-0.1-0.4-0.2c-0.1,0-0.1,0-0.2-0.1c-0.2-0.1-0.3-0.2-0.5-0.3c-1.4-0.8-2.1-1.8-2.1-2.9v1c0,1.1,0.7,2.1,2.1,2.9
				c0.2,0.1,0.3,0.2,0.5,0.3c0.1,0,0.1,0,0.2,0.1c0.1,0.1,0.2,0.1,0.4,0.2c0,0,0.1,0,0.1,0c0.1,0,0.3,0.1,0.4,0.1c0,0,0.1,0,0.2,0
				c0.1,0,0.2,0,0.3,0.1c0.1,0,0.3,0.1,0.4,0.1c0.1,0,0.2,0,0.3,0.1c0.1,0,0.3,0,0.4,0.1c0.1,0,0.2,0,0.3,0c0.1,0,0.2,0,0.3,0
				c0.1,0,0.2,0,0.3,0c0.1,0,0.2,0,0.4,0c0.1,0,0.2,0,0.3,0h0.4c0.1,0,0.2,0,0.3,0c0.2,0,0.3,0,0.5,0c0.1,0,0.2,0,0.3,0l0.1,0
				c0.2,0,0.3,0,0.5-0.1c0,0,0.1,0,0.1,0c0,0,0,0,0,0c0.1,0,0.2,0,0.3,0c0.1,0,0.3-0.1,0.4-0.1c0.1,0,0.2-0.1,0.3-0.1
				c0.1,0,0.2-0.1,0.4-0.1c0.2-0.1,0.3-0.1,0.5-0.2c0,0,0,0,0.1,0c0.2-0.1,0.3-0.1,0.5-0.2c0,0,0.1,0,0.1-0.1
				c0.1-0.1,0.3-0.1,0.4-0.2c0,0,0,0,0.1,0c0.1,0,0.1-0.1,0.2-0.1c0,0,0.1-0.1,0.1-0.1c0,0,0.1-0.1,0.1-0.1c0,0,0.1-0.1,0.1-0.1
				c0,0,0.1,0,0.1-0.1c0,0,0.1-0.1,0.1-0.1c0,0,0.1-0.1,0.1-0.1c0,0,0.1-0.1,0.1-0.1c0,0,0.1,0,0.1-0.1c0.1-0.1,0.1-0.1,0.2-0.2
				c0,0,0,0,0-0.1c0.1-0.1,0.1-0.1,0.2-0.2c0,0,0,0,0-0.1c0,0,0.1-0.1,0.1-0.1c0,0,0,0,0-0.1c0,0,0.1-0.1,0.1-0.1c0,0,0-0.1,0-0.1
				c0,0,0-0.1,0.1-0.1c0,0,0-0.1,0-0.1c0,0,0-0.1,0-0.1c0,0,0-0.1,0-0.1c0,0,0-0.1,0-0.1c0,0,0-0.1,0-0.1c0,0,0-0.1,0-0.1
				c0,0,0-0.1,0-0.1c0,0,0-0.1,0-0.1c0,0,0-0.1,0-0.1c0,0,0-0.1,0-0.1v-1C94.2,90.2,94.2,90.2,94.2,90.2z"/>
		</g>
		<g>
			<polygon fill="#047096" points="65.3,115.3 74.3,120.6 74.3,112.7 65.3,107.4 			"/>
			<polygon fill="#00A99D" points="65.3,115.3 66.7,114.6 66.7,108.2 65.3,107.4 			"/>
			
				<linearGradient id="SVGID_00000102519694764817535190000007688850775106760863_" gradientUnits="userSpaceOnUse" x1="65.2881" y1="117.6248" x2="74.3243" y2="117.6248">
				<stop  offset="0" style="stop-color:#76C6CB"/>
				<stop  offset="1" style="stop-color:#10B3BC"/>
			</linearGradient>
			<polygon fill="url(#SVGID_00000102519694764817535190000007688850775106760863_)" points="66.7,114.6 74.3,119 74.3,120.6 
				65.3,115.3 			"/>
			<line fill="none" stroke="#00A99D" stroke-width="1.4995" stroke-miterlimit="10" x1="66.7" y1="109.4" x2="74.3" y2="113.9"/>
			<line fill="none" stroke="#00A99D" stroke-width="1.4995" stroke-miterlimit="10" x1="66.7" y1="110.5" x2="74.3" y2="115"/>
			<line fill="none" stroke="#00A99D" stroke-width="1.4995" stroke-miterlimit="10" x1="66.7" y1="111.6" x2="74.3" y2="116.1"/>
			<line fill="none" stroke="#00A99D" stroke-width="1.4995" stroke-miterlimit="10" x1="66.7" y1="112.7" x2="74.3" y2="117.2"/>
			<line fill="none" stroke="#00A99D" stroke-width="1.4995" stroke-miterlimit="10" x1="66.7" y1="113.8" x2="74.3" y2="118.2"/>
		</g>
		<g>
			<polygon fill="#047096" points="46.3,108.4 55.4,113.5 55.4,105.5 46.3,100.5 			"/>
			<polygon fill="#00A99D" points="46.3,108.4 47.7,107.7 47.7,101.3 46.3,100.5 			"/>
			
				<linearGradient id="SVGID_00000168797888370134360340000002227748682126929058_" gradientUnits="userSpaceOnUse" x1="46.3202" y1="110.5639" x2="55.3564" y2="110.5639">
				<stop  offset="0" style="stop-color:#76C6CB"/>
				<stop  offset="1" style="stop-color:#10B3BC"/>
			</linearGradient>
			<polygon fill="url(#SVGID_00000168797888370134360340000002227748682126929058_)" points="47.7,107.7 55.4,111.8 55.4,113.5 
				46.3,108.4 			"/>
			<line fill="none" stroke="#00A99D" stroke-width="1.4995" stroke-miterlimit="10" x1="47.7" y1="102.5" x2="55.4" y2="106.7"/>
			<line fill="none" stroke="#00A99D" stroke-width="1.4995" stroke-miterlimit="10" x1="47.7" y1="103.6" x2="55.4" y2="107.8"/>
			<line fill="none" stroke="#00A99D" stroke-width="1.4995" stroke-miterlimit="10" x1="47.7" y1="104.6" x2="55.4" y2="108.9"/>
			<line fill="none" stroke="#00A99D" stroke-width="1.4995" stroke-miterlimit="10" x1="47.7" y1="105.7" x2="55.4" y2="110"/>
			<line fill="none" stroke="#00A99D" stroke-width="1.4995" stroke-miterlimit="10" x1="47.7" y1="106.8" x2="55.4" y2="111.1"/>
		</g>
		<g>
			<polygon fill="#047096" points="44.8,89.1 49.3,91.8 49.3,87.8 44.8,85.2 			"/>
			<polygon fill="#3D5A77" points="44.8,89.1 45.5,88.8 45.5,85.6 44.8,85.2 			"/>
			<polygon fill="#B5C2CD" points="45.5,88.8 49.3,91 49.3,91.8 44.8,89.1 			"/>
		</g>
		<g>
			<polygon fill="#047096" points="44.8,95.6 49.3,98.2 49.3,94.2 44.8,91.6 			"/>
			<polygon fill="#3D5A77" points="44.8,95.6 45.5,95.2 45.5,92 44.8,91.6 			"/>
			<polygon fill="#B5C2CD" points="45.5,95.2 49.3,97.4 49.3,98.2 44.8,95.6 			"/>
		</g>
		<g>
			<polygon fill="#047096" points="51.8,93 56.4,95.7 56.4,91.7 51.8,89 			"/>
			<polygon fill="#3D5A77" points="51.8,93 52.5,92.7 52.5,89.5 51.8,89 			"/>
			<polygon fill="#B5C2CD" points="52.5,92.7 56.4,94.9 56.4,95.7 51.8,93 			"/>
		</g>
		<g>
			<polygon fill="#047096" points="51.8,99.4 56.4,102.1 56.4,98.1 51.8,95.5 			"/>
			<polygon fill="#3D5A77" points="51.8,99.4 52.5,99.1 52.5,95.9 51.8,95.5 			"/>
			<polygon fill="#B5C2CD" points="52.5,99.1 56.4,101.3 56.4,102.1 51.8,99.4 			"/>
		</g>
		<g>
			
				<linearGradient id="SVGID_00000064334505793624681920000005342622985111636916_" gradientUnits="userSpaceOnUse" x1="99.2831" y1="109.7767" x2="104.8749" y2="109.7767">
				<stop  offset="0" style="stop-color:#38ABA6"/>
				<stop  offset="1" style="stop-color:#5F637A"/>
			</linearGradient>
			<polygon fill="url(#SVGID_00000064334505793624681920000005342622985111636916_)" points="104.9,114.3 104.9,102.1 99.3,105.3 
				99.3,117.4 			"/>
			<polygon fill="#00A89C" points="104.1,102.6 104.1,113.9 104.9,114.3 104.9,102.1 			"/>
			
				<linearGradient id="SVGID_00000115477815152040425770000005653982751089480322_" gradientUnits="userSpaceOnUse" x1="99.2831" y1="115.6461" x2="104.8749" y2="115.6461">
				<stop  offset="0" style="stop-color:#76C6CB"/>
				<stop  offset="1" style="stop-color:#10B3BC"/>
			</linearGradient>
			<polygon fill="url(#SVGID_00000115477815152040425770000005653982751089480322_)" points="104.1,113.9 99.3,116.5 99.3,117.4 
				104.9,114.3 			"/>
		</g>
		<g>
			
				<linearGradient id="SVGID_00000029014611066729627330000015994243741251047826_" gradientUnits="userSpaceOnUse" x1="76.3203" y1="116.2156" x2="81.9122" y2="116.2156">
				<stop  offset="0" style="stop-color:#38ABA6"/>
				<stop  offset="1" style="stop-color:#5F637A"/>
			</linearGradient>
			<polygon fill="url(#SVGID_00000029014611066729627330000015994243741251047826_)" points="76.3,120.7 76.3,108.6 81.9,111.7 
				81.9,123.8 			"/>
			<polygon fill="#00A99D" points="77.1,109 77.1,120.3 76.3,120.7 76.3,108.6 			"/>
			
				<linearGradient id="SVGID_00000130619205877773916520000010085150626628276367_" gradientUnits="userSpaceOnUse" x1="76.3203" y1="122.0849" x2="81.9122" y2="122.0849">
				<stop  offset="0" style="stop-color:#76C6CB"/>
				<stop  offset="1" style="stop-color:#10B3BC"/>
			</linearGradient>
			<polygon fill="url(#SVGID_00000130619205877773916520000010085150626628276367_)" points="77.1,120.3 81.9,122.9 81.9,123.8 
				76.3,120.7 			"/>
		</g>
	</g>
	<g>
		<g>
			<g>
				<image width="9" height="6" xlink:href="4DF4B5102870090F.png"  transform="matrix(1 0 0 1 126 118)">
				</image>
				<g>
					<image width="9" height="6" xlink:href="4DF4B5102870090A.png"  transform="matrix(1 0 0 1 126 115)">
					</image>
				</g>
			</g>
			<g>
				<image width="5" height="68" xlink:href="4DF4B5102870090B.png"  transform="matrix(1 0 0 1 128 51)">
				</image>
				<g>
					<image width="5" height="3" xlink:href="4DF4B51028700906.png"  transform="matrix(1 0 0 1 128 50)">
					</image>
				</g>
			</g>
			<g>
				<g>
					<polygon fill="#F2F2F2" points="145.7,71.8 146.6,71.3 116.1,53.4 115.2,54 					"/>
					<polygon fill="#DEDEDF" points="145.7,72.8 145.7,71.8 146.6,71.3 146.6,72.3 					"/>
					<polygon fill="#C9CACB" points="115.2,54 115.2,55 145.7,72.8 145.7,71.8 					"/>
				</g>
				<g>
					<g>
						<image width="5" height="4" xlink:href="4DF4B51028700907.png"  transform="matrix(1 0 0 1 142 69)">
						</image>
						<g>
							<image width="5" height="4" xlink:href="4DF4B51028700918.png"  transform="matrix(1 0 0 1 142 68)">
							</image>
						</g>
					</g>
					<g>
						<image width="5" height="3" xlink:href="4DF4B5102870091B.png"  transform="matrix(1 0 0 1 142 68)">
						</image>
						<g>
							<image width="5" height="3" xlink:href="445E2B55D8314E77.png"  transform="matrix(1 0 0 1 142 67)">
							</image>
						</g>
					</g>
					<g>
						<image width="2" height="2" xlink:href="445E2B55D8314E75.png"  transform="matrix(1 0 0 1 144 67)">
						</image>
						<g>
							<image width="2" height="2" xlink:href="445E2B55D8314E73.png"  transform="matrix(1 0 0 1 144 67)">
							</image>
						</g>
					</g>
				</g>
				<g>
					<g>
						<image width="5" height="3" xlink:href="445E2B55D8314E8D.png"  transform="matrix(1 0 0 1 134 65)">
						</image>
						<g>
							<image width="5" height="4" xlink:href="445E2B55D8314E8F.png"  transform="matrix(1 0 0 1 134 63)">
							</image>
						</g>
					</g>
					<g>
						<image width="5" height="4" xlink:href="445E2B55D8314E92.png"  transform="matrix(1 0 0 1 134 63)">
						</image>
						<g>
							<image width="5" height="3" xlink:href="445E2B55D8314E93.png"  transform="matrix(1 0 0 1 134 62)">
							</image>
						</g>
					</g>
					<g>
						<image width="3" height="1" xlink:href="445E2B55D8314E95.png"  transform="matrix(1 0 0 1 135 63)">
						</image>
						<g>
							<image width="3" height="2" xlink:href="445E2B55D8314E97.png"  transform="matrix(1 0 0 1 135 62)">
							</image>
						</g>
					</g>
				</g>
				<g>
					<g>
						<image width="5" height="3" xlink:href="445E2B55D8314E90.png"  transform="matrix(1 0 0 1 123 57)">
						</image>
						<g>
							<image width="5" height="4" xlink:href="445E2B55D8314EB6.png"  transform="matrix(1 0 0 1 123 55)">
							</image>
						</g>
					</g>
					<g>
						<image width="5" height="4" xlink:href="445E2B55D8314EB5.png"  transform="matrix(1 0 0 1 123 55)">
						</image>
						<g>
							<image width="5" height="4" xlink:href="445E2B55D8314EB2.png"  transform="matrix(1 0 0 1 123 54)">
							</image>
						</g>
					</g>
					<g>
						<image width="3" height="2" xlink:href="445E2B55D8314EBD.png"  transform="matrix(1 0 0 1 124 55)">
						</image>
						<g>
							<image width="3" height="2" xlink:href="445E2B55D8314EBE.png"  transform="matrix(1 0 0 1 124 54)">
							</image>
						</g>
					</g>
				</g>
				<g>
					<g>
						<image width="5" height="3" xlink:href="445E2B55D8314EBC.png"  transform="matrix(1 0 0 1 115 52)">
						</image>
						<g>
							<image width="5" height="3" xlink:href="445E2B55D8314EB3.png"  transform="matrix(1 0 0 1 115 51)">
							</image>
						</g>
					</g>
					<g>
						<image width="5" height="3" xlink:href="445E2B55D8314EB4.png"  transform="matrix(1 0 0 1 115 51)">
						</image>
						<g>
							<image width="5" height="4" xlink:href="445E2B55D8314EB7.png"  transform="matrix(1 0 0 1 115 49)">
							</image>
						</g>
					</g>
					<g>
						<image width="3" height="2" xlink:href="445E2B55D8314E8B.png"  transform="matrix(1 0 0 1 116 50)">
						</image>
						<g>
							<image width="3" height="1" xlink:href="445E2B55D8314ED9.png"  transform="matrix(1 0 0 1 116 50)">
							</image>
						</g>
					</g>
				</g>
			</g>
		</g>
	</g>
	<g>
		<image width="3" height="13" xlink:href="445E2B55D8314ED7.png"  transform="matrix(1 0 0 1 82 96)">
		</image>
		<g>
			<image width="3" height="3" xlink:href="445E2B55D8314EE9.png"  transform="matrix(1 0 0 1 82 95)">
			</image>
		</g>
	</g>
	<g>
		<g>
			<image width="4" height="2" xlink:href="445E2B55D8314EEB.png"  transform="matrix(1 0 0 1 127 117)">
			</image>
		</g>
	</g>
	<g>
		<image width="1" height="1" xlink:href="445E2B55D8314EE8.png"  transform="matrix(1 0 0 1 83 96)">
		</image>
		<image width="62" height="30" xlink:href="445E2B55D8314EEF.png"  transform="matrix(1 0 0 1 83 69)">
		</image>
		<image width="1" height="2" xlink:href="445E2B55D8314EEA.png"  transform="matrix(1 0 0 1 144 69)">
		</image>
	</g>
</g>
</svg>
