<?xml version="1.0" encoding="utf-8"?>
<!-- Generator: Adobe Illustrator 27.4.1, SVG Export Plug-In . SVG Version: 6.00 Build 0)  -->
<svg version="1.1" id="Layer_1" xmlns="http://www.w3.org/2000/svg" xmlns:xlink="http://www.w3.org/1999/xlink" x="0px" y="0px"
	 viewBox="0 0 21 20" style="enable-background:new 0 0 21 20;" xml:space="preserve">
<style type="text/css">
	.st0{fill:none;}
	.st1{fill:none;stroke:#FFFFFF;stroke-width:1.5;}
	.st2{enable-background:new    ;}
	.st3{fill:#FFFFFF;}
</style>
<g id="Group_5500_00000173135318657238360550000003532019731343423406_" transform="translate(-1141 -16)">
	<g id="Rectangle_3249_00000165950226512171554890000003046978520544602806_" transform="translate(1141 16)">
		<path class="st0" d="M8,0h5c4.4,0,8,3.6,8,8v4c0,4.4-3.6,8-8,8H8c-4.4,0-8-3.6-8-8V8C0,3.6,3.6,0,8,0z"/>
		<path class="st1" d="M8,0.8h5c4,0,7.2,3.2,7.2,7.2v4c0,4-3.2,7.2-7.2,7.2H8c-4,0-7.2-3.2-7.2-7.2V8C0.8,4,4,0.8,8,0.8z"/>
	</g>
	<g class="st2">
		<path class="st3" d="M1146,23.3h2.1c1.1,0,1.9,0.5,1.9,1.5c0,0.5-0.2,1-0.7,1.2v0c0.7,0.2,0.9,0.8,0.9,1.3c0,1.2-1,1.7-2.2,1.7
			h-2.1V23.3z M1148.1,25.5c0.4,0,0.5-0.3,0.5-0.5c0-0.3-0.2-0.5-0.5-0.5h-0.7v1H1148.1z M1148.2,27.8c0.4,0,0.6-0.3,0.6-0.6
			c0-0.3-0.2-0.6-0.6-0.6h-0.8v1.2H1148.2z"/>
		<path class="st3" d="M1151.5,23.3h1.5l0.8,2.4c0.1,0.4,0.3,0.9,0.3,0.9h0c0,0,0.2-0.6,0.3-0.9l0.8-2.4h1.5l0.5,5.7h-1.4l-0.2-2.6
			c0-0.4,0-1,0-1h0c0,0-0.2,0.6-0.3,1l-0.6,1.7h-1.2l-0.6-1.7c-0.1-0.4-0.3-1-0.3-1h0c0,0,0,0.5,0,1l-0.2,2.6h-1.4L1151.5,23.3z"/>
	</g>
</g>
</svg>
