<?xml version="1.0" encoding="utf-8"?>
<!-- Generator: Adobe Illustrator 26.5.0, SVG Export Plug-In . SVG Version: 6.00 Build 0)  -->
<svg version="1.2" baseProfile="tiny" id="Layer_1" xmlns="http://www.w3.org/2000/svg" xmlns:xlink="http://www.w3.org/1999/xlink"
	 x="0px" y="0px" viewBox="0 0 150 150" overflow="visible" xml:space="preserve">
<g>
	<g>
		<g>
			<polygon fill="#C4D82E" points="142.6,56.8 107.9,36.5 84.5,49.5 119.2,69.8 			"/>
			<linearGradient id="SVGID_1_" gradientUnits="userSpaceOnUse" x1="74.083" y1="57.6237" x2="146.1477" y2="94.7326">
				<stop  offset="0.2209" style="stop-color:#00A599"/>
				<stop  offset="0.9341" style="stop-color:#BFD330"/>
			</linearGradient>
			<polygon fill="url(#SVGID_1_)" points="84.5,49.5 84.5,74 119.2,94.4 119.2,69.8 			"/>
			
				<linearGradient id="SVGID_00000072270595311575165150000016934584190955689615_" gradientUnits="userSpaceOnUse" x1="109.6906" y1="90.2655" x2="146.1662" y2="65.0619">
				<stop  offset="0.2209" style="stop-color:#00A599"/>
				<stop  offset="0.9341" style="stop-color:#BFD330"/>
			</linearGradient>
			<polygon fill="url(#SVGID_00000072270595311575165150000016934584190955689615_)" points="142.6,56.8 142.6,81.4 119.2,94.4 
				119.2,69.8 			"/>
		</g>
		<g>
			
				<linearGradient id="SVGID_00000147930677453616691920000012679704929378740393_" gradientUnits="userSpaceOnUse" x1="115.8617" y1="59.8822" x2="124.6784" y2="59.8822">
				<stop  offset="0.2209" style="stop-color:#00A599"/>
				<stop  offset="0.9341" style="stop-color:#BFD330"/>
			</linearGradient>
			<polygon fill="url(#SVGID_00000147930677453616691920000012679704929378740393_)" points="124.7,60.4 119.4,57.4 115.9,59.3 
				121.1,62.4 			"/>
			
				<linearGradient id="SVGID_00000092452979142856961160000007821085693527496833_" gradientUnits="userSpaceOnUse" x1="115.8617" y1="62.7311" x2="121.1251" y2="62.7311">
				<stop  offset="0" style="stop-color:#00A89C"/>
				<stop  offset="0.4033" style="stop-color:#22B29B"/>
				<stop  offset="0.7731" style="stop-color:#3AB89B"/>
				<stop  offset="1" style="stop-color:#43BB9B"/>
			</linearGradient>
			<polygon fill="url(#SVGID_00000092452979142856961160000007821085693527496833_)" points="115.9,59.3 115.9,63 121.1,66.1 
				121.1,62.4 			"/>
			<polygon fill="#00A99D" points="124.7,60.4 124.7,64.2 121.1,66.1 121.1,62.4 			"/>
		</g>
		<g>
			
				<linearGradient id="SVGID_00000152962811748314005200000009948444010957092253_" gradientUnits="userSpaceOnUse" x1="129.5388" y1="71.9206" x2="134.9978" y2="71.9206">
				<stop  offset="0" style="stop-color:#00A89C"/>
				<stop  offset="0.4033" style="stop-color:#22B29B"/>
				<stop  offset="0.7731" style="stop-color:#3AB89B"/>
				<stop  offset="1" style="stop-color:#43BB9B"/>
			</linearGradient>
			<polygon fill="url(#SVGID_00000152962811748314005200000009948444010957092253_)" points="135,71.5 133.1,70.4 129.5,72.4 
				131.4,73.5 			"/>
			<polygon fill="#089083" points="129.5,72.4 129.5,81.3 131.4,82.4 131.4,73.5 			"/>
			<polygon fill="#00A99D" points="135,71.5 135,80.4 131.4,82.4 131.4,73.5 			"/>
		</g>
		<g>
			
				<linearGradient id="SVGID_00000054960588047152415030000016540148354466846134_" gradientUnits="userSpaceOnUse" x1="91.027" y1="46.6342" x2="99.8437" y2="46.6342">
				<stop  offset="0.2209" style="stop-color:#00A599"/>
				<stop  offset="0.9341" style="stop-color:#BFD330"/>
			</linearGradient>
			<polygon fill="url(#SVGID_00000054960588047152415030000016540148354466846134_)" points="99.8,47.2 94.6,44.1 91,46.1 
				96.3,49.2 			"/>
			
				<linearGradient id="SVGID_00000016764698995832956600000001934311863167103399_" gradientUnits="userSpaceOnUse" x1="91.027" y1="49.4832" x2="96.2904" y2="49.4832">
				<stop  offset="0" style="stop-color:#00A89C"/>
				<stop  offset="0.4033" style="stop-color:#22B29B"/>
				<stop  offset="0.7731" style="stop-color:#3AB89B"/>
				<stop  offset="1" style="stop-color:#43BB9B"/>
			</linearGradient>
			<polygon fill="url(#SVGID_00000016764698995832956600000001934311863167103399_)" points="91,46.1 91,49.8 96.3,52.9 96.3,49.2 
							"/>
			<polygon fill="#00A99D" points="99.8,47.2 99.8,50.9 96.3,52.9 96.3,49.2 			"/>
		</g>
		
			<linearGradient id="SVGID_00000021102588582850138030000016385072046817940097_" gradientUnits="userSpaceOnUse" x1="98.8635" y1="50.1261" x2="139.8211" y2="50.1261">
			<stop  offset="0.2209" style="stop-color:#00A599"/>
			<stop  offset="0.9341" style="stop-color:#BFD330"/>
		</linearGradient>
		<polygon fill="url(#SVGID_00000021102588582850138030000016385072046817940097_)" points="110.3,49.2 98.9,53.9 98.9,55.5 
			110.1,62.1 120.5,56.4 129.5,61.7 139.8,56 109.3,38.1 100.1,43.2 		"/>
		
			<linearGradient id="SVGID_00000173161540695885063310000012476422457740164749_" gradientUnits="userSpaceOnUse" x1="98.8635" y1="48.4983" x2="139.8211" y2="48.4983">
			<stop  offset="0.2209" style="stop-color:#00A599"/>
			<stop  offset="0.9341" style="stop-color:#BFD330"/>
		</linearGradient>
		<polygon fill="url(#SVGID_00000173161540695885063310000012476422457740164749_)" points="110.3,47.6 98.9,53.9 110.1,60.5 
			120.5,54.8 129.5,60.1 139.8,54.4 109.3,36.5 100.1,41.6 		"/>
		
			<linearGradient id="SVGID_00000104681336499353958440000004363745950527864212_" gradientUnits="userSpaceOnUse" x1="102.4967" y1="44.126" x2="119.2005" y2="50.9826">
			<stop  offset="0.2209" style="stop-color:#00A599"/>
			<stop  offset="0.9341" style="stop-color:#BFD330"/>
		</linearGradient>
		<polygon fill="url(#SVGID_00000104681336499353958440000004363745950527864212_)" points="100.1,41.6 100.1,43.2 108.9,48.3 
			110.3,47.6 		"/>
		
			<linearGradient id="SVGID_00000115509934980456686060000002079334590741386896_" gradientUnits="userSpaceOnUse" x1="121.5174" y1="57.1258" x2="138.6589" y2="62.7424">
			<stop  offset="0.2209" style="stop-color:#00A599"/>
			<stop  offset="0.9341" style="stop-color:#BFD330"/>
		</linearGradient>
		<polygon fill="url(#SVGID_00000115509934980456686060000002079334590741386896_)" points="120.5,54.8 120.5,56.4 129.5,61.7 
			129.5,60 		"/>
		<polygon fill="#00A99D" points="139.8,54.4 139.8,56 129.5,61.7 129.5,60.1 		"/>
		<polygon fill="#00A99D" points="110.1,60.5 110.1,62.1 120.5,56.4 120.5,54.8 		"/>
		<g>
			<g>
				
					<linearGradient id="SVGID_00000113355495955490896640000002950055775790139029_" gradientUnits="userSpaceOnUse" x1="85.2612" y1="53.2387" x2="87.9228" y2="53.2387">
					<stop  offset="0" style="stop-color:#00A89C"/>
					<stop  offset="0.4033" style="stop-color:#22B29B"/>
					<stop  offset="0.7731" style="stop-color:#3AB89B"/>
					<stop  offset="1" style="stop-color:#43BB9B"/>
				</linearGradient>
				<polygon fill="url(#SVGID_00000113355495955490896640000002950055775790139029_)" points="87.9,53.2 86.6,52.4 85.3,53.2 
					86.6,54.1 				"/>
				<polygon fill="#089083" points="85.3,53.2 85.3,73.4 86.6,74.2 86.6,54.1 				"/>
				<polygon fill="#00A99D" points="87.9,53.2 87.9,73.4 86.6,74.2 86.6,54.1 				"/>
			</g>
			<g>
				
					<linearGradient id="SVGID_00000088825420884266524770000010269261132531944852_" gradientUnits="userSpaceOnUse" x1="88.1594" y1="54.9627" x2="90.8211" y2="54.9627">
					<stop  offset="0" style="stop-color:#00A89C"/>
					<stop  offset="0.4033" style="stop-color:#22B29B"/>
					<stop  offset="0.7731" style="stop-color:#3AB89B"/>
					<stop  offset="1" style="stop-color:#43BB9B"/>
				</linearGradient>
				<polygon fill="url(#SVGID_00000088825420884266524770000010269261132531944852_)" points="90.8,55 89.5,54.1 88.2,55 89.5,55.8 
									"/>
				<polygon fill="#089083" points="88.2,55 88.2,75.1 89.5,75.9 89.5,55.8 				"/>
				<polygon fill="#00A99D" points="90.8,55 90.8,75.1 89.5,75.9 89.5,55.8 				"/>
			</g>
			<g>
				
					<linearGradient id="SVGID_00000126309006353409430040000017698287846320206015_" gradientUnits="userSpaceOnUse" x1="91.0577" y1="56.6866" x2="93.7193" y2="56.6866">
					<stop  offset="0" style="stop-color:#00A89C"/>
					<stop  offset="0.4033" style="stop-color:#22B29B"/>
					<stop  offset="0.7731" style="stop-color:#3AB89B"/>
					<stop  offset="1" style="stop-color:#43BB9B"/>
				</linearGradient>
				<polygon fill="url(#SVGID_00000126309006353409430040000017698287846320206015_)" points="93.7,56.7 92.4,55.8 91.1,56.7 
					92.4,57.5 				"/>
				<polygon fill="#089083" points="91.1,56.7 91.1,76.8 92.4,77.7 92.4,57.5 				"/>
				<polygon fill="#00A99D" points="93.7,56.7 93.7,76.8 92.4,77.7 92.4,57.5 				"/>
			</g>
			<g>
				
					<linearGradient id="SVGID_00000159459141385643797770000016446810382443232444_" gradientUnits="userSpaceOnUse" x1="93.9559" y1="58.4106" x2="96.6176" y2="58.4106">
					<stop  offset="0" style="stop-color:#00A89C"/>
					<stop  offset="0.4033" style="stop-color:#22B29B"/>
					<stop  offset="0.7731" style="stop-color:#3AB89B"/>
					<stop  offset="1" style="stop-color:#43BB9B"/>
				</linearGradient>
				<polygon fill="url(#SVGID_00000159459141385643797770000016446810382443232444_)" points="96.6,58.4 95.3,57.5 94,58.4 
					95.3,59.3 				"/>
				<polygon fill="#089083" points="94,58.4 94,78.5 95.3,79.4 95.3,59.3 				"/>
				<polygon fill="#00A99D" points="96.6,58.4 96.6,78.5 95.3,79.4 95.3,59.3 				"/>
			</g>
			<g>
				
					<linearGradient id="SVGID_00000136393107202844611350000013621480010124249765_" gradientUnits="userSpaceOnUse" x1="96.8541" y1="60.1346" x2="99.5158" y2="60.1346">
					<stop  offset="0" style="stop-color:#00A89C"/>
					<stop  offset="0.4033" style="stop-color:#22B29B"/>
					<stop  offset="0.7731" style="stop-color:#3AB89B"/>
					<stop  offset="1" style="stop-color:#43BB9B"/>
				</linearGradient>
				<polygon fill="url(#SVGID_00000136393107202844611350000013621480010124249765_)" points="99.5,60.1 98.2,59.3 96.9,60.1 
					98.2,61 				"/>
				<polygon fill="#089083" points="96.9,60.1 96.9,80.3 98.2,81.1 98.2,61 				"/>
				<polygon fill="#00A99D" points="99.5,60.1 99.5,80.3 98.2,81.1 98.2,61 				"/>
			</g>
			<g>
				
					<linearGradient id="SVGID_00000008118429852924276770000015911818963687432851_" gradientUnits="userSpaceOnUse" x1="99.7524" y1="61.8586" x2="102.414" y2="61.8586">
					<stop  offset="0" style="stop-color:#00A89C"/>
					<stop  offset="0.4033" style="stop-color:#22B29B"/>
					<stop  offset="0.7731" style="stop-color:#3AB89B"/>
					<stop  offset="1" style="stop-color:#43BB9B"/>
				</linearGradient>
				<polygon fill="url(#SVGID_00000008118429852924276770000015911818963687432851_)" points="102.4,61.9 101.1,61 99.8,61.9 
					101.1,62.7 				"/>
				<polygon fill="#089083" points="99.8,61.9 99.8,82 101.1,82.8 101.1,62.7 				"/>
				<polygon fill="#00A99D" points="102.4,61.9 102.4,82 101.1,82.8 101.1,62.7 				"/>
			</g>
			<g>
				
					<linearGradient id="SVGID_00000070098015090539515030000009691104341258375329_" gradientUnits="userSpaceOnUse" x1="102.6506" y1="63.5826" x2="105.3123" y2="63.5826">
					<stop  offset="0" style="stop-color:#00A89C"/>
					<stop  offset="0.4033" style="stop-color:#22B29B"/>
					<stop  offset="0.7731" style="stop-color:#3AB89B"/>
					<stop  offset="1" style="stop-color:#43BB9B"/>
				</linearGradient>
				<polygon fill="url(#SVGID_00000070098015090539515030000009691104341258375329_)" points="105.3,63.6 104,62.7 102.7,63.6 
					104,64.4 				"/>
				<polygon fill="#089083" points="102.7,63.6 102.7,83.7 104,84.6 104,64.4 				"/>
				<polygon fill="#00A99D" points="105.3,63.6 105.3,83.7 104,84.6 104,64.4 				"/>
			</g>
			<g>
				
					<linearGradient id="SVGID_00000011726196168484653440000000708827983446907545_" gradientUnits="userSpaceOnUse" x1="105.5489" y1="65.3066" x2="108.2105" y2="65.3066">
					<stop  offset="0" style="stop-color:#00A89C"/>
					<stop  offset="0.4033" style="stop-color:#22B29B"/>
					<stop  offset="0.7731" style="stop-color:#3AB89B"/>
					<stop  offset="1" style="stop-color:#43BB9B"/>
				</linearGradient>
				<polygon fill="url(#SVGID_00000011726196168484653440000000708827983446907545_)" points="108.2,65.3 106.9,64.4 105.5,65.3 
					106.9,66.2 				"/>
				<polygon fill="#089083" points="105.5,65.3 105.5,85.4 106.9,86.3 106.9,66.2 				"/>
				<polygon fill="#00A99D" points="108.2,65.3 108.2,85.4 106.9,86.3 106.9,66.2 				"/>
			</g>
			<g>
				
					<linearGradient id="SVGID_00000149342393265616051020000010089272495249729161_" gradientUnits="userSpaceOnUse" x1="108.4471" y1="67.0306" x2="111.1087" y2="67.0306">
					<stop  offset="0" style="stop-color:#00A89C"/>
					<stop  offset="0.4033" style="stop-color:#22B29B"/>
					<stop  offset="0.7731" style="stop-color:#3AB89B"/>
					<stop  offset="1" style="stop-color:#43BB9B"/>
				</linearGradient>
				<polygon fill="url(#SVGID_00000149342393265616051020000010089272495249729161_)" points="111.1,67 109.8,66.2 108.4,67 
					109.8,67.9 				"/>
				<polygon fill="#089083" points="108.4,67 108.4,87.2 109.8,88 109.8,67.9 				"/>
				<polygon fill="#00A99D" points="111.1,67 111.1,87.2 109.8,88 109.8,67.9 				"/>
			</g>
			<g>
				
					<linearGradient id="SVGID_00000081608446323046254880000013230284782737380027_" gradientUnits="userSpaceOnUse" x1="111.3453" y1="68.7545" x2="114.007" y2="68.7545">
					<stop  offset="0" style="stop-color:#00A89C"/>
					<stop  offset="0.4033" style="stop-color:#22B29B"/>
					<stop  offset="0.7731" style="stop-color:#3AB89B"/>
					<stop  offset="1" style="stop-color:#43BB9B"/>
				</linearGradient>
				<polygon fill="url(#SVGID_00000081608446323046254880000013230284782737380027_)" points="114,68.8 112.7,67.9 111.3,68.8 
					112.7,69.6 				"/>
				<polygon fill="#089083" points="111.3,68.8 111.3,88.9 112.7,89.7 112.7,69.6 				"/>
				<polygon fill="#00A99D" points="114,68.8 114,88.9 112.7,89.7 112.7,69.6 				"/>
			</g>
			<g>
				
					<linearGradient id="SVGID_00000158748260303037458000000003507416059750729637_" gradientUnits="userSpaceOnUse" x1="114.2436" y1="70.4785" x2="116.9052" y2="70.4785">
					<stop  offset="0" style="stop-color:#00A89C"/>
					<stop  offset="0.4033" style="stop-color:#22B29B"/>
					<stop  offset="0.7731" style="stop-color:#3AB89B"/>
					<stop  offset="1" style="stop-color:#43BB9B"/>
				</linearGradient>
				<polygon fill="url(#SVGID_00000158748260303037458000000003507416059750729637_)" points="116.9,70.5 115.6,69.6 114.2,70.5 
					115.6,71.3 				"/>
				<polygon fill="#089083" points="114.2,70.5 114.2,90.6 115.6,91.5 115.6,71.3 				"/>
				<polygon fill="#00A99D" points="116.9,70.5 116.9,90.6 115.6,91.5 115.6,71.3 				"/>
			</g>
		</g>
	</g>
	<path fill="none" stroke="#BABEC0" stroke-width="0.7648" stroke-miterlimit="10" d="M133.1,76.6l0.1,0.1c0.5,0.3,0.8,0.9,0.8,1.5
		l-0.2,11.4c0,1.4-0.8,2.7-2.1,3.3l-39.4,19.3c-1.4,0.7-3.1,0.7-4.4-0.1l-15-8.5c-1.5-0.7-2.5-2.2-2.5-3.8l0-6v-5.7
		c0,0,0-0.6-0.2-0.9c-0.2-0.4-0.5-0.6-0.5-0.6l-2.4-1.5"/>
	<g>
		<g>
			<image width="5" height="4" xlink:href="4DEC4A036E61B4C1.png"  transform="matrix(1 0 0 1 64 83)">
			</image>
		</g>
	</g>
	<g>
		
			<linearGradient id="SVGID_00000016765202036716130880000011374151222090877869_" gradientUnits="userSpaceOnUse" x1="29.0897" y1="95.0697" x2="34.1532" y2="48.2001">
			<stop  offset="0" style="stop-color:#626363"/>
			<stop  offset="1" style="stop-color:#979797"/>
		</linearGradient>
		<polygon fill="url(#SVGID_00000016765202036716130880000011374151222090877869_)" points="30.5,42.9 30.5,100.3 32.9,98.8 
			32.9,39.5 		"/>
		
			<linearGradient id="SVGID_00000178190764181502505160000006538317674235448730_" gradientUnits="userSpaceOnUse" x1="63.8919" y1="117.4166" x2="68.9554" y2="70.547">
			<stop  offset="0" style="stop-color:#626363"/>
			<stop  offset="1" style="stop-color:#979797"/>
		</linearGradient>
		<polygon fill="url(#SVGID_00000178190764181502505160000006538317674235448730_)" points="65.3,65.3 65.3,122.6 67.7,121.1 
			67.7,61.9 		"/>
		
			<linearGradient id="SVGID_00000073710012745688816230000002098111802761643654_" gradientUnits="userSpaceOnUse" x1="43.6156" y1="114.1545" x2="49.7562" y2="57.3136">
			<stop  offset="0" style="stop-color:#E8E7E7"/>
			<stop  offset="0.3238" style="stop-color:#FFFFFF"/>
			<stop  offset="1" style="stop-color:#C5C4C4"/>
		</linearGradient>
		<polygon fill="url(#SVGID_00000073710012745688816230000002098111802761643654_)" points="28.6,44.7 28.6,102 65.3,122.6 
			65.3,65.3 63.4,64.5 63.4,119.4 30.5,100.2 30.5,45.5 		"/>
		
			<linearGradient id="SVGID_00000133519149577215233720000010953295342869969338_" gradientUnits="userSpaceOnUse" x1="46.2807" y1="116.0898" x2="47.7151" y2="102.8123">
			<stop  offset="0" style="stop-color:#626363"/>
			<stop  offset="1" style="stop-color:#979797"/>
		</linearGradient>
		<polygon fill="url(#SVGID_00000133519149577215233720000010953295342869969338_)" points="30.5,100.2 63.4,119.4 63.4,115.9 
			32.9,98.8 		"/>
		<g>
			
				<linearGradient id="SVGID_00000013880281008702211580000011333540648757418417_" gradientUnits="userSpaceOnUse" x1="26.0513" y1="114.4394" x2="51.4354" y2="114.4394">
				<stop  offset="0" style="stop-color:#AC5DA3"/>
				<stop  offset="1" style="stop-color:#814C9D"/>
			</linearGradient>
			<polygon fill="url(#SVGID_00000013880281008702211580000011333540648757418417_)" points="26.1,99.9 51.4,115.1 51.4,129 
				26.1,113.7 			"/>
			
				<linearGradient id="SVGID_00000126295876572986653510000005588913192542624650_" gradientUnits="userSpaceOnUse" x1="51.4354" y1="118.4152" x2="63.4211" y2="118.4152">
				<stop  offset="0" style="stop-color:#AC5DA3"/>
				<stop  offset="1" style="stop-color:#814C9D"/>
			</linearGradient>
			<polygon fill="url(#SVGID_00000126295876572986653510000005588913192542624650_)" points="63.4,107.8 51.4,115.1 51.4,129 
				63.4,121.7 			"/>
			
				<linearGradient id="SVGID_00000088827988942977706480000012515326608657199761_" gradientUnits="userSpaceOnUse" x1="26.0513" y1="103.8546" x2="63.4211" y2="103.8546">
				<stop  offset="0" style="stop-color:#56296E"/>
				<stop  offset="0.1125" style="stop-color:#5B2D74"/>
				<stop  offset="0.6621" style="stop-color:#6F3B8C"/>
				<stop  offset="1" style="stop-color:#764195"/>
			</linearGradient>
			<polygon fill="url(#SVGID_00000088827988942977706480000012515326608657199761_)" points="26.1,99.9 51.4,115.1 63.4,107.8 
				38,92.6 			"/>
			<g>
				<polygon fill="#763F98" points="53.7,127.6 52.3,128.4 52.3,114.6 26.9,99.3 28.4,98.6 53.7,113.8 				"/>
			</g>
			<g>
				<polygon fill="#763F98" points="43.2,124 41.8,123.3 41.8,109.4 43.2,110.3 				"/>
			</g>
			<g>
				
					<linearGradient id="SVGID_00000165193139270495029870000001664130821636378785_" gradientUnits="userSpaceOnUse" x1="27.6053" y1="110.8465" x2="35.8562" y2="110.8465">
					<stop  offset="0" style="stop-color:#56296E"/>
					<stop  offset="0.1125" style="stop-color:#5B2D74"/>
					<stop  offset="0.6621" style="stop-color:#6F3B8C"/>
					<stop  offset="1" style="stop-color:#764195"/>
				</linearGradient>
				<polygon fill="url(#SVGID_00000165193139270495029870000001664130821636378785_)" points="27.6,104.3 35.9,109.5 35.9,117.4 
					27.6,112.2 				"/>
				
					<linearGradient id="SVGID_00000067199615422515166860000014941718996586270624_" gradientUnits="userSpaceOnUse" x1="35.8562" y1="113.0697" x2="37.0655" y2="113.0697">
					<stop  offset="0" style="stop-color:#AC5DA3"/>
					<stop  offset="1" style="stop-color:#814C9D"/>
				</linearGradient>
				<polygon fill="url(#SVGID_00000067199615422515166860000014941718996586270624_)" points="37.1,108.8 35.9,109.5 35.9,117.4 
					37.1,116.6 				"/>
				
					<linearGradient id="SVGID_00000097483525783962143690000015740365057621600676_" gradientUnits="userSpaceOnUse" x1="27.6053" y1="106.5636" x2="37.0655" y2="106.5636">
					<stop  offset="0" style="stop-color:#AC5DA3"/>
					<stop  offset="1" style="stop-color:#814C9D"/>
				</linearGradient>
				<polygon fill="url(#SVGID_00000097483525783962143690000015740365057621600676_)" points="27.6,104.3 35.9,109.5 37.1,108.8 
					28.8,103.6 				"/>
				<g>
					<g>
						<polygon fill="#00A99D" points="29.6,107.7 30.5,108.2 30.5,109 29.6,108.5 						"/>
						<polygon fill="#FDB924" points="30.8,108.4 31.6,108.9 31.6,109.7 30.8,109.2 						"/>
						<polygon fill="#00A99D" points="31.9,109.1 32.7,109.6 32.7,110.4 31.9,109.9 						"/>
						<polygon fill="#00A99D" points="33,109.8 33.9,110.3 33.9,111.1 33,110.6 						"/>
					</g>
					<g>
						
							<linearGradient id="SVGID_00000018212853133837620330000010226894020837002682_" gradientUnits="userSpaceOnUse" x1="29.6414" y1="109.5135" x2="30.4622" y2="109.5135">
							<stop  offset="0" style="stop-color:#E8E7E7"/>
							<stop  offset="0.3238" style="stop-color:#FFFFFF"/>
							<stop  offset="1" style="stop-color:#C5C4C4"/>
						</linearGradient>
						<polygon fill="url(#SVGID_00000018212853133837620330000010226894020837002682_)" points="29.6,108.9 30.5,109.4 30.5,110.2 
							29.6,109.6 						"/>
						
							<linearGradient id="SVGID_00000101083236255757968790000007419528684417596051_" gradientUnits="userSpaceOnUse" x1="30.7753" y1="110.2064" x2="31.5961" y2="110.2064">
							<stop  offset="0" style="stop-color:#E8E7E7"/>
							<stop  offset="0.3238" style="stop-color:#FFFFFF"/>
							<stop  offset="1" style="stop-color:#C5C4C4"/>
						</linearGradient>
						<polygon fill="url(#SVGID_00000101083236255757968790000007419528684417596051_)" points="30.8,109.6 31.6,110.1 31.6,110.9 
							30.8,110.3 						"/>
						
							<linearGradient id="SVGID_00000160895786286312379820000003187417749434186376_" gradientUnits="userSpaceOnUse" x1="31.9091" y1="110.8993" x2="32.73" y2="110.8993">
							<stop  offset="0" style="stop-color:#E8E7E7"/>
							<stop  offset="0.3238" style="stop-color:#FFFFFF"/>
							<stop  offset="1" style="stop-color:#C5C4C4"/>
						</linearGradient>
						<polygon fill="url(#SVGID_00000160895786286312379820000003187417749434186376_)" points="31.9,110.3 32.7,110.8 32.7,111.5 
							31.9,111 						"/>
						
							<linearGradient id="SVGID_00000070105015760722999570000012462411014416680381_" gradientUnits="userSpaceOnUse" x1="33.0431" y1="111.5923" x2="33.8639" y2="111.5923">
							<stop  offset="0" style="stop-color:#E8E7E7"/>
							<stop  offset="0.3238" style="stop-color:#FFFFFF"/>
							<stop  offset="1" style="stop-color:#C5C4C4"/>
						</linearGradient>
						<polygon fill="url(#SVGID_00000070105015760722999570000012462411014416680381_)" points="33,110.9 33.9,111.5 33.9,112.2 
							33,111.7 						"/>
					</g>
					<g>
						
							<linearGradient id="SVGID_00000097488061109199251150000001321300967808578466_" gradientUnits="userSpaceOnUse" x1="29.6414" y1="110.659" x2="30.4622" y2="110.659">
							<stop  offset="0" style="stop-color:#E8E7E7"/>
							<stop  offset="0.3238" style="stop-color:#FFFFFF"/>
							<stop  offset="1" style="stop-color:#C5C4C4"/>
						</linearGradient>
						<polygon fill="url(#SVGID_00000097488061109199251150000001321300967808578466_)" points="29.6,110 30.5,110.5 30.5,111.3 
							29.6,110.8 						"/>
						
							<linearGradient id="SVGID_00000008133922188851369000000000203500496874932148_" gradientUnits="userSpaceOnUse" x1="30.7753" y1="111.352" x2="31.5961" y2="111.352">
							<stop  offset="0" style="stop-color:#E8E7E7"/>
							<stop  offset="0.3238" style="stop-color:#FFFFFF"/>
							<stop  offset="1" style="stop-color:#C5C4C4"/>
						</linearGradient>
						<polygon fill="url(#SVGID_00000008133922188851369000000000203500496874932148_)" points="30.8,110.7 31.6,111.2 31.6,112 
							30.8,111.5 						"/>
						
							<linearGradient id="SVGID_00000066503051317644149250000010762423478016241081_" gradientUnits="userSpaceOnUse" x1="31.9091" y1="112.0449" x2="32.73" y2="112.0449">
							<stop  offset="0" style="stop-color:#E8E7E7"/>
							<stop  offset="0.3238" style="stop-color:#FFFFFF"/>
							<stop  offset="1" style="stop-color:#C5C4C4"/>
						</linearGradient>
						<polygon fill="url(#SVGID_00000066503051317644149250000010762423478016241081_)" points="31.9,111.4 32.7,111.9 32.7,112.7 
							31.9,112.2 						"/>
						
							<linearGradient id="SVGID_00000096741010617495831410000011956294546759773631_" gradientUnits="userSpaceOnUse" x1="33.0431" y1="112.7379" x2="33.8639" y2="112.7379">
							<stop  offset="0" style="stop-color:#E8E7E7"/>
							<stop  offset="0.3238" style="stop-color:#FFFFFF"/>
							<stop  offset="1" style="stop-color:#C5C4C4"/>
						</linearGradient>
						<polygon fill="url(#SVGID_00000096741010617495831410000011956294546759773631_)" points="33,112.1 33.9,112.6 33.9,113.4 
							33,112.9 						"/>
					</g>
					<g>
						
							<linearGradient id="SVGID_00000147215305697582910430000007755650939410264246_" gradientUnits="userSpaceOnUse" x1="29.6414" y1="111.8045" x2="30.4622" y2="111.8045">
							<stop  offset="0" style="stop-color:#E8E7E7"/>
							<stop  offset="0.3238" style="stop-color:#FFFFFF"/>
							<stop  offset="1" style="stop-color:#C5C4C4"/>
						</linearGradient>
						<polygon fill="url(#SVGID_00000147215305697582910430000007755650939410264246_)" points="29.6,111.2 30.5,111.7 30.5,112.5 
							29.6,111.9 						"/>
						
							<linearGradient id="SVGID_00000034053739028380182940000006637695069175186334_" gradientUnits="userSpaceOnUse" x1="30.7753" y1="112.4975" x2="31.5961" y2="112.4975">
							<stop  offset="0" style="stop-color:#E8E7E7"/>
							<stop  offset="0.3238" style="stop-color:#FFFFFF"/>
							<stop  offset="1" style="stop-color:#C5C4C4"/>
						</linearGradient>
						<polygon fill="url(#SVGID_00000034053739028380182940000006637695069175186334_)" points="30.8,111.9 31.6,112.4 31.6,113.1 
							30.8,112.6 						"/>
						
							<linearGradient id="SVGID_00000165913557879274330030000002959599414322028983_" gradientUnits="userSpaceOnUse" x1="31.9091" y1="113.1904" x2="32.73" y2="113.1904">
							<stop  offset="0" style="stop-color:#E8E7E7"/>
							<stop  offset="0.3238" style="stop-color:#FFFFFF"/>
							<stop  offset="1" style="stop-color:#C5C4C4"/>
						</linearGradient>
						<polygon fill="url(#SVGID_00000165913557879274330030000002959599414322028983_)" points="31.9,112.5 32.7,113.1 32.7,113.8 
							31.9,113.3 						"/>
						
							<linearGradient id="SVGID_00000155133357557752829630000010076735798242933389_" gradientUnits="userSpaceOnUse" x1="33.0431" y1="113.8834" x2="33.8639" y2="113.8834">
							<stop  offset="0" style="stop-color:#E8E7E7"/>
							<stop  offset="0.3238" style="stop-color:#FFFFFF"/>
							<stop  offset="1" style="stop-color:#C5C4C4"/>
						</linearGradient>
						<polygon fill="url(#SVGID_00000155133357557752829630000010076735798242933389_)" points="33,113.2 33.9,113.7 33.9,114.5 
							33,114 						"/>
					</g>
				</g>
			</g>
			<g>
				<image width="5" height="5" xlink:href="4DEC4A036E61B4C3.png"  transform="matrix(1 0 0 1 45 115)">
				</image>
				<g>
					<image width="4" height="5" xlink:href="4DEC4A036E61B4C6.png"  transform="matrix(1 0 0 1 45 115)">
					</image>
					<path fill="#FFFFFF" d="M47.5,119.8c-0.2,0-0.4-0.1-0.6-0.2c-0.8-0.5-1.5-1.7-1.5-2.6c0-0.6,0.3-0.9,0.7-0.9
						c0.2,0,0.4,0.1,0.6,0.2c0.8,0.5,1.5,1.7,1.5,2.6C48.2,119.5,48,119.8,47.5,119.8L47.5,119.8z"/>
					<image width="3" height="2" xlink:href="4DEC4A036E61B4C7.png"  transform="matrix(1 0 0 1 45 116)">
					</image>
					<path fill="#FAB119" d="M47,118.3c0,0-0.1,0-0.1,0c-0.2-0.1-0.3-0.3-0.3-0.5c0-0.1,0.1-0.2,0.1-0.2c0,0,0.1,0,0.1,0
						c0.2,0.1,0.3,0.3,0.3,0.5C47.1,118.2,47.1,118.3,47,118.3L47,118.3z"/>
					<image width="2" height="2" xlink:href="4DEC4A036E61B4C2.png"  transform="matrix(1 0 0 1 47 117)">
					</image>
					<image width="2" height="3" xlink:href="4DEC4A036E61B4CD.png"  transform="matrix(1 0 0 1 46 116)">
					</image>
				</g>
			</g>
			<g>
				<path fill="#00A99D" d="M45.6,122.9C45.6,122.9,45.6,122.9,45.6,122.9C45.6,122.9,45.6,122.9,45.6,122.9
					C45.6,122.9,45.6,122.9,45.6,122.9C45.6,122.9,45.6,122.9,45.6,122.9C45.6,122.9,45.6,122.9,45.6,122.9
					C45.6,122.9,45.6,122.9,45.6,122.9C45.6,122.8,45.6,122.8,45.6,122.9C45.7,122.8,45.7,122.8,45.6,122.9c0.1-0.1,0.1-0.1,0.1-0.1
					c0,0,0,0,0,0c0,0,0,0,0,0c0,0,0,0,0,0c0,0,0,0,0,0c0,0,0,0,0,0c0,0,0,0,0,0c0,0,0,0,0,0c0,0,0,0,0,0c0,0,0,0,0,0c0,0,0,0,0,0
					c0,0,0,0,0,0c0,0,0,0,0,0c0,0,0,0,0,0c0,0,0,0,0,0c0,0,0,0,0,0c0,0,0,0,0,0c0,0,0,0,0,0c0,0,0,0,0,0c0,0,0,0,0,0
					c0,0,0-0.1,0-0.1c0,0,0,0,0,0c0,0,0-0.1,0-0.1c0,0,0,0,0,0c0,0,0-0.1,0-0.1c0,0,0,0,0-0.1c0,0,0,0,0,0c0,0,0,0,0-0.1
					c0,0,0,0,0,0c0,0,0,0,0,0c0,0,0,0,0-0.1c0,0,0,0,0,0c0,0,0,0,0,0c0,0,0,0,0-0.1c0,0,0,0,0,0c0,0,0,0,0-0.1c0,0,0,0,0,0
					c0,0,0,0,0,0c0,0,0,0,0,0c0,0,0,0,0,0c0,0,0,0,0,0c0,0,0,0,0,0c0,0,0,0,0,0c0,0,0,0,0-0.1c0,0,0,0,0,0c0,0,0,0,0,0
					c0,0,0,0-0.1,0c0,0,0,0,0,0c0,0,0,0-0.1,0c0,0,0,0,0,0c0,0-0.1,0-0.1,0c-0.2-0.1-0.4-0.1-0.6,0l0.5-0.3c0.1-0.1,0.3-0.1,0.6,0
					c0,0,0.1,0,0.1,0c0,0,0,0,0,0c0,0,0,0,0,0c0,0,0,0,0,0c0,0,0,0,0,0c0,0,0,0,0.1,0c0,0,0,0,0,0c0,0,0,0,0,0c0,0,0,0,0,0
					c0,0,0,0,0,0.1c0,0,0,0,0,0c0,0,0,0,0,0c0,0,0,0,0,0c0,0,0,0,0,0c0,0,0,0,0,0c0,0,0,0,0,0c0,0,0,0,0,0c0,0,0,0,0,0c0,0,0,0,0,0
					c0,0,0,0,0,0c0,0,0,0,0,0c0,0,0,0,0,0.1c0,0,0,0,0,0c0,0,0,0,0,0c0,0,0,0,0,0.1c0,0,0,0,0,0c0,0,0,0,0,0c0,0,0,0,0,0
					c0,0,0,0,0,0.1c0,0,0,0,0,0c0,0,0,0,0,0c0,0,0,0,0,0c0,0,0,0,0,0.1c0,0,0,0,0,0c0,0,0,0,0,0.1c0,0,0,0,0,0c0,0,0,0,0,0.1
					c0,0,0,0,0,0c0,0,0,0.1,0,0.1c0,0,0,0,0,0c0,0,0,0.1,0,0.1c0,0,0,0,0,0c0,0,0,0,0,0c0,0,0,0,0,0c0,0,0,0,0,0c0,0,0,0,0,0
					c0,0,0,0,0,0c0,0,0,0,0,0c0,0,0,0,0,0c0,0,0,0,0,0c0,0,0,0,0,0c0,0,0,0,0,0c0,0,0,0,0,0c0,0,0,0,0,0c0,0,0,0,0,0c0,0,0,0,0,0
					c0,0,0,0,0,0c0,0,0,0,0,0c0,0,0,0,0,0c0,0,0,0,0,0c0,0,0,0,0,0c0,0,0,0,0,0c0,0,0,0,0,0c0,0,0,0,0,0c0,0,0,0,0,0c0,0,0,0,0,0
					c0,0,0,0,0,0c0,0,0,0,0,0c0,0,0,0,0,0c0,0,0,0,0,0c0,0,0,0,0,0c0,0,0,0,0,0c0,0,0,0,0,0c0,0,0,0,0,0c0,0,0,0,0,0c0,0,0,0,0,0
					c0,0,0,0,0,0L45.6,122.9C45.5,122.9,45.6,122.9,45.6,122.9z"/>
				<g>
					<path fill="#70C394" d="M45,122.9c0.4,0.2,0.8,0,0.8-0.5c0-0.5-0.3-1.1-0.8-1.4c-0.4-0.2-0.8,0-0.8,0.5
						C44.2,122,44.5,122.6,45,122.9z"/>
				</g>
			</g>
			<g>
				<path fill="#FDB924" d="M48.4,124.5C48.4,124.5,48.4,124.5,48.4,124.5C48.4,124.5,48.4,124.5,48.4,124.5
					C48.4,124.4,48.4,124.4,48.4,124.5C48.4,124.4,48.4,124.4,48.4,124.5C48.4,124.4,48.4,124.4,48.4,124.5
					C48.4,124.4,48.4,124.4,48.4,124.5C48.4,124.4,48.4,124.4,48.4,124.5C48.5,124.4,48.5,124.4,48.4,124.5c0.1-0.1,0.1-0.1,0.1-0.1
					c0,0,0,0,0,0c0,0,0,0,0,0c0,0,0,0,0,0c0,0,0,0,0,0c0,0,0,0,0,0c0,0,0,0,0,0c0,0,0,0,0,0c0,0,0,0,0,0c0,0,0,0,0,0c0,0,0,0,0,0
					c0,0,0,0,0,0c0,0,0,0,0,0c0,0,0,0,0,0c0,0,0,0,0,0c0,0,0,0,0,0c0,0,0,0,0,0c0,0,0,0,0,0c0,0,0,0,0,0c0,0,0,0,0,0
					c0,0,0-0.1,0-0.1c0,0,0,0,0,0c0,0,0-0.1,0-0.1c0,0,0,0,0,0c0,0,0-0.1,0-0.1c0,0,0,0,0-0.1c0,0,0,0,0,0c0,0,0,0,0-0.1
					c0,0,0,0,0,0c0,0,0,0,0,0c0,0,0,0,0-0.1c0,0,0,0,0,0c0,0,0,0,0,0c0,0,0,0,0-0.1c0,0,0,0,0,0c0,0,0,0,0-0.1c0,0,0,0,0,0
					c0,0,0,0,0,0c0,0,0,0,0,0c0,0,0,0,0,0c0,0,0,0,0,0c0,0,0,0,0,0c0,0,0,0,0,0c0,0,0,0,0-0.1c0,0,0,0,0,0c0,0,0,0,0,0
					c0,0,0,0-0.1,0c0,0,0,0,0,0c0,0,0,0-0.1,0c0,0,0,0,0,0c0,0-0.1,0-0.1,0c-0.2-0.1-0.4-0.1-0.6,0l0.5-0.3c0.1-0.1,0.3-0.1,0.6,0
					c0,0,0.1,0,0.1,0c0,0,0,0,0,0c0,0,0,0,0,0c0,0,0,0,0,0c0,0,0,0,0,0c0,0,0,0,0.1,0c0,0,0,0,0,0c0,0,0,0,0,0c0,0,0,0,0,0
					c0,0,0,0,0,0.1c0,0,0,0,0,0c0,0,0,0,0,0c0,0,0,0,0,0c0,0,0,0,0,0c0,0,0,0,0,0c0,0,0,0,0,0c0,0,0,0,0,0c0,0,0,0,0,0c0,0,0,0,0,0
					c0,0,0,0,0,0c0,0,0,0,0,0c0,0,0,0,0,0.1c0,0,0,0,0,0c0,0,0,0,0,0c0,0,0,0,0,0.1c0,0,0,0,0,0c0,0,0,0,0,0c0,0,0,0,0,0
					c0,0,0,0,0,0.1c0,0,0,0,0,0c0,0,0,0,0,0c0,0,0,0,0,0c0,0,0,0,0,0.1c0,0,0,0,0,0c0,0,0,0,0,0.1c0,0,0,0,0,0c0,0,0,0,0,0.1
					c0,0,0,0,0,0c0,0,0,0.1,0,0.1c0,0,0,0,0,0c0,0,0,0.1,0,0.1c0,0,0,0,0,0c0,0,0,0,0,0c0,0,0,0,0,0c0,0,0,0,0,0c0,0,0,0,0,0
					c0,0,0,0,0,0c0,0,0,0,0,0c0,0,0,0,0,0c0,0,0,0,0,0c0,0,0,0,0,0c0,0,0,0,0,0c0,0,0,0,0,0c0,0,0,0,0,0c0,0,0,0,0,0c0,0,0,0,0,0
					c0,0,0,0,0,0c0,0,0,0,0,0c0,0,0,0,0,0c0,0,0,0,0,0c0,0,0,0,0,0c0,0,0,0,0,0c0,0,0,0,0,0c0,0,0,0,0,0c0,0,0,0,0,0c0,0,0,0,0,0
					c0,0,0,0,0,0c0,0,0,0,0,0c0,0,0,0,0,0c0,0,0,0,0,0c0,0,0,0,0,0c0,0,0,0,0,0c0,0,0,0,0,0c0,0,0,0,0,0c0,0,0,0,0,0c0,0,0,0,0,0
					c0,0,0,0,0,0L48.4,124.5C48.4,124.5,48.4,124.5,48.4,124.5z"/>
				<g>
					<path fill="#FAAF40" d="M47.8,124.4c0.4,0.2,0.8,0,0.8-0.5c0-0.5-0.3-1.1-0.8-1.4c-0.4-0.2-0.8,0-0.8,0.5
						C47,123.6,47.3,124.2,47.8,124.4z"/>
				</g>
			</g>
		</g>
	</g>
	<g>
		
			<linearGradient id="SVGID_00000075865355621740866280000015868244812347761823_" gradientUnits="userSpaceOnUse" x1="79.1463" y1="44.4198" x2="13.7535" y2="69.9448">
			<stop  offset="0" style="stop-color:#626363"/>
			<stop  offset="1" style="stop-color:#979797"/>
		</linearGradient>
		<polygon fill="url(#SVGID_00000075865355621740866280000015868244812347761823_)" points="43.5,92.5 81.5,45 44.9,23.7 7.5,71.6 
					"/>
		
			<linearGradient id="SVGID_00000014624997403168402910000012847550597179706552_" gradientUnits="userSpaceOnUse" x1="78.6877" y1="42.6666" x2="13.2949" y2="68.1916">
			<stop  offset="0" style="stop-color:#E8E7E7"/>
			<stop  offset="0.3238" style="stop-color:#FFFFFF"/>
			<stop  offset="1" style="stop-color:#C5C4C4"/>
		</linearGradient>
		<polygon fill="url(#SVGID_00000014624997403168402910000012847550597179706552_)" points="43,90.7 81.1,43.2 44.4,21.9 7,69.8 		
			"/>
		<g>
			<g>
				<polygon fill="#37738D" points="46.3,29.7 48.7,26.7 45.6,24.8 43.1,27.9 				"/>
				<polygon fill="#37738D" points="50.2,32.2 52.7,29.1 49.5,27.3 47.1,30.3 				"/>
				<polygon fill="#37738D" points="54.2,34.6 56.7,31.6 53.5,29.7 51.1,32.8 				"/>
				<polygon fill="#37738D" points="58.2,37 60.6,34 57.5,32.2 55,35.2 				"/>
				<polygon fill="#37738D" points="62.1,39.5 64.6,36.4 61.4,34.6 59,37.7 				"/>
				<polygon fill="#37738D" points="66.1,41.9 68.6,38.9 65.4,37 63,40.1 				"/>
				<polygon fill="#37738D" points="70.1,44.4 72.5,41.3 69.4,39.5 66.9,42.5 				"/>
				<polygon fill="#37738D" points="74.1,46.8 76.5,43.8 73.3,41.9 70.9,45 				"/>
			</g>
			<g>
				<polygon fill="#37738D" points="43.1,33.9 45.6,30.8 42.4,29 40,32 				"/>
				<polygon fill="#37738D" points="47.1,36.3 49.5,33.2 46.4,31.4 43.9,34.5 				"/>
				<polygon fill="#37738D" points="51.1,38.7 53.5,35.7 50.3,33.9 47.9,36.9 				"/>
				<polygon fill="#37738D" points="55,41.2 57.5,38.1 54.3,36.3 51.9,39.4 				"/>
				<polygon fill="#37738D" points="59,43.6 61.4,40.6 58.3,38.7 55.8,41.8 				"/>
				<polygon fill="#37738D" points="63,46.1 65.4,43 62.3,41.2 59.8,44.2 				"/>
				<polygon fill="#37738D" points="66.9,48.5 69.4,45.4 66.2,43.6 63.8,46.7 				"/>
				<polygon fill="#37738D" points="70.9,50.9 73.3,47.9 70.2,46.1 67.7,49.1 				"/>
			</g>
			<g>
				<polygon fill="#37738D" points="40,38 42.4,34.9 39.3,33.1 36.8,36.2 				"/>
				<polygon fill="#37738D" points="43.9,40.4 46.4,37.4 43.2,35.6 40.8,38.6 				"/>
				<polygon fill="#37738D" points="47.9,42.9 50.3,39.8 47.2,38 44.7,41 				"/>
				<polygon fill="#37738D" points="51.9,45.3 54.3,42.3 51.2,40.4 48.7,43.5 				"/>
				<polygon fill="#37738D" points="55.8,47.8 58.3,44.7 55.1,42.9 52.7,45.9 				"/>
				<polygon fill="#37738D" points="59.8,50.2 62.3,47.1 59.1,45.3 56.7,48.4 				"/>
				<polygon fill="#37738D" points="63.8,52.6 66.2,49.6 63.1,47.8 60.6,50.8 				"/>
				<polygon fill="#37738D" points="67.7,55.1 70.2,52 67,50.2 64.6,53.3 				"/>
			</g>
			<g>
				<polygon fill="#37738D" points="36.8,42.1 39.3,39.1 36.1,37.3 33.7,40.3 				"/>
				<polygon fill="#37738D" points="40.8,44.6 43.2,41.5 40.1,39.7 37.6,42.7 				"/>
				<polygon fill="#37738D" points="44.7,47 47.2,44 44,42.1 41.6,45.2 				"/>
				<polygon fill="#37738D" points="48.7,49.5 51.2,46.4 48,44.6 45.6,47.6 				"/>
				<polygon fill="#37738D" points="52.7,51.9 55.1,48.8 52,47 49.5,50.1 				"/>
				<polygon fill="#37738D" points="56.7,54.3 59.1,51.3 55.9,49.5 53.5,52.5 				"/>
				<polygon fill="#37738D" points="60.6,56.8 63.1,53.7 59.9,51.9 57.5,54.9 				"/>
				<polygon fill="#37738D" points="64.6,59.2 67,56.2 63.9,54.3 61.4,57.4 				"/>
			</g>
			<g>
				<polygon fill="#37738D" points="33.7,46.3 36.1,43.2 32.9,41.4 30.5,44.4 				"/>
				<polygon fill="#37738D" points="37.6,48.7 40.1,45.7 36.9,43.8 34.5,46.9 				"/>
				<polygon fill="#37738D" points="41.6,51.2 44,48.1 40.9,46.3 38.4,49.3 				"/>
				<polygon fill="#37738D" points="45.6,53.6 48,50.5 44.9,48.7 42.4,51.8 				"/>
				<polygon fill="#37738D" points="49.5,56 52,53 48.8,51.2 46.4,54.2 				"/>
				<polygon fill="#37738D" points="53.5,58.5 55.9,55.4 52.8,53.6 50.3,56.6 				"/>
				<polygon fill="#37738D" points="57.5,60.9 59.9,57.9 56.8,56 54.3,59.1 				"/>
				<polygon fill="#37738D" points="61.4,63.4 63.9,60.3 60.7,58.5 58.3,61.5 				"/>
			</g>
			<g>
				<polygon fill="#37738D" points="30.5,50.4 32.9,47.4 29.8,45.5 27.4,48.6 				"/>
				<polygon fill="#37738D" points="34.5,52.9 36.9,49.8 33.8,48 31.3,51 				"/>
				<polygon fill="#37738D" points="38.4,55.3 40.9,52.2 37.7,50.4 35.3,53.5 				"/>
				<polygon fill="#37738D" points="42.4,57.7 44.9,54.7 41.7,52.9 39.3,55.9 				"/>
				<polygon fill="#37738D" points="46.4,60.2 48.8,57.1 45.7,55.3 43.2,58.3 				"/>
				<polygon fill="#37738D" points="50.3,62.6 52.8,59.6 49.6,57.7 47.2,60.8 				"/>
				<polygon fill="#37738D" points="54.3,65.1 56.8,62 53.6,60.2 51.2,63.2 				"/>
				<polygon fill="#37738D" points="58.3,67.5 60.7,64.4 57.6,62.6 55.1,65.7 				"/>
			</g>
			<g>
				<polygon fill="#37738D" points="27.3,54.5 29.8,51.5 26.6,49.7 24.2,52.7 				"/>
				<polygon fill="#37738D" points="31.3,57 33.8,53.9 30.6,52.1 28.2,55.2 				"/>
				<polygon fill="#37738D" points="35.3,59.4 37.7,56.4 34.6,54.5 32.1,57.6 				"/>
				<polygon fill="#37738D" points="39.3,61.9 41.7,58.8 38.5,57 36.1,60 				"/>
				<polygon fill="#37738D" points="43.2,64.3 45.7,61.3 42.5,59.4 40.1,62.5 				"/>
				<polygon fill="#37738D" points="47.2,66.7 49.6,63.7 46.5,61.9 44,64.9 				"/>
				<polygon fill="#37738D" points="51.2,69.2 53.6,66.1 50.5,64.3 48,67.4 				"/>
				<polygon fill="#37738D" points="55.1,71.6 57.6,68.6 54.4,66.7 52,69.8 				"/>
			</g>
			<g>
				<polygon fill="#37738D" points="24.2,58.7 26.6,55.6 23.5,53.8 21,56.9 				"/>
				<polygon fill="#37738D" points="28.2,61.1 30.6,58.1 27.5,56.2 25,59.3 				"/>
				<polygon fill="#37738D" points="32.1,63.6 34.6,60.5 31.4,58.7 29,61.7 				"/>
				<polygon fill="#37738D" points="36.1,66 38.5,63 35.4,61.1 32.9,64.2 				"/>
				<polygon fill="#37738D" points="40.1,68.4 42.5,65.4 39.4,63.6 36.9,66.6 				"/>
				<polygon fill="#37738D" points="44,70.9 46.5,67.8 43.3,66 40.9,69.1 				"/>
				<polygon fill="#37738D" points="48,73.3 50.4,70.3 47.3,68.4 44.9,71.5 				"/>
				<polygon fill="#37738D" points="52,75.8 54.4,72.7 51.3,70.9 48.8,73.9 				"/>
			</g>
			<g>
				<polygon fill="#37738D" points="21,62.8 23.5,59.8 20.3,57.9 17.9,61 				"/>
				<polygon fill="#37738D" points="25,65.3 27.5,62.2 24.3,60.4 21.9,63.4 				"/>
				<polygon fill="#37738D" points="29,67.7 31.4,64.7 28.3,62.8 25.8,65.9 				"/>
				<polygon fill="#37738D" points="32.9,70.1 35.4,67.1 32.2,65.3 29.8,68.3 				"/>
				<polygon fill="#37738D" points="36.9,72.6 39.4,69.5 36.2,67.7 33.8,70.8 				"/>
				<polygon fill="#37738D" points="40.9,75 43.3,72 40.2,70.1 37.7,73.2 				"/>
				<polygon fill="#37738D" points="44.9,77.5 47.3,74.4 44.1,72.6 41.7,75.6 				"/>
				<polygon fill="#37738D" points="48.8,79.9 51.3,76.9 48.1,75 45.7,78.1 				"/>
			</g>
			<g>
				<polygon fill="#37738D" points="17.9,67 20.3,63.9 17.2,62.1 14.7,65.1 				"/>
				<polygon fill="#37738D" points="21.9,69.4 24.3,66.3 21.1,64.5 18.7,67.6 				"/>
				<polygon fill="#37738D" points="25.8,71.8 28.3,68.8 25.1,67 22.7,70 				"/>
				<polygon fill="#37738D" points="29.8,74.3 32.2,71.2 29.1,69.4 26.6,72.5 				"/>
				<polygon fill="#37738D" points="33.8,76.7 36.2,73.7 33.1,71.8 30.6,74.9 				"/>
				<polygon fill="#37738D" points="37.7,79.2 40.2,76.1 37,74.3 34.6,77.3 				"/>
				<polygon fill="#37738D" points="41.7,81.6 44.1,78.5 41,76.7 38.5,79.8 				"/>
				<polygon fill="#37738D" points="45.7,84 48.1,81 45,79.2 42.5,82.2 				"/>
			</g>
			<g>
				<polygon fill="#37738D" points="14.7,71.1 17.2,68 14,66.2 11.6,69.3 				"/>
				<polygon fill="#37738D" points="18.7,73.5 21.1,70.5 18,68.7 15.5,71.7 				"/>
				<polygon fill="#37738D" points="22.7,76 25.1,72.9 22,71.1 19.5,74.2 				"/>
				<polygon fill="#37738D" points="26.6,78.4 29.1,75.4 25.9,73.5 23.5,76.6 				"/>
				<polygon fill="#37738D" points="30.6,80.9 33.1,77.8 29.9,76 27.5,79 				"/>
				<polygon fill="#37738D" points="34.6,83.3 37,80.2 33.9,78.4 31.4,81.5 				"/>
				<polygon fill="#37738D" points="38.5,85.7 41,82.7 37.8,80.9 35.4,83.9 				"/>
				<polygon fill="#37738D" points="42.5,88.2 45,85.1 41.8,83.3 39.4,86.4 				"/>
			</g>
		</g>
		
			<linearGradient id="SVGID_00000075852485812639055110000006246776730496268969_" gradientUnits="userSpaceOnUse" x1="36.8031" y1="76.6264" x2="15.0516" y2="85.1168">
			<stop  offset="0" style="stop-color:#626363"/>
			<stop  offset="1" style="stop-color:#979797"/>
		</linearGradient>
		<polygon fill="url(#SVGID_00000075852485812639055110000006246776730496268969_)" points="7,69.8 7.5,71.6 43.5,92.5 43,90.7 		
			"/>
		
			<linearGradient id="SVGID_00000172438064639977754120000016713116412117402518_" gradientUnits="userSpaceOnUse" x1="85.6617" y1="58.7074" x2="41.6709" y2="75.8785">
			<stop  offset="0" style="stop-color:#626363"/>
			<stop  offset="1" style="stop-color:#979797"/>
		</linearGradient>
		<polygon fill="url(#SVGID_00000172438064639977754120000016713116412117402518_)" points="81.1,43.2 81.5,45 43.5,92.5 43,90.7 		
			"/>
	</g>
	<g>
		<image width="2" height="2" xlink:href="4DEC4A036E61B4CE.png"  transform="matrix(1 0 0 1 27 42)">
		</image>
	</g>
</g>
</svg>
