<svg xmlns="http://www.w3.org/2000/svg" xmlns:xlink="http://www.w3.org/1999/xlink" width="16" height="25.567" viewBox="0 0 16 25.567">
  <defs>
    <clipPath id="clip-path">
      <rect id="Rectangle_279" data-name="Rectangle 279" width="16" height="25.567" fill="#00a19c"/>
    </clipPath>
  </defs>
  <g id="Group_557" data-name="Group 557" transform="translate(16 25.567) rotate(180)">
    <g id="Group_556" data-name="Group 556" clip-path="url(#clip-path)">
      <path id="Path_13" data-name="Path 13" d="M1.713,25.565a1.566,1.566,0,0,1-1.558-.94,1.489,1.489,0,0,1,.251-1.685,4.941,4.941,0,0,1,.5-.472c3.524-3.085,7.04-6.179,10.584-9.241.46-.4.374-.554-.023-.9Q6.112,7.683.789,3a1.9,1.9,0,0,1-.76-1.173A1.619,1.619,0,0,1,.827.2,1.638,1.638,0,0,1,2.735.46C3.981,1.533,5.214,2.62,6.451,3.7l8.737,7.652q1.633,1.43-.02,2.878Q9.036,19.6,2.906,24.968a1.8,1.8,0,0,1-1.192.6" transform="translate(0 0)" fill="#00a19c"/>
    </g>
  </g>
</svg>
