<svg id="Group_9449" data-name="Group 9449" xmlns="http://www.w3.org/2000/svg" xmlns:xlink="http://www.w3.org/1999/xlink" width="90.008" height="89" viewBox="0 0 90.008 89">
  <defs>
    <clipPath id="clip-path">
      <rect id="Rectangle_5352" data-name="Rectangle 5352" width="90.008" height="89" fill="none"/>
    </clipPath>
  </defs>
  <g id="Group_9448" data-name="Group 9448" clip-path="url(#clip-path)">
    <path id="Path_4018" data-name="Path 4018" d="M74.973,73.672a1.222,1.222,0,0,1-.46-2.354l22.165-9A1.222,1.222,0,0,1,97.6,64.58l-22.165,9a1.22,1.22,0,0,1-.459.09" transform="translate(-28.703 -24.218)" fill="#fff"/>
    <path id="Path_4019" data-name="Path 4019" d="M70.01,90.037a1.222,1.222,0,0,1-1.222-1.222V68.135H62.221a1.222,1.222,0,1,1,0-2.443h7.79a1.222,1.222,0,0,1,1.222,1.222v21.9a1.222,1.222,0,0,1-1.222,1.222" transform="translate(-23.74 -25.566)" fill="#fff"/>
    <path id="Path_4020" data-name="Path 4020" d="M38.034,94.027a1.222,1.222,0,0,1-1.222-1.222V81.322A1.222,1.222,0,0,1,38.034,80.1H41.36V77.168a1.222,1.222,0,1,1,2.443,0v4.154a1.221,1.221,0,0,1-1.222,1.222H39.255V92.806a1.222,1.222,0,0,1-1.222,1.222" transform="translate(-14.327 -29.557)" fill="#fff"/>
    <path id="Path_4021" data-name="Path 4021" d="M88.327,141.335a7.573,7.573,0,0,1-5.4-2.218,5.27,5.27,0,0,0-7.655,0,7.675,7.675,0,0,1-10.795,0,5.269,5.269,0,0,0-7.655,0,7.669,7.669,0,0,1-10.791,0,5.266,5.266,0,0,0-7.652,0,7.566,7.566,0,0,1-5.4,2.218,7.292,7.292,0,0,1-5.457-2.549c-1.091-1.044-1.952-1.87-3.767-1.87a1.222,1.222,0,1,1,0-2.443,7.294,7.294,0,0,1,5.457,2.548c1.09,1.045,1.952,1.87,3.767,1.87a5.24,5.24,0,0,0,3.827-1.648,7.671,7.671,0,0,1,10.792,0,5.266,5.266,0,0,0,7.652,0,7.674,7.674,0,0,1,10.795,0,5.27,5.27,0,0,0,7.655,0,7.674,7.674,0,0,1,10.794,0,5.249,5.249,0,0,0,3.831,1.648c1.817,0,2.678-.825,3.769-1.87a7.3,7.3,0,0,1,5.459-2.548,1.222,1.222,0,1,1,0,2.443c-1.817,0-2.678.825-3.769,1.87a7.3,7.3,0,0,1-5.459,2.548" transform="translate(-8.77 -52.335)" fill="#fff"/>
    <path id="Path_4022" data-name="Path 4022" d="M84.857,110.988H26.276a1.869,1.869,0,0,1-1.751-2V104.3a1.87,1.87,0,0,1,1.751-2H84.857a1.869,1.869,0,0,1,1.751,2v4.683a1.868,1.868,0,0,1-1.751,2m-57.889-2.443h57.2v-3.8h-57.2Z" transform="translate(-9.545 -39.814)" fill="#fff"/>
    <path id="Path_4023" data-name="Path 4023" d="M101.859,132.132a1.222,1.222,0,0,1-1.222-1.222V113.746a1.222,1.222,0,0,1,2.443,0v17.165a1.222,1.222,0,0,1-1.222,1.222" transform="translate(-39.166 -43.793)" fill="#fff"/>
    <path id="Path_4024" data-name="Path 4024" d="M111.273,129.321a1.222,1.222,0,0,1-1.222-1.222V114.588a1.222,1.222,0,1,1,2.443,0V128.1a1.222,1.222,0,0,1-1.222,1.222" transform="translate(-42.83 -44.12)" fill="#fff"/>
    <path id="Path_4025" data-name="Path 4025" d="M37.861,133.12a1.222,1.222,0,0,1-1.222-1.222V114.588a1.222,1.222,0,1,1,2.443,0V131.9a1.222,1.222,0,0,1-1.222,1.222" transform="translate(-14.259 -44.12)" fill="#fff"/>
    <path id="Path_4026" data-name="Path 4026" d="M47.277,130.43a1.222,1.222,0,0,1-1.222-1.222v-14.62a1.222,1.222,0,1,1,2.443,0v14.62a1.222,1.222,0,0,1-1.222,1.222" transform="translate(-17.924 -44.12)" fill="#fff"/>
    <path id="Path_4027" data-name="Path 4027" d="M134.477,49.33H121.753a1.222,1.222,0,0,1,0-2.443h12.725a1.222,1.222,0,0,1,0,2.443" transform="translate(-46.909 -18.248)" fill="#fff"/>
    <path id="Path_4028" data-name="Path 4028" d="M93.012,82.718a1.223,1.223,0,0,1-1.051-1.843l18.607-31.546h-3.141L82.78,82.228a1.222,1.222,0,0,1-1.956-1.465l25.013-33.388a1.22,1.22,0,0,1,.977-.489h5.891a1.222,1.222,0,0,1,1.052,1.842L94.066,82.117a1.222,1.222,0,0,1-1.054.6" transform="translate(-31.361 -18.247)" fill="#fff"/>
    <path id="Path_4029" data-name="Path 4029" d="M94.437,83.233a1.22,1.22,0,0,1-1.031-.565L89.084,75.89A1.222,1.222,0,0,1,90.1,74.012l7.586-.069-2.1-6.225a1.221,1.221,0,0,1,1.054-1.608l6.228-.531-1.048-7.415a1.223,1.223,0,0,1,1.21-1.393h5.708l-.513-7.253a1.222,1.222,0,1,1,2.437-.173l.606,8.561a1.221,1.221,0,0,1-1.219,1.308h-5.613l1.032,7.3a1.221,1.221,0,0,1-1.106,1.388l-5.963.508,2.143,6.346A1.222,1.222,0,0,1,99.4,76.37l-7.068.065,3.137,4.919a1.222,1.222,0,0,1-1.029,1.879" transform="translate(-34.596 -18.762)" fill="#fff"/>
    <path id="Path_4030" data-name="Path 4030" d="M139.772,72.989a1.222,1.222,0,0,1-1.222-1.222V48.109a1.222,1.222,0,1,1,2.443,0V71.767a1.222,1.222,0,0,1-1.222,1.222" transform="translate(-53.922 -18.248)" fill="#fff"/>
    <path id="Path_4031" data-name="Path 4031" d="M138.094,112.552a3.859,3.859,0,0,1-3.854-3.854,1.222,1.222,0,1,1,2.443,0,1.411,1.411,0,1,0,1.411-1.41,1.222,1.222,0,0,1-1.222-1.222v-2.224a1.222,1.222,0,1,1,2.443,0v1.2a3.854,3.854,0,0,1-1.222,7.509" transform="translate(-52.244 -39.938)" fill="#fff"/>
    <path id="Path_4032" data-name="Path 4032" d="M138.652,97.343a2.978,2.978,0,1,1,2.978-2.978,2.978,2.978,0,0,1-2.978,2.978" transform="translate(-52.802 -35.567)" fill="#00a99d"/>
    <path id="Path_4033" data-name="Path 4033" d="M80.854,45.413H50.714a2.373,2.373,0,0,1-2.347-2.393V21.7a2.373,2.373,0,0,1,2.347-2.393h30.14A2.372,2.372,0,0,1,83.2,21.7V43.02a2.372,2.372,0,0,1-2.346,2.393M80.837,21.7l-30.124.017.016,21.3L80.837,43Z" transform="translate(-18.824 -7.514)" fill="#fff"/>
    <path id="Path_4034" data-name="Path 4034" d="M35.079,23.741H14.808a2.254,2.254,0,0,1-2.229-2.273V2.273A2.254,2.254,0,0,1,14.808,0H39.415a2.255,2.255,0,0,1,2.229,2.273v9.6a1.182,1.182,0,1,1-2.363,0V2.41H14.942V21.331H35.079a1.205,1.205,0,0,1,0,2.41" transform="translate(-4.896)" fill="#fff"/>
    <path id="Path_4035" data-name="Path 4035" d="M21.507,26.585a2.411,2.411,0,1,1,2.363-2.41,2.389,2.389,0,0,1-2.363,2.41m0-2.411v0Z" transform="translate(-7.451 -8.47)" fill="#fff"/>
    <path id="Path_4036" data-name="Path 4036" d="M22.26,23.015a1.162,1.162,0,0,1-.805-.324,1.221,1.221,0,0,1-.059-1.7l4.5-4.918a1.165,1.165,0,0,1,1.669-.06,1.221,1.221,0,0,1,.059,1.7l-4.5,4.918a1.168,1.168,0,0,1-.864.383" transform="translate(-8.203 -6.105)" fill="#fff"/>
    <path id="Path_4037" data-name="Path 4037" d="M28.766,18.438a2.574,2.574,0,1,1,2.524-2.573,2.552,2.552,0,0,1-2.524,2.573m0-2.738a.163.163,0,0,0-.161.165c0,.181.323.181.323,0a.163.163,0,0,0-.161-.165" transform="translate(-10.213 -5.172)" fill="#fff"/>
    <path id="Path_4038" data-name="Path 4038" d="M35.211,20.5a1.153,1.153,0,0,1-.483-.106l-5.59-2.554a1.214,1.214,0,0,1-.595-1.592,1.173,1.173,0,0,1,1.561-.607l5.59,2.553a1.214,1.214,0,0,1,.595,1.592,1.18,1.18,0,0,1-1.079.712" transform="translate(-11.068 -6.045)" fill="#fff"/>
    <path id="Path_4039" data-name="Path 4039" d="M37.944,22.6a2.533,2.533,0,1,1,2.484-2.533A2.511,2.511,0,0,1,37.944,22.6m0-2.655a.121.121,0,0,0-.12.122c0,.136.241.134.241,0a.121.121,0,0,0-.121-.122" transform="translate(-13.801 -6.826)" fill="#fff"/>
    <path id="Path_4040" data-name="Path 4040" d="M38.773,18.074a1.168,1.168,0,0,1-.737-.263,1.222,1.222,0,0,1-.186-1.693l4.969-6.354a1.165,1.165,0,0,1,1.66-.191,1.221,1.221,0,0,1,.187,1.693L39.7,17.621a1.168,1.168,0,0,1-.924.454" transform="translate(-14.63 -3.624)" fill="#fff"/>
    <path id="Path_4041" data-name="Path 4041" d="M44.773,13.712a2.765,2.765,0,1,1,2.712-2.764,2.741,2.741,0,0,1-2.712,2.764m0-3.119a.355.355,0,1,0,.349.355.352.352,0,0,0-.349-.355" transform="translate(-16.37 -3.185)" fill="#fff"/>
    <path id="Path_4042" data-name="Path 4042" d="M85.886,36.359a1.172,1.172,0,0,1-.366-.059l-2.354-.782a1.209,1.209,0,0,1-.768-1.485l.78-2.71a1.193,1.193,0,0,1,.77-.807,1.163,1.163,0,0,1,1.088.2A5.322,5.322,0,0,1,87.083,34.9a2.154,2.154,0,0,1-.042.511,1.2,1.2,0,0,1-.566.791,1.163,1.163,0,0,1-.589.16M84.731,34.9l1.155.253Z" transform="translate(-32.049 -11.854)" fill="#fff"/>
    <path id="Path_4043" data-name="Path 4043" d="M70.964,43.947a7.534,7.534,0,0,1,0-15.066,7.23,7.23,0,0,1,2.418.42,1.211,1.211,0,0,1,.729,1.533l-1.644,4.838,4.742,1.686a1.212,1.212,0,0,1,.727,1.534,7.4,7.4,0,0,1-6.971,5.054m0-12.656a5.124,5.124,0,0,0,0,10.247,5,5,0,0,0,4.218-2.349l-4.607-1.638a1.21,1.21,0,0,1-.727-1.532l1.6-4.7a4.718,4.718,0,0,0-.483-.024" transform="translate(-24.743 -11.24)" fill="#fff"/>
    <path id="Path_4044" data-name="Path 4044" d="M32.487,56.359H2.347A2.372,2.372,0,0,1,0,53.967V32.045a2.372,2.372,0,0,1,2.347-2.393H8.865a1.205,1.205,0,0,1,0,2.41H2.347l.016,21.905,30.124-.017-.016-5.507a1.182,1.182,0,1,1,2.363,0v5.524a2.372,2.372,0,0,1-2.346,2.393" transform="translate(0 -11.54)" fill="#fff"/>
    <path id="Path_4045" data-name="Path 4045" d="M30.04,55.225H11.777a1.193,1.193,0,0,1-1.181-1.2V43.739a1.182,1.182,0,1,1,2.363,0v9.077H30.04a1.205,1.205,0,0,1,0,2.41" transform="translate(-4.124 -16.554)" fill="#fff"/>
    <path id="Path_4046" data-name="Path 4046" d="M19.829,56.747H18.713a1.216,1.216,0,0,1-1.149-1.3V48.378a1.216,1.216,0,0,1,1.149-1.3h1.116a1.216,1.216,0,0,1,1.148,1.3v7.074a1.216,1.216,0,0,1-1.148,1.3" transform="translate(-6.836 -18.324)" fill="#fff"/>
    <path id="Path_4047" data-name="Path 4047" d="M28.175,55.6H27.058a1.216,1.216,0,0,1-1.149-1.3V45.419a1.216,1.216,0,0,1,1.149-1.3h1.117a1.215,1.215,0,0,1,1.147,1.3V54.3a1.215,1.215,0,0,1-1.147,1.3" transform="translate(-10.083 -17.172)" fill="#fff"/>
    <path id="Path_4048" data-name="Path 4048" d="M36.519,58.026H35.4a1.215,1.215,0,0,1-1.148-1.3V51.665a1.215,1.215,0,0,1,1.148-1.3h1.116a1.215,1.215,0,0,1,1.148,1.3v5.066a1.215,1.215,0,0,1-1.148,1.3" transform="translate(-13.332 -19.603)" fill="#fff"/>
  </g>
</svg>
