<?xml version="1.0" encoding="UTF-8"?>
<svg id="Layer_1" data-name="Layer 1" xmlns="http://www.w3.org/2000/svg" xmlns:xlink="http://www.w3.org/1999/xlink" viewBox="0 0 773.83 289.51">
  <defs>
    <style>
      .cls-1 {
        fill: url(#linear-gradient);
      }

      .cls-1, .cls-2, .cls-3, .cls-4 {
        stroke-width: 0px;
      }

      .cls-2 {
        fill: url(#linear-gradient-2);
      }

      .cls-3 {
        fill: #fff;
      }

      .cls-4 {
        fill: #00b1a9;
      }
    </style>
    <linearGradient id="linear-gradient" x1="530.46" y1="135.49" x2="615.6" y2="169.89" gradientUnits="userSpaceOnUse">
      <stop offset=".1" stop-color="#fff" stop-opacity="0"/>
      <stop offset=".34" stop-color="#646162" stop-opacity=".7"/>
      <stop offset=".5" stop-color="#231f20"/>
    </linearGradient>
    <linearGradient id="linear-gradient-2" x1="619.95" y1="173.62" x2="534.73" y2="139.19" xlink:href="#linear-gradient"/>
  </defs>
  <g>
    <g>
      <path class="cls-3" d="M193.74,99.07L245.81,8.91h-80.35c-22.41.59-28.27,5.01-36.81,19.77l-51.69,89.54c-6.41,10.97-10.17,23.85-10.17,37.47,0,26.97,14.41,50.56,35.95,63.52,11.13,6.7,24.19,10.56,38.14,10.56,40.92,0,74.08-33.17,74.08-74.08,0-14.02-3.9-27.12-10.66-38.3l-10.57-18.31Z"/>
      <path class="cls-3" d="M130.37,267.33v-.08c0-7.55-5.53-11.98-14.11-11.98h-13.29c-1.28,0-2.4,1.03-2.4,2.22v31.76h9.41v-8.58c0-.55.54-1.13,1.07-1.13h3.33l6.56,9.71h10.88l-7.83-11.39c3.94-1.95,6.39-5.49,6.39-10.52M120.97,267.76c0,2.67-2.03,4.41-5.38,4.41h-5.62v-7.49c0-.81.66-1.47,1.46-1.47h4.1c3.4,0,5.44,1.54,5.44,4.46v.1Z"/>
      <path class="cls-3" d="M152.49,254.61c-10.48,0-18.32,7.91-18.32,17.67v.07c0,9.78,7.75,17.6,18.23,17.6s18.36-7.93,18.36-17.67v-.11c0-9.75-7.79-17.56-18.27-17.56M161.14,272.35c0,4.9-3.42,9.08-8.64,9.08s-8.68-4.27-8.68-9.15v-.11c0-4.9,3.46-9.08,8.6-9.08s8.73,4.28,8.73,9.19v.07Z"/>
      <path class="cls-3" d="M198.55,257.46v15.79l-13.97-17.97h-6.37c-1.34,0-2.42,1.1-2.42,2.43v31.54h9.32v-18.62l14.52,18.62h8.22v-33.97h-6.91c-1.26,0-2.39.96-2.39,2.18"/>
      <path class="cls-3" d="M66.04,257.61v5.93h10.18v25.7h9.42v-24.63c0-.58.48-1.08,1.18-1.08h9.01v-8.27h-27.39c-1.3,0-2.4,1.13-2.41,2.33"/>
      <path class="cls-3" d="M34.57,257.63v31.62h27.31v-8.02h-18v-4.09c0-.63.57-1.29,1.17-1.29h14.71v-7.42h-15.88v-3.86c0-.61.52-1.29,1.1-1.29h16.9v-8.02h-24.9c-1.29,0-2.42,1.08-2.42,2.35"/>
      <path class="cls-3" d="M268.44,268.09c-4.73-1.06-5.88-1.74-5.88-3.27v-.12c0-1.22,1.1-2.19,3.39-2.19,2.09,0,4.32.56,6.54,1.62l.7.36c.65.29,1.39.53,2.31.34.66-.14,1.13-.74,1.72-1.44l2.95-4.16c-3.68-2.97-8.18-4.52-13.97-4.52-8.14,0-13.15,4.57-13.15,10.88v.09c0,6.98,5.6,9.01,12.81,10.68,4.61,1.05,5.71,1.83,5.71,3.25v.08c0,1.48-1.35,2.33-3.86,2.33-2.97,0-5.83-.8-8.49-2.35-.77-.38-1.71-.9-2.92-.63-.5.11-.88.45-1.29.93l-3.55,4.25c4.17,3.7,9.91,5.61,15.92,5.61,8.25,0,13.72-4.13,13.72-11.06v-.09c0-6.35-4.86-8.89-12.65-10.59"/>
      <path class="cls-3" d="M221.99,289.25l1.71-4.29c.27-.68.84-1.39,1.56-1.52h12.14l2.38,5.81h10.09l-14.37-33.97h-7.71c-1.14.13-1.6.74-2,1.56l-13.71,32.41h9.91ZM230.91,266.44l3.79,9.66h-7.64l3.85-9.66Z"/>
      <path class="cls-3" d="M10.16,289.25c0-2.53-.01-8.24,0-8.57.02-.46.34-.93.79-1.09l.64-.05h3.63c2.52,0,5.03-.21,7.42-1.07,2.51-.9,4.78-2.44,6.21-4.74,1.41-2.26,1.86-5,1.66-7.63-.15-1.96-.74-3.89-1.85-5.53-2.36-3.48-6.56-4.96-10.59-5.24-.54-.04-1.1-.07-1.63-.06-1.61,0-3.22,0-4.82,0h-6.67c-1.59,0-4.19-.07-4.2,2.22v31.76h9.41ZM21.16,267.76c0,2.67-2.03,4.41-5.38,4.41h-5.62v-7.49c0-.81.66-1.47,1.46-1.47h4.1c3.4,0,5.44,1.54,5.44,4.46v.1Z"/>
      <path class="cls-3" d="M140.88,239.11c-15.16,0-30.01-4.12-42.95-11.9-24.97-15.02-40.48-42.43-40.48-71.53,0-14.8,3.96-29.39,11.44-42.19h0c.86-1.49,6.84-11.86,51.65-89.49C131.28,5.47,140.87.21,165.21-.43h.25s96.54,0,96.54,0l-57.47,99.51,7.82,13.56c7.83,12.97,11.97,27.85,11.97,43.05,0,46.01-37.43,83.43-83.43,83.43"/>
      <path class="cls-4" d="M181.99,155.69c0,22.7-18.4,41.1-41.1,41.1s-41.11-18.4-41.11-41.1,18.4-41.11,41.11-41.11,41.1,18.4,41.1,41.11"/>
      <path class="cls-4" d="M193.73,99.07L245.81,8.92h-80.35c-22.41.59-28.28,5.01-36.81,19.76l-51.68,89.54c-6.42,10.97-10.16,23.85-10.16,37.47,0,26.97,14.41,50.56,35.95,63.52,11.13,6.7,24.19,10.56,38.13,10.56,40.92,0,74.09-33.17,74.09-74.08,0-14.02-3.9-27.12-10.67-38.3l-10.57-18.31ZM165.87,27.86h47.11l-30.18,52.27-10.28-17.82-19.13-33.13c2.75-.94,6.5-1.32,12.48-1.32M140.88,210.9c-13.54,0-25.95-4.89-35.56-12.98-12.01-10.12-19.65-25.28-19.65-42.23,0-10.2,2.76-19.77,7.59-27.97l47.61-82.48,18.52,32.02h0l.02.02,29.08,50.41.02.05c4.83,8.2,7.6,17.76,7.6,27.96,0,30.49-24.72,55.22-55.22,55.22"/>
    </g>
    <g id="RGB-P50_with_Tagline" data-name="RGB-P50 with Tagline">
      <g id="P50">
        <g>
          <path class="cls-3" d="M606.58,242.35l-10.58-18.91h8.92l3.63,7.71c1.03,2.2,1.93,4.62,1.93,4.62h.09s.9-2.42,1.93-4.62l3.59-7.71h8.92l-10.58,18.91v13.13h-7.84v-13.13Z"/>
          <path class="cls-3" d="M631.95,223.44h20.08v6.72h-12.24v5.83h9.77v6.72h-9.77v6.05h12.86v6.72h-20.71v-32.05Z"/>
          <path class="cls-3" d="M677.71,248.76h-10l-1.93,6.72h-8.07l10.89-32.05h8.25l10.89,32.05h-8.07l-1.97-6.72ZM672.69,230.74s-.72,3.5-1.3,5.51l-1.84,6.23h6.32l-1.79-6.23c-.58-2.02-1.3-5.51-1.3-5.51h-.09Z"/>
          <path class="cls-3" d="M694.69,223.44h11.16c3.27,0,4.84.22,6.23.76,3.63,1.39,5.92,4.66,5.92,9.32,0,3.41-1.61,7.13-4.8,8.74v.09s.45.58,1.21,1.93l6.23,11.2h-8.74l-5.69-10.8h-3.68v10.8h-7.84v-32.05ZM705.94,237.96c2.51,0,4.08-1.39,4.08-3.94,0-2.42-.9-3.85-4.84-3.85h-2.64v7.8h3.41Z"/>
          <path class="cls-3" d="M730.5,245.49s3.63,3.32,7.66,3.32c1.61,0,3.36-.63,3.36-2.56,0-3.81-14.43-3.68-14.43-13.54,0-5.92,4.97-9.82,11.34-9.82,6.9,0,10.31,3.63,10.31,3.63l-3.32,6.41s-3.23-2.82-7.08-2.82c-1.61,0-3.41.72-3.41,2.51,0,4.03,14.43,3.32,14.43,13.45,0,5.33-4.08,9.95-11.29,9.95s-11.7-4.57-11.7-4.57l4.12-5.96Z"/>
        </g>
        <g>
          <path class="cls-3" d="M744.84,84.43c-16.21-39.25-58.61-59.91-98.66-50.13-4.14,1.01-8.26,2.35-12.32,4.03-31.04,12.82-48.96,41.13-63.14,73l-6.78,16.92c-11.97-5.41-39.15-19.78-62.14-18.84-11.44.47-20.59,3.69-22.82,4.68l3.86-45.85h80.42v-34.11h-114.61l-10.14,110.62,31.47,12.71c25.71-21.22,50.94-3.86,79.6,7.51-4.33,9.97-9.02,20.61-9.02,20.61-4.29,9.71-10.12,19.43-18.94,25.64-7.38,5.19-15.81,7.27-24.72,7.27-28.27,0-46.4-21.82-46.4-21.82l-20.28,29.8s14.5,18.07,42.89,25.92c8.01,2.26,17.13,3.72,27.36,3.72,16.27,0,32.6-5.03,46.24-14.06,13.97-9.25,22.86-22.5,29.88-37.38,3.29-6.98,5.86-13.79,9.62-23.11,37.85,16.21,76.31,28.81,112.54,13.85,4.06-1.68,7.92-3.63,11.57-5.84,35.28-21.32,50.74-65.89,34.54-105.13ZM683.29,158.01c-22.24,9.18-51.43-.01-82.64-13.46,12.56-33.64,24.38-59.62,48.66-68.82,22.95-8.7,48.76,1.47,58.13,24.15,9.37,22.68-1.47,48.76-24.15,58.13Z"/>
          <path class="cls-1" d="M538,116.83l-14.59,37.03c8.46,3.37,17.13,7.54,26.15,11.12,1-2.58,14.37-36.72,14.37-36.72-5.8-2.63-15.19-7.36-25.94-11.43h0Z"/>
          <path class="cls-2" d="M627.16,154.82s0,0,0,0c0,0,0,0,0,0h0c-8.59-2.84-17.47-6.38-26.52-10.27l-14.45,37.01c8.76,3.75,17.56,7.31,26.35,10.38h0l14.62-37.11Z"/>
        </g>
      </g>
    </g>
    <rect class="cls-3" x="351.44" y="-.43" width="8.46" height="290.26"/>
  </g>
  <g>
    <path class="cls-3" d="M748.88,213.37c1.25,0,1.9.72,1.9.72l-.57.94s-.57-.52-1.27-.52c-.97,0-1.43.72-1.43,1.45s.5,1.52,1.43,1.52c.77,0,1.35-.62,1.35-.62l.64.91s-.72.85-2.04.85c-1.59,0-2.66-1.13-2.66-2.63s1.13-2.61,2.66-2.61Z"/>
    <path class="cls-3" d="M748.72,220.13c-2.28,0-4.14-1.86-4.14-4.14s1.86-4.14,4.14-4.14,4.14,1.86,4.14,4.14-1.86,4.14-4.14,4.14ZM748.72,212.15c-2.12,0-3.84,1.72-3.84,3.84s1.72,3.84,3.84,3.84,3.84-1.72,3.84-3.84-1.72-3.84-3.84-3.84Z"/>
  </g>
</svg>