<?xml version="1.0" encoding="UTF-8"?>
<svg xmlns="http://www.w3.org/2000/svg" xmlns:xlink="http://www.w3.org/1999/xlink" viewBox="0 0 769.67 290.92">
  <defs>
    <style>
      .cls-1 {
        fill: url(#New_Gradient_Swatch);
      }

      .cls-1, .cls-2 {
        mix-blend-mode: multiply;
      }

      .cls-1, .cls-2, .cls-3, .cls-4, .cls-5 {
        stroke-width: 0px;
      }

      .cls-2 {
        fill: url(#linear-gradient);
      }

      .cls-6 {
        fill: none;
        stroke: #00b1a9;
        stroke-miterlimit: 10;
        stroke-width: 8.46px;
      }

      .cls-7 {
        isolation: isolate;
      }

      .cls-3 {
        fill: #3c3835;
      }

      .cls-4 {
        fill: #fff;
      }

      .cls-5 {
        fill: #00b1a9;
      }
    </style>
    <linearGradient id="New_Gradient_Swatch" data-name="New Gradient Swatch" x1="534.15" y1="136.23" x2="618.44" y2="170.28" gradientUnits="userSpaceOnUse">
      <stop offset=".03" stop-color="#00b1a9" stop-opacity="0"/>
      <stop offset=".17" stop-color="#15847e" stop-opacity=".36"/>
      <stop offset=".38" stop-color="#314c49" stop-opacity=".83"/>
      <stop offset=".5" stop-color="#3c3835"/>
    </linearGradient>
    <linearGradient id="linear-gradient" x1="622.75" y1="173.97" x2="538.37" y2="139.88" gradientUnits="userSpaceOnUse">
      <stop offset=".03" stop-color="#00b1a9" stop-opacity="0"/>
      <stop offset=".17" stop-color="#15847e" stop-opacity=".36"/>
      <stop offset=".38" stop-color="#314c49" stop-opacity=".83"/>
      <stop offset=".5" stop-color="#3c3835"/>
    </linearGradient>
  </defs>
  <g class="cls-7">
    <g id="Layer_1" data-name="Layer 1">
      <g>
        <g>
          <path class="cls-5" d="M609.51,242.03l-10.47-18.73h8.83l3.59,7.63c1.02,2.17,1.91,4.57,1.91,4.57h.09s.89-2.4,1.91-4.57l3.55-7.63h8.83l-10.47,18.73v13h-7.77v-13Z"/>
          <path class="cls-5" d="M634.63,223.3h19.88v6.66h-12.11v5.77h9.67v6.66h-9.67v5.99h12.74v6.66h-20.5v-31.73Z"/>
          <path class="cls-5" d="M679.94,248.37h-9.9l-1.91,6.66h-7.99l10.78-31.73h8.17l10.78,31.73h-7.99l-1.95-6.66ZM674.97,230.53s-.71,3.46-1.29,5.46l-1.82,6.17h6.26l-1.78-6.17c-.58-2-1.29-5.46-1.29-5.46h-.09Z"/>
          <path class="cls-5" d="M696.76,223.3h11.05c3.24,0,4.79.22,6.17.75,3.59,1.38,5.86,4.62,5.86,9.23,0,3.37-1.6,7.06-4.75,8.65v.09s.44.58,1.2,1.91l6.17,11.09h-8.65l-5.64-10.69h-3.64v10.69h-7.77v-31.73ZM707.9,237.68c2.48,0,4.04-1.38,4.04-3.91,0-2.4-.89-3.82-4.79-3.82h-2.62v7.72h3.37Z"/>
          <path class="cls-5" d="M732.21,245.13s3.59,3.28,7.59,3.28c1.6,0,3.33-.62,3.33-2.53,0-3.77-14.29-3.64-14.29-13.4,0-5.86,4.93-9.72,11.23-9.72,6.83,0,10.21,3.59,10.21,3.59l-3.28,6.35s-3.2-2.8-7.01-2.8c-1.6,0-3.37.71-3.37,2.49,0,3.99,14.29,3.28,14.29,13.31,0,5.28-4.04,9.85-11.18,9.85s-11.58-4.53-11.58-4.53l4.08-5.9Z"/>
        </g>
        <g>
          <path class="cls-5" d="M746.41,85.67c-16.05-38.86-58.04-59.32-97.68-49.64-4.1,1-8.18,2.33-12.2,3.99-30.74,12.69-48.48,40.73-62.51,72.28l-6.72,16.75c-11.85-5.36-38.76-19.59-61.53-18.65-11.33.47-20.39,3.66-22.6,4.63l3.82-45.4h79.62v-33.77h-113.48l-10.04,109.52,31.16,12.59c25.45-21.01,50.44-3.83,78.81,7.43-4.28,9.87-8.93,20.41-8.94,20.41-4.24,9.62-10.02,19.23-18.75,25.39-7.31,5.14-15.65,7.2-24.48,7.2-27.99,0-45.94-21.6-45.94-21.6l-20.08,29.51s14.35,17.89,42.47,25.67c7.93,2.24,16.96,3.68,27.09,3.68,16.11,0,32.28-4.98,45.78-13.92,13.83-9.16,22.64-22.27,29.59-37.02,3.26-6.91,5.8-13.65,9.52-22.89,37.48,16.05,75.56,28.52,111.43,13.71,4.02-1.66,7.84-3.6,11.46-5.78,34.93-21.11,50.24-65.24,34.2-104.1ZM685.46,158.52c-22.02,9.09-50.92-.01-81.82-13.32,12.44-33.31,24.14-59.03,48.18-68.14,22.72-8.62,48.28,1.45,57.56,23.91,9.28,22.46-1.45,48.28-23.91,57.56Z"/>
          <path class="cls-1" d="M541.62,117.74l-14.44,36.66c8.37,3.34,16.96,7.47,25.89,11.01.99-2.55,14.23-36.36,14.23-36.36-5.75-2.6-15.04-7.28-25.68-11.31h0Z"/>
          <path class="cls-2" d="M629.89,155.37s0,0,0,0c0,0,0,0,0,0,0,0,0,0,0,0-8.5-2.81-17.29-6.31-26.25-10.17l-14.31,36.64c8.68,3.72,17.39,7.23,26.09,10.27h0l14.47-36.74Z"/>
        </g>
        <line class="cls-6" x1="360.49" y1=".66" x2="360.49" y2="290.92"/>
        <g>
          <path class="cls-4" d="M192.99,99.51L245.06,9.35h-80.35c-22.41.59-28.27,5.01-36.81,19.77l-51.69,89.54c-6.41,10.97-10.17,23.85-10.17,37.47,0,26.97,14.41,50.56,35.95,63.52,11.13,6.7,24.19,10.56,38.14,10.56,40.92,0,74.08-33.17,74.08-74.08,0-14.02-3.9-27.12-10.66-38.3l-10.57-18.31Z"/>
          <path class="cls-3" d="M129.62,267.77v-.08c0-7.55-5.53-11.98-14.11-11.98h-13.29c-1.28,0-2.4,1.03-2.4,2.22v31.76h9.41v-8.58c0-.55.54-1.13,1.07-1.13h3.33l6.56,9.71h10.88l-7.83-11.39c3.94-1.95,6.39-5.49,6.39-10.52M120.22,268.2c0,2.67-2.03,4.41-5.38,4.41h-5.62v-7.49c0-.81.66-1.47,1.46-1.47h4.1c3.4,0,5.44,1.54,5.44,4.46v.1Z"/>
          <path class="cls-3" d="M151.75,255.04c-10.48,0-18.32,7.91-18.32,17.67v.07c0,9.78,7.75,17.6,18.23,17.6s18.36-7.93,18.36-17.67v-.11c0-9.75-7.79-17.56-18.27-17.56M160.39,272.79c0,4.9-3.42,9.08-8.64,9.08s-8.68-4.27-8.68-9.15v-.11c0-4.9,3.46-9.08,8.6-9.08s8.73,4.28,8.73,9.19v.07Z"/>
          <path class="cls-3" d="M197.8,257.89v15.79l-13.97-17.97h-6.37c-1.34,0-2.42,1.1-2.42,2.43v31.54h9.32v-18.62l14.52,18.62h8.22v-33.97h-6.91c-1.26,0-2.39.96-2.39,2.18"/>
          <path class="cls-3" d="M65.29,258.04v5.93h10.18v25.7h9.42v-24.63c0-.58.48-1.08,1.18-1.08h9.01v-8.27h-27.39c-1.3,0-2.4,1.13-2.41,2.33"/>
          <path class="cls-3" d="M33.82,258.06v31.62h27.31v-8.02h-18v-4.09c0-.63.57-1.29,1.17-1.29h14.71v-7.42h-15.88v-3.86c0-.61.52-1.29,1.1-1.29h16.9v-8.02h-24.9c-1.29,0-2.42,1.08-2.42,2.35"/>
          <path class="cls-3" d="M267.69,268.52c-4.73-1.06-5.88-1.74-5.88-3.27v-.12c0-1.22,1.1-2.19,3.39-2.19,2.09,0,4.32.56,6.54,1.62l.7.36c.65.29,1.39.53,2.31.34.66-.14,1.13-.74,1.72-1.44l2.95-4.16c-3.68-2.97-8.18-4.52-13.97-4.52-8.14,0-13.15,4.57-13.15,10.88v.09c0,6.98,5.6,9.01,12.81,10.68,4.61,1.05,5.71,1.83,5.71,3.25v.08c0,1.48-1.35,2.33-3.86,2.33-2.97,0-5.83-.8-8.49-2.35-.77-.38-1.71-.9-2.92-.63-.5.11-.88.45-1.29.93l-3.55,4.25c4.17,3.7,9.91,5.61,15.92,5.61,8.25,0,13.72-4.13,13.72-11.06v-.09c0-6.35-4.86-8.89-12.65-10.59"/>
          <path class="cls-3" d="M221.24,289.68l1.71-4.29c.27-.68.84-1.39,1.56-1.52h12.14l2.38,5.81h10.09l-14.37-33.97h-7.71c-1.14.13-1.6.74-2,1.56l-13.71,32.41h9.91ZM230.17,266.87l3.79,9.66h-7.64l3.85-9.66Z"/>
          <path class="cls-3" d="M9.41,289.69c0-2.53-.01-8.24,0-8.57.02-.46.34-.93.79-1.09l.64-.05h3.63c2.52,0,5.03-.21,7.42-1.07,2.51-.9,4.78-2.44,6.21-4.74,1.41-2.26,1.86-5,1.66-7.63-.15-1.96-.74-3.89-1.85-5.53-2.36-3.48-6.56-4.96-10.59-5.24-.54-.04-1.1-.07-1.63-.06-1.61,0-3.22,0-4.82,0h-6.67c-1.59,0-4.19-.07-4.2,2.22v31.76h9.41ZM20.41,268.2c0,2.67-2.03,4.41-5.38,4.41h-5.62v-7.49c0-.81.66-1.47,1.46-1.47h4.1c3.4,0,5.44,1.54,5.44,4.46v.1Z"/>
          <path class="cls-4" d="M140.14,239.55c-15.16,0-30.01-4.12-42.95-11.9-24.97-15.02-40.48-42.43-40.48-71.53,0-14.8,3.96-29.39,11.44-42.19h0c.86-1.49,6.84-11.86,51.65-89.49C130.53,5.9,140.13.65,164.47,0h.25s96.54,0,96.54,0l-57.47,99.51,7.82,13.56c7.83,12.97,11.97,27.85,11.97,43.05,0,46.01-37.43,83.43-83.43,83.43"/>
          <path class="cls-5" d="M181.24,156.12c0,22.7-18.4,41.1-41.1,41.1s-41.11-18.4-41.11-41.1,18.4-41.11,41.11-41.11,41.1,18.4,41.1,41.11"/>
          <path class="cls-5" d="M192.99,99.51L245.06,9.35h-80.35c-22.41.59-28.28,5.01-36.81,19.76l-51.68,89.54c-6.42,10.97-10.16,23.85-10.16,37.47,0,26.97,14.41,50.56,35.95,63.52,11.13,6.7,24.19,10.56,38.13,10.56,40.92,0,74.09-33.17,74.09-74.08,0-14.02-3.9-27.12-10.67-38.3l-10.57-18.31ZM165.12,28.3h47.11l-30.18,52.27-10.28-17.82-19.13-33.13c2.75-.94,6.5-1.32,12.48-1.32M140.14,211.33c-13.54,0-25.95-4.89-35.56-12.98-12.01-10.12-19.65-25.28-19.65-42.23,0-10.2,2.76-19.77,7.59-27.97l47.61-82.48,18.52,32.02h0l.02.02,29.08,50.41.02.05c4.83,8.2,7.6,17.76,7.6,27.96,0,30.49-24.72,55.22-55.22,55.22"/>
        </g>
      </g>
      <g>
        <path class="cls-3" d="M751,213.1c1.25,0,1.9.72,1.9.72l-.57.94s-.57-.52-1.27-.52c-.97,0-1.43.72-1.43,1.45s.5,1.52,1.43,1.52c.77,0,1.35-.62,1.35-.62l.64.91s-.72.85-2.04.85c-1.59,0-2.66-1.13-2.66-2.63s1.13-2.61,2.66-2.61Z"/>
        <path class="cls-3" d="M750.83,219.86c-2.28,0-4.14-1.86-4.14-4.14s1.86-4.14,4.14-4.14,4.14,1.86,4.14,4.14-1.86,4.14-4.14,4.14ZM750.83,211.87c-2.12,0-3.84,1.72-3.84,3.84s1.72,3.84,3.84,3.84,3.84-1.72,3.84-3.84-1.72-3.84-3.84-3.84Z"/>
      </g>
    </g>
  </g>
</svg>