<svg xmlns="http://www.w3.org/2000/svg" xmlns:xlink="http://www.w3.org/1999/xlink" width="20" height="20" viewBox="0 0 20 20">
  <defs>
    <clipPath id="clip-path">
      <path id="Path_1" data-name="Path 1" d="M2.632,9.783a7.177,7.177,0,1,1,7.189,7.2H9.768a7.183,7.183,0,0,1-7.136-7.2M9.243,1c-.347.051-.695.086-1.038.153A8.7,8.7,0,0,0,2.237,5.321a8.406,8.406,0,0,0-1.2,3.771A.993.993,0,0,1,1,9.243v1.133c.055.379.1.761.166,1.136a8.845,8.845,0,0,0,8.27,7.1,8.736,8.736,0,0,0,5.2-1.44c.275-.181.537-.383.825-.59.049.058.09.116.142.168q1.945,1.947,3.893,3.895a2.121,2.121,0,0,0,.217.2.8.8,0,0,0,1.255-.429A.823.823,0,0,0,21,20.2v-.04a.929.929,0,0,0-.315-.626q-1.979-1.973-3.951-3.949c-.049-.049-.1-.1-.145-.153l.234-.3a8.653,8.653,0,0,0,1.784-4.951,8.517,8.517,0,0,0-1.463-5.228,8.663,8.663,0,0,0-5.73-3.795c-.343-.067-.692-.1-1.038-.154Z" fill="#fff"/>
    </clipPath>
  </defs>
  <g id="Group_2" data-name="Group 2" transform="translate(-1 -1)">
    <g id="Group_1" data-name="Group 1" clip-path="url(#clip-path)">
      <rect id="Rectangle_2" data-name="Rectangle 2" width="22" height="22" fill="#fff"/>
    </g>
  </g>
</svg>
