<svg id="Group_5514" data-name="Group 5514" xmlns="http://www.w3.org/2000/svg" xmlns:xlink="http://www.w3.org/1999/xlink" width="19.923" height="20" viewBox="0 0 19.923 20">
  <defs>
    <clipPath id="clip-path">
      <rect id="Rectangle_3250" data-name="Rectangle 3250" width="19.923" height="20" fill="#fff"/>
    </clipPath>
  </defs>
  <g id="Group_5514-2" data-name="Group 5514" clip-path="url(#clip-path)">
    <path id="Path_2287" data-name="Path 2287" d="M9.962,19.923a9.962,9.962,0,1,1,9.962-9.962,9.975,9.975,0,0,1-9.962,9.962m0-18.672a8.685,8.685,0,1,0,8.685,8.685A8.694,8.694,0,0,0,9.962,1.252" fill="#fff"/>
    <path id="Path_2288" data-name="Path 2288" d="M23.162,20.049h0C20.1,20.023,17.747,15.63,17.8,10.036,17.849,4.468,20.25.1,23.264.1h.026c3.04.026,5.39,4.419,5.338,10.013-.026,5.594-2.427,9.936-5.466,9.936m.1-18.646c-2.248,0-4.163,3.959-4.189,8.659s1.839,8.71,4.087,8.71h.026c2.248,0,4.163-3.959,4.189-8.659S25.537,1.428,23.264,1.4" transform="translate(-13.251 -0.074)" fill="#fff"/>
    <path id="Path_2289" data-name="Path 2289" d="M37.139,20.223a.632.632,0,0,1-.639-.639V.939a.639.639,0,0,1,1.277,0V19.585a.649.649,0,0,1-.639.639" transform="translate(-27.177 -0.223)" fill="#fff"/>
    <path id="Path_2290" data-name="Path 2290" d="M20.522,12.709a6.881,6.881,0,0,1-6.309-3.78.623.623,0,0,1,.307-.843.615.615,0,0,1,.843.307,5.628,5.628,0,0,0,5.16,3.04A5.538,5.538,0,0,0,25.707,8.29a.641.641,0,0,1,1.175.511,6.826,6.826,0,0,1-6.36,3.908" transform="translate(-10.534 -5.889)" fill="#fff"/>
    <path id="Path_2291" data-name="Path 2291" d="M14.945,56.1a.908.908,0,0,1-.255-.051.647.647,0,0,1-.332-.843,6.853,6.853,0,0,1,6.36-3.908,6.881,6.881,0,0,1,6.309,3.78.634.634,0,0,1-1.149.536,5.628,5.628,0,0,0-5.16-3.04,5.538,5.538,0,0,0-5.185,3.142.607.607,0,0,1-.587.383" transform="translate(-10.654 -38.197)" fill="#fff"/>
  </g>
</svg>
